<svg width="24" height="24" viewBox="0 0 24 24" fill="none" xmlns="http://www.w3.org/2000/svg">
<path d="M5.64899 24C5.54763 23.9998 5.44872 23.9688 5.36536 23.9112C5.28201 23.8535 5.21815 23.7719 5.18225 23.6771C5.14635 23.5823 5.14011 23.4788 5.16435 23.3804C5.18859 23.282 5.24218 23.1933 5.31799 23.126L17.893 12L5.31799 0.874993C5.22706 0.785006 5.174 0.663642 5.16968 0.535783C5.16537 0.407924 5.21013 0.283259 5.29479 0.187346C5.37945 0.0914329 5.49759 0.0315398 5.62499 0.019946C5.7524 0.00835229 5.87941 0.0459364 5.97999 0.124993L18.556 11.251C18.6614 11.345 18.7457 11.4602 18.8035 11.5891C18.8613 11.7179 18.8912 11.8575 18.8913 11.9988C18.8914 12.14 18.8616 12.2796 18.804 12.4086C18.7464 12.5375 18.6622 12.6528 18.557 12.747L5.97999 23.875C5.88858 23.9556 5.77087 24.0001 5.64899 24Z" fill="currentColor"/>
</svg>
