<svg width="24" height="24" viewBox="0 0 24 24" fill="none" xmlns="http://www.w3.org/2000/svg">
<g clip-path="url(#clip0_337_1171)">
<path d="M2 24C1.173 24 0.5 23.327 0.5 22.5C0.5 22.3674 0.552678 22.2402 0.646447 22.1464C0.740215 22.0527 0.867392 22 1 22C1.13261 22 1.25979 22.0527 1.35355 22.1464C1.44732 22.2402 1.5 22.3674 1.5 22.5C1.5 22.776 1.724 23 2 23C2.13261 23 2.25979 23.0527 2.35355 23.1464C2.44732 23.2402 2.5 23.3674 2.5 23.5C2.5 23.6326 2.44732 23.7598 2.35355 23.8536C2.25979 23.9473 2.13261 24 2 24Z" fill="currentColor"/>
<path d="M10 24C9.86739 24 9.74021 23.9473 9.64645 23.8536C9.55268 23.7598 9.5 23.6326 9.5 23.5C9.5 23.3674 9.55268 23.2402 9.64645 23.1464C9.74021 23.0527 9.86739 23 10 23C10.276 23 10.5 22.776 10.5 22.5C10.5 22.3674 10.5527 22.2402 10.6464 22.1464C10.7402 22.0527 10.8674 22 11 22C11.1326 22 11.2598 22.0527 11.3536 22.1464C11.4473 22.2402 11.5 22.3674 11.5 22.5C11.5 23.327 10.827 24 10 24Z" fill="currentColor"/>
<path d="M1 21C0.867392 21 0.740215 20.9473 0.646447 20.8536C0.552678 20.7598 0.5 20.6326 0.5 20.5V19.5C0.5 19.3674 0.552678 19.2402 0.646447 19.1464C0.740215 19.0527 0.867392 19 1 19C1.13261 19 1.25979 19.0527 1.35355 19.1464C1.44732 19.2402 1.5 19.3674 1.5 19.5V20.5C1.5 20.6326 1.44732 20.7598 1.35355 20.8536C1.25979 20.9473 1.13261 21 1 21Z" fill="currentColor"/>
<path d="M4 24C3.86739 24 3.74021 23.9473 3.64645 23.8536C3.55268 23.7598 3.5 23.6326 3.5 23.5C3.5 23.3674 3.55268 23.2402 3.64645 23.1464C3.74021 23.0527 3.86739 23 4 23H5C5.13261 23 5.25979 23.0527 5.35355 23.1464C5.44732 23.2402 5.5 23.3674 5.5 23.5C5.5 23.6326 5.44732 23.7598 5.35355 23.8536C5.25979 23.9473 5.13261 24 5 24H4Z" fill="currentColor"/>
<path d="M4 14C3.86739 14 3.74021 13.9473 3.64645 13.8536C3.55268 13.7598 3.5 13.6326 3.5 13.5C3.5 13.3674 3.55268 13.2402 3.64645 13.1464C3.74021 13.0527 3.86739 13 4 13H5C5.13261 13 5.25979 13.0527 5.35355 13.1464C5.44732 13.2402 5.5 13.3674 5.5 13.5C5.5 13.6326 5.44732 13.7598 5.35355 13.8536C5.25979 13.9473 5.13261 14 5 14H4Z" fill="currentColor"/>
<path d="M7 24C6.86739 24 6.74021 23.9473 6.64645 23.8536C6.55268 23.7598 6.5 23.6326 6.5 23.5C6.5 23.3674 6.55268 23.2402 6.64645 23.1464C6.74021 23.0527 6.86739 23 7 23H8C8.13261 23 8.25979 23.0527 8.35355 23.1464C8.44732 23.2402 8.5 23.3674 8.5 23.5C8.5 23.6326 8.44732 23.7598 8.35355 23.8536C8.25979 23.9473 8.13261 24 8 24H7Z" fill="currentColor"/>
<path d="M7 14C6.86739 14 6.74021 13.9473 6.64645 13.8536C6.55268 13.7598 6.5 13.6326 6.5 13.5C6.5 13.3674 6.55268 13.2402 6.64645 13.1464C6.74021 13.0527 6.86739 13 7 13H8C8.13261 13 8.25979 13.0527 8.35355 13.1464C8.44732 13.2402 8.5 13.3674 8.5 13.5C8.5 13.6326 8.44732 13.7598 8.35355 13.8536C8.25979 13.9473 8.13261 14 8 14H7Z" fill="currentColor"/>
<path d="M11 15C10.724 15 10.5 14.776 10.5 14.5C10.5 14.224 10.276 14 10 14C9.86739 14 9.74021 13.9473 9.64645 13.8536C9.55268 13.7598 9.5 13.6326 9.5 13.5C9.5 13.3674 9.55268 13.2402 9.64645 13.1464C9.74021 13.0527 9.86739 13 10 13C10.827 13 11.5 13.673 11.5 14.5C11.5 14.6326 11.4473 14.7598 11.3536 14.8536C11.2598 14.9473 11.1326 15 11 15Z" fill="currentColor"/>
<path d="M11 18C10.8674 18 10.7402 17.9473 10.6464 17.8536C10.5527 17.7598 10.5 17.6326 10.5 17.5V16.5C10.5 16.3674 10.5527 16.2402 10.6464 16.1464C10.7402 16.0527 10.8674 16 11 16C11.1326 16 11.2598 16.0527 11.3536 16.1464C11.4473 16.2402 11.5 16.3674 11.5 16.5V17.5C11.5 17.6326 11.4473 17.7598 11.3536 17.8536C11.2598 17.9473 11.1326 18 11 18Z" fill="currentColor"/>
<path d="M1 15C0.867392 15 0.740215 14.9473 0.646447 14.8536C0.552678 14.7598 0.5 14.6326 0.5 14.5C0.5 13.673 1.173 13 2 13C2.13261 13 2.25979 13.0527 2.35355 13.1464C2.44732 13.2402 2.5 13.3674 2.5 13.5C2.5 13.6326 2.44732 13.7598 2.35355 13.8536C2.25979 13.9473 2.13261 14 2 14C1.724 14 1.5 14.224 1.5 14.5C1.5 14.776 1.276 15 1 15Z" fill="currentColor"/>
<path d="M1 18C0.867392 18 0.740215 17.9473 0.646447 17.8536C0.552678 17.7598 0.5 17.6326 0.5 17.5V16.5C0.5 16.3674 0.552678 16.2402 0.646447 16.1464C0.740215 16.0527 0.867392 16 1 16C1.13261 16 1.25979 16.0527 1.35355 16.1464C1.44732 16.2402 1.5 16.3674 1.5 16.5V17.5C1.5 17.6326 1.44732 17.7598 1.35355 17.8536C1.25979 17.9473 1.13261 18 1 18Z" fill="currentColor"/>
<path d="M11 21C10.8674 21 10.7402 20.9473 10.6464 20.8536C10.5527 20.7598 10.5 20.6326 10.5 20.5V19.5C10.5 19.3674 10.5527 19.2402 10.6464 19.1464C10.7402 19.0527 10.8674 19 11 19C11.1326 19 11.2598 19.0527 11.3536 19.1464C11.4473 19.2402 11.5 19.3674 11.5 19.5V20.5C11.5 20.6326 11.4473 20.7598 11.3536 20.8536C11.2598 20.9473 11.1326 21 11 21Z" fill="currentColor"/>
<path d="M2 11C1.173 11 0.5 10.327 0.5 9.5V1.5C0.5 0.673 1.173 0 2 0H10C10.827 0 11.5 0.673 11.5 1.5V9.5C11.5 10.327 10.827 11 10 11H2ZM2 1C1.86739 1 1.74021 1.05268 1.64645 1.14645C1.55268 1.24021 1.5 1.36739 1.5 1.5V9.5C1.5 9.63261 1.55268 9.75979 1.64645 9.85355C1.74021 9.94732 1.86739 10 2 10H10C10.1326 10 10.2598 9.94732 10.3536 9.85355C10.4473 9.75979 10.5 9.63261 10.5 9.5V1.5C10.5 1.36739 10.4473 1.24021 10.3536 1.14645C10.2598 1.05268 10.1326 1 10 1H2Z" fill="currentColor"/>
<path d="M19 19.483C18.9343 19.4831 18.8694 19.4698 18.809 19.444C18.7477 19.4193 18.6922 19.3822 18.646 19.335L14.647 15.336C14.6005 15.2895 14.5636 15.2343 14.5385 15.1736C14.5133 15.1128 14.5004 15.0477 14.5004 14.982C14.5004 14.9162 14.5133 14.8511 14.5385 14.7904C14.5636 14.7297 14.6005 14.6745 14.647 14.628C14.6935 14.5815 14.7487 14.5446 14.8094 14.5195C14.8702 14.4943 14.9353 14.4814 15.001 14.4814C15.0667 14.4814 15.1318 14.4943 15.1926 14.5195C15.2533 14.5446 15.3085 14.5815 15.355 14.628L18.501 17.774V3.49999C18.501 3.36751 18.5536 3.24046 18.6473 3.14679C18.741 3.05311 18.868 3.00049 19.0005 3.00049C19.133 3.00049 19.26 3.05311 19.3537 3.14679C19.4474 3.24046 19.5 3.36751 19.5 3.49999V17.776L22.646 14.63C22.7399 14.5361 22.8672 14.4834 23 14.4834C23.1328 14.4834 23.2601 14.5361 23.354 14.63C23.4479 14.7239 23.5006 14.8512 23.5006 14.984C23.5006 15.1168 23.4479 15.2441 23.354 15.338L19.354 19.338C19.3075 19.3844 19.2523 19.4211 19.1915 19.446C19.1308 19.4709 19.0657 19.4835 19 19.483Z" fill="currentColor"/>
</g>
<defs>
<clipPath id="clip0_337_1171">
<rect width="24" height="24" fill="white"/>
</clipPath>
</defs>
</svg>
