<svg width="24" height="24" viewBox="0 0 24 24" fill="none" xmlns="http://www.w3.org/2000/svg">
<g clip-path="url(#clip0_1_113525)">
<path d="M12.04 18.867C11.754 18.867 11.481 18.744 11.291 18.531L0.166999 5.95701C0.0792124 5.85769 0.0344774 5.72756 0.0426352 5.59525C0.0507931 5.46295 0.111175 5.3393 0.210499 5.25151C0.309823 5.16373 0.439951 5.11899 0.572258 5.12715C0.704565 5.13531 0.828212 5.19569 0.915999 5.29501L12.041 17.868L23.167 5.29501C23.2549 5.19575 23.3786 5.13538 23.5109 5.12713C23.6432 5.11888 23.7735 5.16343 23.873 5.25101C23.9222 5.29454 23.9623 5.34733 23.9911 5.40637C24.0199 5.46541 24.0368 5.52954 24.0408 5.5951C24.0448 5.66067 24.0358 5.72637 24.0144 5.78847C23.993 5.85057 23.9596 5.90784 23.916 5.95701L12.79 18.531C12.6957 18.6367 12.5801 18.7212 12.4509 18.7791C12.3216 18.837 12.1816 18.867 12.04 18.867Z" fill="currentColor"/>
</g>
<defs>
<clipPath id="clip0_1_113525">
<rect width="24" height="24" fill="white"/>
</clipPath>
</defs>
</svg>
