<svg width="24" height="24" viewBox="0 0 24 24" fill="none" xmlns="http://www.w3.org/2000/svg">
<g clip-path="url(#clip0_1_113528)">
<path d="M0.535008 18.873C0.438731 18.8731 0.344488 18.8453 0.263599 18.7931C0.18271 18.7409 0.118616 18.6664 0.0790148 18.5787C0.039414 18.4909 0.0259912 18.3936 0.0403586 18.2984C0.054726 18.2032 0.0962727 18.1142 0.160008 18.042L11.286 5.46901C11.3797 5.36265 11.4949 5.27745 11.624 5.21909C11.7532 5.16074 11.8933 5.13055 12.035 5.13055C12.1767 5.13055 12.3168 5.16074 12.446 5.21909C12.5751 5.27745 12.6904 5.36265 12.784 5.46901L23.91 18.042C23.9732 18.1142 24.0144 18.2031 24.0286 18.2981C24.0427 18.393 24.0293 18.4901 23.9899 18.5776C23.9505 18.6652 23.8868 18.7396 23.8063 18.7919C23.7258 18.8443 23.632 18.8724 23.536 18.873C23.4653 18.873 23.3955 18.8581 23.331 18.8291C23.2665 18.8001 23.2089 18.7579 23.162 18.705L12.035 6.13101L0.910008 18.705C0.862889 18.7579 0.805116 18.8002 0.740485 18.8291C0.675854 18.8581 0.605828 18.873 0.535008 18.873Z" fill="currentColor"/>
</g>
<defs>
<clipPath id="clip0_1_113528">
<rect width="24" height="24" fill="white"/>
</clipPath>
</defs>
</svg>
