<svg width="24" height="24" viewBox="0 0 24 24" fill="none" xmlns="http://www.w3.org/2000/svg">
<path d="M18.3922 0.0178909C18.4936 0.0180626 18.5925 0.049036 18.6758 0.106705C18.7592 0.164373 18.8231 0.246016 18.8589 0.340805C18.8948 0.435595 18.9011 0.539057 18.8768 0.637474C18.8526 0.735891 18.799 0.824619 18.7232 0.891891L6.14821 12.0179L18.7232 23.1429C18.8141 23.2329 18.8672 23.3542 18.8715 23.4821C18.8758 23.61 18.8311 23.7346 18.7464 23.8305C18.6618 23.9265 18.5436 23.9863 18.4162 23.9979C18.2888 24.0095 18.1618 23.9719 18.0612 23.8929L5.48521 12.7669C5.37983 12.6729 5.29549 12.5577 5.23771 12.4288C5.17993 12.2999 5.15001 12.1603 5.14992 12.0191C5.14982 11.8779 5.17955 11.7382 5.23716 11.6093C5.29477 11.4804 5.37895 11.365 5.48421 11.2709L18.0612 0.142891C18.1526 0.0622749 18.2703 0.0178222 18.3922 0.0178909Z" fill="currentColor"/>
</svg>
