<svg width="24" height="24" viewBox="0 0 24 24" fill="none" xmlns="http://www.w3.org/2000/svg">
<g clip-path="url(#clip0_337_1172)">
<path d="M1 2C0.867392 2 0.740215 1.94732 0.646447 1.85355C0.552678 1.75979 0.5 1.63261 0.5 1.5C0.5 0.673 1.173 0 2 0C2.13261 0 2.25979 0.0526784 2.35355 0.146447C2.44732 0.240215 2.5 0.367392 2.5 0.5C2.5 0.632608 2.44732 0.759785 2.35355 0.853553C2.25979 0.947322 2.13261 1 2 1C1.724 1 1.5 1.224 1.5 1.5C1.5 1.776 1.276 2 1 2Z" fill="currentColor"/>
<path d="M11 2C10.724 2 10.5 1.776 10.5 1.5C10.5 1.224 10.276 1 10 1C9.86739 1 9.74021 0.947322 9.64645 0.853553C9.55268 0.759785 9.5 0.632608 9.5 0.5C9.5 0.367392 9.55268 0.240215 9.64645 0.146447C9.74021 0.0526784 9.86739 0 10 0C10.827 0 11.5 0.673 11.5 1.5C11.5 1.63261 11.4473 1.75979 11.3536 1.85355C11.2598 1.94732 11.1326 2 11 2Z" fill="currentColor"/>
<path d="M1 5C0.867392 5 0.740215 4.94732 0.646447 4.85355C0.552678 4.75979 0.5 4.63261 0.5 4.5V3.5C0.5 3.36739 0.552678 3.24021 0.646447 3.14645C0.740215 3.05268 0.867392 3 1 3C1.13261 3 1.25979 3.05268 1.35355 3.14645C1.44732 3.24021 1.5 3.36739 1.5 3.5V4.5C1.5 4.63261 1.44732 4.75979 1.35355 4.85355C1.25979 4.94732 1.13261 5 1 5Z" fill="currentColor"/>
<path d="M4 1C3.86739 1 3.74021 0.947322 3.64645 0.853553C3.55268 0.759785 3.5 0.632608 3.5 0.5C3.5 0.367392 3.55268 0.240215 3.64645 0.146447C3.74021 0.0526784 3.86739 0 4 0L5 0C5.13261 0 5.25979 0.0526784 5.35355 0.146447C5.44732 0.240215 5.5 0.367392 5.5 0.5C5.5 0.632608 5.44732 0.759785 5.35355 0.853553C5.25979 0.947322 5.13261 1 5 1H4Z" fill="currentColor"/>
<path d="M4 11C3.86739 11 3.74021 10.9473 3.64645 10.8536C3.55268 10.7598 3.5 10.6326 3.5 10.5C3.5 10.3674 3.55268 10.2402 3.64645 10.1464C3.74021 10.0527 3.86739 10 4 10H5C5.13261 10 5.25979 10.0527 5.35355 10.1464C5.44732 10.2402 5.5 10.3674 5.5 10.5C5.5 10.6326 5.44732 10.7598 5.35355 10.8536C5.25979 10.9473 5.13261 11 5 11H4Z" fill="currentColor"/>
<path d="M7 1C6.86739 1 6.74021 0.947322 6.64645 0.853553C6.55268 0.759785 6.5 0.632608 6.5 0.5C6.5 0.367392 6.55268 0.240215 6.64645 0.146447C6.74021 0.0526784 6.86739 0 7 0L8 0C8.13261 0 8.25979 0.0526784 8.35355 0.146447C8.44732 0.240215 8.5 0.367392 8.5 0.5C8.5 0.632608 8.44732 0.759785 8.35355 0.853553C8.25979 0.947322 8.13261 1 8 1H7Z" fill="currentColor"/>
<path d="M7 11C6.86739 11 6.74021 10.9473 6.64645 10.8536C6.55268 10.7598 6.5 10.6326 6.5 10.5C6.5 10.3674 6.55268 10.2402 6.64645 10.1464C6.74021 10.0527 6.86739 10 7 10H8C8.13261 10 8.25979 10.0527 8.35355 10.1464C8.44732 10.2402 8.5 10.3674 8.5 10.5C8.5 10.6326 8.44732 10.7598 8.35355 10.8536C8.25979 10.9473 8.13261 11 8 11H7Z" fill="currentColor"/>
<path d="M10 11C9.86739 11 9.74021 10.9473 9.64645 10.8536C9.55268 10.7598 9.5 10.6326 9.5 10.5C9.5 10.3674 9.55268 10.2402 9.64645 10.1464C9.74021 10.0527 9.86739 10 10 10C10.276 10 10.5 9.776 10.5 9.5C10.5 9.36739 10.5527 9.24021 10.6464 9.14645C10.7402 9.05268 10.8674 9 11 9C11.1326 9 11.2598 9.05268 11.3536 9.14645C11.4473 9.24021 11.5 9.36739 11.5 9.5C11.5 10.327 10.827 11 10 11Z" fill="currentColor"/>
<path d="M11 8C10.8674 8 10.7402 7.94732 10.6464 7.85355C10.5527 7.75979 10.5 7.63261 10.5 7.5V6.5C10.5 6.36739 10.5527 6.24021 10.6464 6.14645C10.7402 6.05268 10.8674 6 11 6C11.1326 6 11.2598 6.05268 11.3536 6.14645C11.4473 6.24021 11.5 6.36739 11.5 6.5V7.5C11.5 7.63261 11.4473 7.75979 11.3536 7.85355C11.2598 7.94732 11.1326 8 11 8Z" fill="currentColor"/>
<path d="M2 11C1.173 11 0.5 10.327 0.5 9.5C0.5 9.36739 0.552678 9.24021 0.646447 9.14645C0.740215 9.05268 0.867392 9 1 9C1.13261 9 1.25979 9.05268 1.35355 9.14645C1.44732 9.24021 1.5 9.36739 1.5 9.5C1.5 9.776 1.724 10 2 10C2.13261 10 2.25979 10.0527 2.35355 10.1464C2.44732 10.2402 2.5 10.3674 2.5 10.5C2.5 10.6326 2.44732 10.7598 2.35355 10.8536C2.25979 10.9473 2.13261 11 2 11Z" fill="currentColor"/>
<path d="M1 8C0.867392 8 0.740215 7.94732 0.646447 7.85355C0.552678 7.75979 0.5 7.63261 0.5 7.5V6.5C0.5 6.36739 0.552678 6.24021 0.646447 6.14645C0.740215 6.05268 0.867392 6 1 6C1.13261 6 1.25979 6.05268 1.35355 6.14645C1.44732 6.24021 1.5 6.36739 1.5 6.5V7.5C1.5 7.63261 1.44732 7.75979 1.35355 7.85355C1.25979 7.94732 1.13261 8 1 8Z" fill="currentColor"/>
<path d="M11 5C10.8674 5 10.7402 4.94732 10.6464 4.85355C10.5527 4.75979 10.5 4.63261 10.5 4.5V3.5C10.5 3.36739 10.5527 3.24021 10.6464 3.14645C10.7402 3.05268 10.8674 3 11 3C11.1326 3 11.2598 3.05268 11.3536 3.14645C11.4473 3.24021 11.5 3.36739 11.5 3.5V4.5C11.5 4.63261 11.4473 4.75979 11.3536 4.85355C11.2598 4.94732 11.1326 5 11 5Z" fill="currentColor"/>
<path d="M2 24C1.173 24 0.5 23.327 0.5 22.5V14.5C0.5 13.673 1.173 13 2 13H10C10.827 13 11.5 13.673 11.5 14.5V22.5C11.5 23.327 10.827 24 10 24H2ZM2 14C1.86739 14 1.74021 14.0527 1.64645 14.1464C1.55268 14.2402 1.5 14.3674 1.5 14.5V22.5C1.5 22.6326 1.55268 22.7598 1.64645 22.8536C1.74021 22.9473 1.86739 23 2 23H10C10.1326 23 10.2598 22.9473 10.3536 22.8536C10.4473 22.7598 10.5 22.6326 10.5 22.5V14.5C10.5 14.3674 10.4473 14.2402 10.3536 14.1464C10.2598 14.0527 10.1326 14 10 14H2Z" fill="currentColor"/>
<path d="M19 21C18.8674 21 18.7402 20.9473 18.6464 20.8535C18.5527 20.7598 18.5 20.6326 18.5 20.5V6.22397L15.354 9.36997C15.3076 9.41646 15.2524 9.45335 15.1917 9.47854C15.1311 9.50372 15.066 9.51671 15.0003 9.51675C14.9346 9.5168 14.8696 9.5039 14.8089 9.47881C14.7481 9.45371 14.693 9.4169 14.6465 9.37047C14.6 9.32405 14.5631 9.26893 14.5379 9.20825C14.5127 9.14757 14.4997 9.08253 14.4997 9.01683C14.4996 8.95113 14.5125 8.88607 14.5376 8.82535C14.5627 8.76464 14.5996 8.70946 14.646 8.66297L18.646 4.66297C18.74 4.56942 18.8673 4.51691 19 4.51691C19.1326 4.51691 19.2599 4.56942 19.354 4.66297L23.354 8.66297C23.4479 8.75686 23.5006 8.8842 23.5006 9.01697C23.5006 9.14975 23.4479 9.27709 23.354 9.37097C23.2601 9.46486 23.1327 9.51761 23 9.51761C22.8672 9.51761 22.7399 9.46486 22.646 9.37097L19.5 6.22397V20.5C19.5 20.6326 19.4473 20.7598 19.3535 20.8535C19.2598 20.9473 19.1326 21 19 21Z" fill="currentColor"/>
</g>
<defs>
<clipPath id="clip0_337_1172">
<rect width="24" height="24" fill="white"/>
</clipPath>
</defs>
</svg>
