<svg width="24" height="24" viewBox="0 0 24 24" fill="none" xmlns="http://www.w3.org/2000/svg">
<g clip-path="url(#clip0_1_113953)">
<path d="M11 11.9C10.9225 11.9001 10.8461 11.8821 10.7767 11.8476C10.7074 11.8131 10.647 11.7629 10.6003 11.701C10.5537 11.6391 10.5221 11.5673 10.5079 11.4911C10.4938 11.4149 10.4976 11.3365 10.519 11.262L11.519 7.762C11.5341 7.70962 11.5581 7.66023 11.59 7.616C11.6116 7.57603 11.6421 7.54149 11.679 7.515L18.793 0.395003C18.9787 0.207517 19.2312 0.101453 19.495 0.100141C19.7589 0.0988278 20.0125 0.202373 20.2 0.388003L22 2.188C22.189 2.377 22.293 2.628 22.293 2.895C22.2933 3.02637 22.2676 3.1565 22.2173 3.27786C22.167 3.39922 22.0932 3.5094 22 3.602L14.854 10.753C14.7937 10.8132 14.719 10.8569 14.637 10.88L11.138 11.88C11.0932 11.8931 11.0467 11.8998 11 11.9ZM11.728 10.672L13.546 10.152L12.247 8.853L11.728 10.672ZM14.5 9.692L19.292 4.896L17.5 3.103L12.707 7.899L14.5 9.692ZM20 4.189L21.292 2.896L19.504 1.107L19.5 0.852003V1.102L18.208 2.396L20 4.189Z" fill="currentColor"/>
<path d="M1 23.9C0.449 23.9 0 23.452 0 22.9V5.89999C0 5.34899 0.449 4.89999 1 4.89999H12C12.1326 4.89999 12.2598 4.95267 12.3536 5.04644C12.4473 5.14021 12.5 5.26739 12.5 5.39999C12.5 5.5326 12.4473 5.65978 12.3536 5.75355C12.2598 5.84732 12.1326 5.89999 12 5.89999H1V22.9H23V5.89999H22C21.8674 5.89999 21.7402 5.84732 21.6464 5.75355C21.5527 5.65978 21.5 5.5326 21.5 5.39999C21.5 5.26739 21.5527 5.14021 21.6464 5.04644C21.7402 4.95267 21.8674 4.89999 22 4.89999H23C23.552 4.89999 24 5.34899 24 5.89999V22.9C24 23.1652 23.8946 23.4196 23.7071 23.6071C23.5196 23.7946 23.2652 23.9 23 23.9H1Z" fill="currentColor"/>
<path d="M17.5 20.9C17.4869 20.8999 17.4739 20.8989 17.461 20.897H12.537C12.5248 20.8989 12.5124 20.8999 12.5 20.9H4C3.449 20.9 3 20.452 3 19.9V8.89999C3 8.34899 3.449 7.89999 4 7.89999H8C8.13261 7.89999 8.25979 7.95267 8.35355 8.04644C8.44732 8.14021 8.5 8.26739 8.5 8.39999C8.5 8.5326 8.44732 8.65978 8.35355 8.75355C8.25979 8.84732 8.13261 8.89999 8 8.89999H4V12.897H8C8.13261 12.897 8.25979 12.9497 8.35355 13.0434C8.44732 13.1372 8.5 13.2644 8.5 13.397C8.5 13.5296 8.44732 13.6568 8.35355 13.7505C8.25979 13.8443 8.13261 13.897 8 13.897H4V15.9H7C7.551 15.9 8 16.348 8 16.9V19.9H12V16.9C12 16.6348 12.1054 16.3804 12.2929 16.1929C12.4804 16.0054 12.7348 15.9 13 15.9H17C17.2652 15.9 17.5196 16.0054 17.7071 16.1929C17.8946 16.3804 18 16.6348 18 16.9V19.9H20V14.897H16C15.8674 14.897 15.7402 14.8443 15.6464 14.7505C15.5527 14.6568 15.5 14.5296 15.5 14.397C15.5 14.2644 15.5527 14.1372 15.6464 14.0434C15.7402 13.9497 15.8674 13.897 16 13.897H20V12.897H16C15.8674 12.897 15.7402 12.8443 15.6464 12.7505C15.5527 12.6568 15.5 12.5296 15.5 12.397C15.5 12.2644 15.5527 12.1372 15.6464 12.0434C15.7402 11.9497 15.8674 11.897 16 11.897H20V8.89999C20 8.76739 20.0527 8.64021 20.1464 8.54644C20.2402 8.45267 20.3674 8.39999 20.5 8.39999C20.6326 8.39999 20.7598 8.45267 20.8536 8.54644C20.9473 8.64021 21 8.76739 21 8.89999V19.9C21 20.1652 20.8946 20.4196 20.7071 20.6071C20.5196 20.7946 20.2652 20.9 20 20.9H17.5ZM4 19.9H7V16.9H4V19.9ZM17 19.897V18.897H13V19.897H17ZM17 17.897V16.9H13V17.897H17Z" fill="currentColor"/>
</g>
<defs>
<clipPath id="clip0_1_113953">
<rect width="24" height="24" fill="white"/>
</clipPath>
</defs>
</svg>
