<svg width="24" height="24" viewBox="0 0 24 24" fill="none" xmlns="http://www.w3.org/2000/svg">
<g clip-path="url(#clip0_1_113569)">
<path d="M1.5 24.001C0.673 24.001 0 23.328 0 22.501V3.50098C0 2.67398 0.673 2.00098 1.5 2.00098H5V0.500977C5 0.368368 5.05268 0.241191 5.14645 0.147423C5.24021 0.053655 5.36739 0.000976563 5.5 0.000976562C5.63261 0.000976563 5.75979 0.053655 5.85355 0.147423C5.94732 0.241191 6 0.368368 6 0.500977V2.00098H18V0.500977C18 0.368368 18.0527 0.241191 18.1464 0.147423C18.2402 0.053655 18.3674 0.000976563 18.5 0.000976562C18.6326 0.000976563 18.7598 0.053655 18.8536 0.147423C18.9473 0.241191 19 0.368368 19 0.500977V2.00098H22.5C23.327 2.00098 24 2.67398 24 3.50098V22.501C24 23.328 23.327 24.001 22.5 24.001H1.5ZM1 22.501C1 22.6336 1.05268 22.7608 1.14645 22.8545C1.24021 22.9483 1.36739 23.001 1.5 23.001H22.5C22.6326 23.001 22.7598 22.9483 22.8536 22.8545C22.9473 22.7608 23 22.6336 23 22.501V8.00098H1V22.501ZM23 7.00098V3.50098C23 3.36837 22.9473 3.24119 22.8536 3.14742C22.7598 3.05366 22.6326 3.00098 22.5 3.00098H19V5.50098C19 5.63358 18.9473 5.76076 18.8536 5.85453C18.7598 5.9483 18.6326 6.00098 18.5 6.00098C18.3674 6.00098 18.2402 5.9483 18.1464 5.85453C18.0527 5.76076 18 5.63358 18 5.50098V3.00098H6V5.50098C6 5.63358 5.94732 5.76076 5.85355 5.85453C5.75979 5.9483 5.63261 6.00098 5.5 6.00098C5.36739 6.00098 5.24021 5.9483 5.14645 5.85453C5.05268 5.76076 5 5.63358 5 5.50098V3.00098H1.5C1.36739 3.00098 1.24021 3.05366 1.14645 3.14742C1.05268 3.24119 1 3.36837 1 3.50098V7.00098H23Z" fill="currentColor"/>
</g>
<defs>
<clipPath id="clip0_1_113569">
<rect width="24" height="24" fill="white"/>
</clipPath>
</defs>
</svg>
