<?xml version="1.0" encoding="UTF-8" standalone="no"?>
<svg
   width="24"
   height="24"
   viewBox="0 0 24 24"
   fill="none"
   version="1.1"
   id="svg9"
   sodipodi:docname="cd.svg"
   inkscape:version="1.3.2 (091e20e, 2023-11-25, custom)"
   xmlns:inkscape="http://www.inkscape.org/namespaces/inkscape"
   xmlns:sodipodi="http://sodipodi.sourceforge.net/DTD/sodipodi-0.dtd"
   xmlns="http://www.w3.org/2000/svg"
   xmlns:svg="http://www.w3.org/2000/svg">
  <sodipodi:namedview
     id="namedview9"
     pagecolor="#ffffff"
     bordercolor="#000000"
     borderopacity="0.25"
     inkscape:showpageshadow="2"
     inkscape:pageopacity="0.0"
     inkscape:pagecheckerboard="0"
     inkscape:deskcolor="#d1d1d1"
     inkscape:zoom="53.291667"
     inkscape:cx="11.990618"
     inkscape:cy="12"
     inkscape:window-width="2880"
     inkscape:window-height="1514"
     inkscape:window-x="-11"
     inkscape:window-y="-11"
     inkscape:window-maximized="1"
     inkscape:current-layer="g9" />
  <g
     clip-path="url(#clip0_1_113707)"
     id="g9">
    <path
       style="color:#000000;fill:currentColor;stroke-linecap:round;stroke-linejoin:round;-inkscape-stroke:none"
       d="m 2,5.7246094 a 0.5,0.5 0 0 0 -0.5,0.5 V 19.224609 a 0.5,0.5 0 0 0 0.5,0.5 0.5,0.5 0 0 0 0.5,-0.5 V 6.2246094 a 0.5,0.5 0 0 0 -0.5,-0.5 z"
       id="path1" />
    <path
       style="color:#000000;fill:currentColor;stroke-linecap:round;stroke-linejoin:round;-inkscape-stroke:none"
       d="m 22,5.7246094 a 0.5,0.5 0 0 0 -0.5,0.5 V 19.224609 a 0.5,0.5 0 0 0 0.5,0.5 0.5,0.5 0 0 0 0.5,-0.5 V 6.2246094 a 0.5,0.5 0 0 0 -0.5,-0.5 z"
       id="path2" />
    <path
       style="color:#000000;fill:currentColor;stroke-linecap:round;stroke-linejoin:round;-inkscape-stroke:none"
       d="m 5.5,15.724609 c -0.2650784,0 -0.5196459,0.105504 -0.7070313,0.292969 C 4.605387,16.20502 4.5,16.459581 4.5,16.724609 v 6 c 0,0.265028 0.1056075,0.51961 0.2929687,0.707032 C 4.9803333,23.618885 5.2349216,23.724609 5.5,23.724609 H 12 a 0.50005,0.50005 0 0 0 0.5,-0.5 v -7 a 0.50005,0.50005 0 0 0 -0.5,-0.5 z m 0,1 h 6 v 6 h -6 z"
       id="path3" />
    <path
       style="color:#000000;fill:currentColor;stroke-linecap:round;stroke-linejoin:round;-inkscape-stroke:none"
       d="m 12,15.724609 a 0.50005,0.50005 0 0 0 -0.5,0.5 v 7 a 0.50005,0.50005 0 0 0 0.5,0.5 h 6.5 c 0.265078,0 0.51965,-0.105787 0.707031,-0.292968 C 19.394213,23.244259 19.5,22.989688 19.5,22.724609 v -6 C 19.5,16.459531 19.394433,16.20498 19.207031,16.017578 19.019629,15.830176 18.765078,15.724609 18.5,15.724609 Z m 0.5,1 h 6 v 6 h -6 z"
       id="path4" />
    <path
       style="color:#000000;fill:currentColor;stroke-linecap:round;stroke-linejoin:round;-inkscape-stroke:none"
       d="m 8.5,8.7246094 c -0.265003,0 -0.5196144,0.1055319 -0.7070313,0.2929687 C 7.6055665,9.2049803 7.5,9.4595813 7.5,9.7246094 v 2.9609376 3.539062 a 0.50005,0.50005 0 0 0 0.5,0.5 h 7 a 0.50005,0.50005 0 0 0 0.5,-0.5 V 9.7246094 C 15.5,9.459531 15.394254,9.2049406 15.207031,9.0175781 15.019598,8.8302043 14.765003,8.7246094 14.5,8.7246094 Z m 0,1 h 6 v 5.9999996 h -6 v -3.039062 z"
       id="path5" />
    <path
       style="color:#000000;fill:currentColor;stroke-linecap:round;stroke-linejoin:round;-inkscape-stroke:none"
       d="m 10,8.7246094 a 0.50005,0.50005 0 0 0 -0.5,0.5 v 2.4999996 c 0,0.265079 0.1057871,0.51965 0.2929688,0.707032 0.1873814,0.187181 0.4419532,0.292968 0.7070312,0.292968 h 2 c 0.265078,0 0.51965,-0.105787 0.707031,-0.292968 C 13.394213,12.244259 13.5,11.989688 13.5,11.724609 V 9.2246094 a 0.50005,0.50005 0 0 0 -0.5,-0.5 z m 0.5,1 h 2 v 1.9999996 h -2 z"
       id="path6" />
    <path
       style="color:#000000;fill:currentColor;stroke-linecap:round;stroke-linejoin:round;-inkscape-stroke:none"
       d="m 7,15.724609 a 0.50005,0.50005 0 0 0 -0.5,0.5 v 2.5 c 0,0.265028 0.1056075,0.51961 0.2929687,0.707032 C 6.9803333,19.618885 7.2349216,19.724609 7.5,19.724609 h 2 c 0.2650784,0 0.519667,-0.105724 0.707031,-0.292968 C 10.394392,19.244219 10.5,18.989637 10.5,18.724609 v -2.5 a 0.50005,0.50005 0 0 0 -0.5,-0.5 z m 0.5,1 h 2 v 2 h -2 z"
       id="path7" />
    <path
       style="color:#000000;fill:currentColor;stroke-linecap:round;stroke-linejoin:round;-inkscape-stroke:none"
       d="m 14,15.724609 a 0.50005,0.50005 0 0 0 -0.5,0.5 v 2.5 c 0,0.265079 0.105787,0.51965 0.292969,0.707032 0.187381,0.187181 0.441953,0.292968 0.707031,0.292968 h 2 c 0.265078,0 0.51965,-0.105787 0.707031,-0.292968 C 17.394213,19.244259 17.5,18.989688 17.5,18.724609 v -2.5 a 0.50005,0.50005 0 0 0 -0.5,-0.5 z m 0.5,1 h 2 v 2 h -2 z"
       id="path8" />
    <path
       style="color:#000000;fill:currentColor;stroke-linecap:round;stroke-linejoin:round;-inkscape-stroke:none"
       d="M 11.542969,0.34570313 1.2070312,3.6386719 C 1.0006719,3.7016811 0.8209417,3.8298104 0.69335937,4.0039062 0.56575858,4.17798 0.49793671,4.3896828 0.5,4.6054687 V 5.7246094 C 0.5,5.9896325 0.60556403,6.2442359 0.79296875,6.4316406 0.98035631,6.6190082 1.2349719,6.7246094 1.5,6.7246094 h 21 c 0.265028,0 0.519592,-0.1054091 0.707031,-0.2929688 C 23.394474,6.2442574 23.5,5.9896878 23.5,5.7246094 V 4.5859375 C 23.5002,4.3761837 23.435371,4.1725916 23.3125,4.0019531 23.189742,3.8314711 23.015731,3.7030936 22.816406,3.6367188 a 0.50005,0.50005 0 0 0 -0.0078,-0.00195 L 12.451172,0.34570313 c -0.295682,-0.0940285 -0.612522,-0.0940285 -0.908203,0 z m 0.302734,0.95312497 c 0.09852,-0.031329 0.204216,-0.031329 0.302735,0 L 22.5,4.5859375 v 1.1386719 h -21 v -1.125 a 0.50005,0.50005 0 0 0 0,-0.00391 0.50005,0.50005 0 0 0 0.00586,-0.00195 z"
       id="path9" />
  </g>
  <defs
     id="defs9">
    <clipPath
       id="clip0_1_113707">
      <rect
         width="24"
         height="24"
         fill="white"
         id="rect9" />
    </clipPath>
  </defs>
</svg>
