<svg width="24" height="24" viewBox="0 0 24 24" fill="none" xmlns="http://www.w3.org/2000/svg">
<path fill-rule="evenodd" clip-rule="evenodd" d="M1.31802 1.31802C2.16193 0.474106 3.30653 0 4.5 0H14.5C15.6935 0 16.8381 0.474106 17.682 1.31802C18.5259 2.16193 19 3.30653 19 4.5V9.5C19 10.6935 18.5259 11.8381 17.682 12.682C16.8381 13.5259 15.6935 14 14.5 14H10.1901L5.83218 17.8737C5.68502 18.0045 5.47479 18.0368 5.29517 17.9561C5.11556 17.8755 5 17.6969 5 17.5V14H4.5C3.30653 14 2.16193 13.5259 1.31802 12.682C0.474106 11.8381 0 10.6935 0 9.5V4.5C0 3.30653 0.474106 2.16193 1.31802 1.31802ZM4.5 1C3.57174 1 2.6815 1.36875 2.02513 2.02513C1.36875 2.6815 1 3.57174 1 4.5V9.5C1 10.4283 1.36875 11.3185 2.02513 11.9749C2.6815 12.6313 3.57174 13 4.5 13H5.5C5.77614 13 6 13.2239 6 13.5V16.3866L9.66782 13.1263C9.75934 13.0449 9.87754 13 10 13H14.5C15.4283 13 16.3185 12.6313 16.9749 11.9749C17.6313 11.3185 18 10.4283 18 9.5V4.5C18 3.57174 17.6313 2.6815 16.9749 2.02513C16.3185 1.36875 15.4283 1 14.5 1H4.5ZM20 12.5C20 12.2239 20.2239 12 20.5 12H21C21.7956 12 22.5587 12.3161 23.1213 12.8787C23.6839 13.4413 24 14.2044 24 15V18C24 18.394 23.9224 18.7841 23.7716 19.1481C23.6209 19.512 23.3999 19.8427 23.1213 20.1213C22.8427 20.3999 22.512 20.6209 22.1481 20.7716C21.7841 20.9224 21.394 21 21 21H20V23.5C20 23.7022 19.8782 23.8846 19.6913 23.9619C19.5045 24.0393 19.2894 23.9966 19.1464 23.8536L16.2929 21H14C13.606 21 13.2159 20.9224 12.8519 20.7716C12.488 20.6209 12.1573 20.3999 11.8787 20.1213C11.6001 19.8427 11.3791 19.512 11.2284 19.1481C11.0776 18.7841 11 18.394 11 18V16.5C11 16.2239 11.2239 16 11.5 16C11.7761 16 12 16.2239 12 16.5V18C12 18.2626 12.0517 18.5227 12.1522 18.7654C12.2528 19.008 12.4001 19.2285 12.5858 19.4142C12.7715 19.5999 12.992 19.7472 13.2346 19.8478C13.4773 19.9483 13.7374 20 14 20H16.5C16.6326 20 16.7598 20.0527 16.8536 20.1464L19 22.2929V20.5C19 20.2239 19.2239 20 19.5 20H21C21.2626 20 21.5227 19.9483 21.7654 19.8478C22.008 19.7472 22.2285 19.5999 22.4142 19.4142C22.5999 19.2285 22.7472 19.008 22.8478 18.7654C22.9483 18.5227 23 18.2626 23 18V15C23 14.4696 22.7893 13.9609 22.4142 13.5858C22.0391 13.2107 21.5304 13 21 13H20.5C20.2239 13 20 12.7761 20 12.5Z" fill="currentColor"/>
</svg>
