<svg width="24" height="24" viewBox="0 0 24 24" fill="none" xmlns="http://www.w3.org/2000/svg">
<g clip-path="url(#clip0_1_113693)">
<g clip-path="url(#clip1_1_113693)">
<path d="M11 16.999C10.8867 16.9988 10.7768 16.9604 10.688 16.89L5.68801 12.89C5.59251 12.8047 5.53331 12.6861 5.52255 12.5585C5.5118 12.4309 5.55031 12.304 5.63018 12.2039C5.71005 12.1038 5.82521 12.0381 5.95201 12.0203C6.07881 12.0024 6.20763 12.0338 6.31201 12.108L10.906 15.783L17.598 6.702C17.637 6.64914 17.686 6.60449 17.7423 6.57058C17.7986 6.53667 17.861 6.51418 17.9259 6.50438C17.9909 6.49458 18.0571 6.49768 18.1209 6.51348C18.1846 6.52929 18.2447 6.5575 18.2975 6.5965C18.3504 6.6355 18.395 6.68453 18.4289 6.7408C18.4628 6.79706 18.4853 6.85945 18.4951 6.9244C18.5049 6.98935 18.5018 7.0556 18.486 7.11936C18.4702 7.18312 18.442 7.24314 18.403 7.296L11.403 16.796C11.3565 16.8591 11.2958 16.9104 11.2258 16.9457C11.1557 16.9809 11.0784 16.9992 11 16.999Z" fill="currentColor"/>
<path d="M12 23.999C5.383 23.999 0 18.616 0 11.999C0 5.382 5.383 -0.0010004 12 -0.0010004C18.617 -0.0010004 24 5.382 24 11.999C24 18.616 18.617 23.999 12 23.999ZM12 0.999C5.935 0.999 1 5.934 1 11.999C1 18.064 5.935 22.999 12 22.999C18.065 22.999 23 18.064 23 11.999C23 5.934 18.065 0.999 12 0.999Z" fill="currentColor"/>
</g>
</g>
<defs>
<clipPath id="clip0_1_113693">
<rect width="24" height="24" fill="white"/>
</clipPath>
<clipPath id="clip1_1_113693">
<rect width="24" height="24" fill="white"/>
</clipPath>
</defs>
</svg>
