<svg width="24" height="24" viewBox="0 0 24 24" fill="none" xmlns="http://www.w3.org/2000/svg">
<g clip-path="url(#clip0_1_113718)">
<path d="M5.00195 19.5C4.45095 19.5 4.00195 19.052 4.00195 18.5V13.5C4.00195 12.948 4.45095 12.5 5.00195 12.5H12.002C12.2672 12.5 12.5215 12.6054 12.7091 12.7929C12.8966 12.9804 13.002 13.2348 13.002 13.5V18.5C13.002 18.7652 12.8966 19.0196 12.7091 19.2071C12.5215 19.3946 12.2672 19.5 12.002 19.5H5.00195ZM5.00195 18.5H12.002V13.5H5.00195V18.5Z" fill="currentColor"/>
<path d="M3.50196 22.5C2.67496 22.5 2.00196 21.827 2.00196 21V10.17C1.3884 9.89931 0.869971 9.45106 0.513503 8.88303C0.157034 8.31499 -0.0211346 7.65322 0.00196166 6.983V6C0.00267241 5.92382 0.0200813 5.84872 0.0529617 5.78L1.77896 2.329C1.90259 2.07923 2.09379 1.86915 2.33084 1.72261C2.56788 1.57607 2.84128 1.49894 3.11996 1.5H20.884C21.1628 1.49903 21.4362 1.57631 21.6733 1.72303C21.9103 1.86976 22.1015 2.08005 22.225 2.33L23.949 5.777C23.955 5.788 23.96 5.803 23.965 5.817L23.971 5.833C23.9912 5.88636 24.0017 5.94292 24.002 6V6.996C24.022 7.66407 23.8424 8.32295 23.4861 8.88848C23.1299 9.45401 22.6132 9.90052 22.002 10.171V21C22.002 21.827 21.329 22.5 20.502 22.5H3.50196ZM20.502 21.5C20.6346 21.5 20.7617 21.4473 20.8555 21.3535C20.9493 21.2598 21.002 21.1326 21.002 21V10.441C20.919 10.451 20.837 10.457 20.759 10.46L20.645 10.462C19.8998 10.4634 19.1754 10.2168 18.586 9.76099C17.9025 10.6229 16.9304 11.2086 15.8489 11.4099C14.7675 11.6111 13.6497 11.4144 12.702 10.856C12.4527 10.7089 12.2183 10.5381 12.002 10.346C11.1707 11.0848 10.0961 11.4911 8.98396 11.487C8.29775 11.4876 7.62033 11.3326 7.00266 11.0337C6.385 10.7347 5.84318 10.2996 5.41796 9.76099C4.73074 10.2911 3.86459 10.5338 3.00196 10.438V21C3.00196 21.1326 3.05464 21.2598 3.14841 21.3535C3.24218 21.4473 3.36935 21.5 3.50196 21.5H14.002V13.5C14.002 13.2348 14.1073 12.9804 14.2949 12.7929C14.4824 12.6054 14.7367 12.5 15.002 12.5H19.002C19.2672 12.5 19.5215 12.6054 19.7091 12.7929C19.8966 12.9804 20.002 13.2348 20.002 13.5V21.5H20.502ZM19.002 21.5V13.5H15.002V21.5H19.002ZM12.502 9.43799C12.8302 9.76923 13.2206 10.0323 13.6509 10.2122C14.0811 10.392 14.5426 10.4851 15.009 10.486C15.6052 10.4887 16.1923 10.3404 16.7157 10.0548C17.2391 9.76925 17.6816 9.35579 18.002 8.85299V6.5H12.502V9.43799ZM6.00196 8.85499C6.32141 9.35502 6.76172 9.76649 7.28221 10.0514C7.80271 10.3363 8.3866 10.4854 8.97996 10.485C9.92496 10.485 10.839 10.104 11.501 9.437V6.5H6.00196V8.85499ZM19.002 8.795C19.445 9.226 20.022 9.462 20.637 9.462C20.666 9.462 20.694 9.462 20.723 9.46C21.3489 9.43757 21.9404 9.16776 22.3676 8.70977C22.7949 8.25177 23.023 7.64299 23.002 7.017V6.5H19.002V8.795ZM1.00196 7C0.988324 7.34939 1.05207 7.69749 1.18864 8.01938C1.32521 8.34127 1.53123 8.629 1.79196 8.862C2.22396 9.246 2.77996 9.458 3.35796 9.458C3.97075 9.4572 4.55962 9.22008 5.00196 8.79599V6.5H1.00196V7ZM22.693 5.5L21.331 2.777C21.2898 2.69364 21.2261 2.6235 21.1471 2.57453C21.0681 2.52557 20.9769 2.49974 20.884 2.5H18.143L18.893 5.5H22.693ZM17.862 5.5L17.112 2.5H12.502V5.5H17.862ZM11.502 5.5V2.5H6.89196L6.14196 5.5H11.502ZM5.11196 5.5L5.86196 2.5H3.11996C3.02711 2.49965 2.93602 2.52533 2.85701 2.57411C2.77801 2.62289 2.71425 2.69283 2.67296 2.776L1.31096 5.5H5.11196Z" fill="currentColor"/>
</g>
<defs>
<clipPath id="clip0_1_113718">
<rect width="24" height="24" fill="white"/>
</clipPath>
</defs>
</svg>
