<svg width="24" height="24" viewBox="0 0 24 24" fill="none" xmlns="http://www.w3.org/2000/svg">
<g clip-path="url(#clip0_1_113690)">
<path d="M23.5 23.999C23.4343 23.9991 23.3692 23.9863 23.3085 23.9612C23.2477 23.9362 23.1925 23.8994 23.146 23.853L12 12.706L0.854003 23.853C0.807581 23.8995 0.752457 23.9364 0.691778 23.9616C0.6311 23.9867 0.566055 23.9997 0.500357 23.9998C0.43466 23.9998 0.369596 23.9869 0.308882 23.9618C0.248168 23.9367 0.192991 23.8999 0.146504 23.8535C0.100016 23.8071 0.0631264 23.752 0.0379422 23.6913C0.0127579 23.6306 -0.000228104 23.5655 -0.000274533 23.4999C-0.000320963 23.4342 0.0125731 23.3691 0.0376716 23.3084C0.06277 23.2477 0.0995812 23.1925 0.146004 23.146L11.292 12L0.147004 0.853C0.0531169 0.759246 0.000319235 0.632036 0.000225467 0.499354C0.000131699 0.366672 0.0527495 0.239387 0.146504 0.1455C0.240258 0.0516136 0.367468 -0.00118403 0.50015 -0.0012778C0.632832 -0.00137157 0.760117 0.0512462 0.854003 0.145L12 11.292L23.147 0.146C23.1934 0.0995123 23.2486 0.0626231 23.3092 0.0374389C23.3699 0.0122547 23.435 -0.000731386 23.5007 -0.000777817C23.5663 -0.000824248 23.6314 0.0120698 23.6921 0.0371683C23.7528 0.0622667 23.808 0.0990779 23.8545 0.1455C23.901 0.191923 23.9379 0.247047 23.9631 0.307725C23.9883 0.368404 24.0012 0.433449 24.0013 0.499147C24.0013 0.564844 23.9884 0.629907 23.9633 0.690622C23.9382 0.751336 23.9014 0.806512 23.855 0.853L12.707 11.999L23.853 23.145C23.923 23.2149 23.9708 23.3039 23.9902 23.401C24.0096 23.498 23.9998 23.5986 23.962 23.69C23.9242 23.7814 23.8601 23.8596 23.7779 23.9146C23.6956 23.9696 23.5989 23.999 23.5 23.999Z" fill="currentColor"/>
</g>
<defs>
<clipPath id="clip0_1_113690">
<rect width="24" height="24" fill="white"/>
</clipPath>
</defs>
</svg>
