<svg width="24" height="24" viewBox="0 0 24 24" fill="none" xmlns="http://www.w3.org/2000/svg">
<g clip-path="url(#clip0_1_113932)">
<path d="M1.5 24C0.673 24 0 23.327 0 22.5V17.5C0 16.673 0.673 16 1.5 16H9.5C10.327 16 11 16.673 11 17.5V22.5C11 23.327 10.327 24 9.5 24H1.5ZM1.5 17C1.36739 17 1.24021 17.0527 1.14645 17.1464C1.05268 17.2402 1 17.3674 1 17.5V22.5C1 22.6326 1.05268 22.7598 1.14645 22.8536C1.24021 22.9473 1.36739 23 1.5 23H9.5C9.63261 23 9.75979 22.9473 9.85355 22.8536C9.94732 22.7598 10 22.6326 10 22.5V17.5C10 17.3674 9.94732 17.2402 9.85355 17.1464C9.75979 17.0527 9.63261 17 9.5 17H1.5Z" fill="currentColor"/>
<path d="M14.5 24C13.673 24 13 23.327 13 22.5V11.5C13 10.673 13.673 10 14.5 10H22.5C23.327 10 24 10.673 24 11.5V22.5C24 23.327 23.327 24 22.5 24H14.5ZM14.5 11C14.3674 11 14.2402 11.0527 14.1464 11.1464C14.0527 11.2402 14 11.3674 14 11.5V22.5C14 22.6326 14.0527 22.7598 14.1464 22.8536C14.2402 22.9473 14.3674 23 14.5 23H22.5C22.6326 23 22.7598 22.9473 22.8536 22.8536C22.9473 22.7598 23 22.6326 23 22.5V11.5C23 11.3674 22.9473 11.2402 22.8536 11.1464C22.7598 11.0527 22.6326 11 22.5 11H14.5Z" fill="currentColor"/>
<path d="M14.5 8C13.673 8 13 7.327 13 6.5V1.5C13 0.673 13.673 0 14.5 0H22.5C23.327 0 24 0.673 24 1.5V6.5C24 7.327 23.327 8 22.5 8H14.5ZM14.5 1C14.3674 1 14.2402 1.05268 14.1464 1.14645C14.0527 1.24021 14 1.36739 14 1.5V6.5C14 6.63261 14.0527 6.75979 14.1464 6.85355C14.2402 6.94732 14.3674 7 14.5 7H22.5C22.6326 7 22.7598 6.94732 22.8536 6.85355C22.9473 6.75979 23 6.63261 23 6.5V1.5C23 1.36739 22.9473 1.24021 22.8536 1.14645C22.7598 1.05268 22.6326 1 22.5 1H14.5Z" fill="currentColor"/>
<path d="M1.5 14C0.673 14 0 13.327 0 12.5V1.5C0 0.673 0.673 0 1.5 0H9.5C10.327 0 11 0.673 11 1.5V12.5C11 13.327 10.327 14 9.5 14H1.5ZM1.5 1C1.36739 1 1.24021 1.05268 1.14645 1.14645C1.05268 1.24021 1 1.36739 1 1.5V12.5C1 12.6326 1.05268 12.7598 1.14645 12.8536C1.24021 12.9473 1.36739 13 1.5 13H9.5C9.63261 13 9.75979 12.9473 9.85355 12.8536C9.94732 12.7598 10 12.6326 10 12.5V1.5C10 1.36739 9.94732 1.24021 9.85355 1.14645C9.75979 1.05268 9.63261 1 9.5 1H1.5Z" fill="currentColor"/>
</g>
<defs>
<clipPath id="clip0_1_113932">
<rect width="24" height="24" fill="white"/>
</clipPath>
</defs>
</svg>
