<svg width="24" height="24" viewBox="0 0 24 24" fill="none" xmlns="http://www.w3.org/2000/svg">
<path d="M5 22.504C4.86739 22.504 4.74021 22.4513 4.64645 22.3576C4.55268 22.2638 4.5 22.1366 4.5 22.004C4.5 21.8714 4.55268 21.7442 4.64645 21.6504C4.74021 21.5567 4.86739 21.504 5 21.504H11V20.504H2C0.897 20.504 0 19.607 0 18.504V3.504C0 2.401 0.897 1.504 2 1.504H22C23.103 1.504 24 2.401 24 3.504V18.504C24 19.607 23.103 20.504 22 20.504H12V21.504H19C19.1326 21.504 19.2598 21.5567 19.3536 21.6504C19.4473 21.7442 19.5 21.8714 19.5 22.004C19.5 22.1366 19.4473 22.2638 19.3536 22.3576C19.2598 22.4513 19.1326 22.504 19 22.504H5ZM1 18.504C1 19.056 1.449 19.504 2 19.504H22C22.2652 19.504 22.5196 19.3986 22.7071 19.2111C22.8946 19.0236 23 18.7692 23 18.504V16.504H1V18.504ZM23 15.504V3.504C23 2.953 22.552 2.504 22 2.504H2C1.449 2.504 1 2.953 1 3.504V15.504H23Z" fill="currentColor"/>
<path d="M5 14.504C4.86739 14.504 4.74021 14.4513 4.64645 14.3576C4.55268 14.2638 4.5 14.1366 4.5 14.004C4.5 13.8714 4.55268 13.7442 4.64645 13.6504C4.74021 13.5567 4.86739 13.504 5 13.504V11.5C5 10.949 5.449 10.5 6 10.5H8C8.551 10.5 9 10.949 9 11.5V13.504H10V8.5C10 7.949 10.449 7.5 11 7.5H13C13.552 7.5 14 7.949 14 8.5V13.504H15V5.5C15 4.949 15.448 4.5 16 4.5H18C18.552 4.5 19 4.949 19 5.5V13.504C19.1326 13.504 19.2598 13.5567 19.3536 13.6504C19.4473 13.7442 19.5 13.8714 19.5 14.004C19.5 14.1366 19.4473 14.2638 19.3536 14.3576C19.2598 14.4513 19.1326 14.504 19 14.504H5ZM18 13.5V5.5H16V13.5H18ZM13 13.5V8.5H11V13.5H13ZM8 13.5V11.5H6V13.5H8Z" fill="currentColor"/>
</svg>
