<svg width="24" height="24" viewBox="0 0 24 24" fill="none" xmlns="http://www.w3.org/2000/svg">
<path d="M8 21C6.346 21 5 19.654 5 18C5 16.346 6.346 15 8 15C9.654 15 11 16.346 11 18C11 19.654 9.654 21 8 21ZM8 16C6.897 16 6 16.897 6 18C6 19.103 6.897 20 8 20C9.103 20 10 19.103 10 18C10 16.897 9.103 16 8 16Z" fill="currentColor"/>
<path d="M19 21C17.346 21 16 19.654 16 18C16 16.346 17.346 15 19 15C20.654 15 22 16.346 22 18C22 19.654 20.654 21 19 21ZM19 16C17.897 16 17 16.897 17 18C17 19.103 17.897 20 19 20C20.103 20 21 19.103 21 18C21 16.897 20.103 16 19 16Z" fill="currentColor"/>
<path d="M1.5 19C0.673 19 0 18.327 0 17.5V11.5C0.0065597 10.3089 0.482498 9.16841 1.32456 8.32597C2.16663 7.48353 3.3069 7.00709 4.498 7H8V4.5C8 3.673 8.673 3 9.5 3H22.5C23.327 3 24 3.673 24 4.5V17.5C24 17.6326 23.9473 17.7598 23.8536 17.8536C23.7598 17.9473 23.6326 18 23.5 18C23.3674 18 23.2402 17.9473 23.1464 17.8536C23.0527 17.7598 23 17.6326 23 17.5V4.5C23 4.36739 22.9473 4.24021 22.8536 4.14645C22.7598 4.05268 22.6326 4 22.5 4H9.5C9.36739 4 9.24021 4.05268 9.14645 4.14645C9.05268 4.24021 9 4.36739 9 4.5V13.5C9 13.6326 8.94732 13.7598 8.85355 13.8536C8.75979 13.9473 8.63261 14 8.5 14C8.36739 14 8.24021 13.9473 8.14645 13.8536C8.05268 13.7598 8 13.6326 8 13.5V13H1V16H4C4.13261 16 4.25979 16.0527 4.35355 16.1464C4.44732 16.2402 4.5 16.3674 4.5 16.5C4.5 16.6326 4.44732 16.7598 4.35355 16.8536C4.25979 16.9473 4.13261 17 4 17H1V17.5C1 17.6326 1.05268 17.7598 1.14645 17.8536C1.24021 17.9473 1.36739 18 1.5 18H3.5C3.63261 18 3.75979 18.0527 3.85355 18.1464C3.94732 18.2402 4 18.3674 4 18.5C4 18.6326 3.94732 18.7598 3.85355 18.8536C3.75979 18.9473 3.63261 19 3.5 19H1.5ZM8 12V8H4.501C3.57392 8.00525 2.68633 8.37593 2.03087 9.03158C1.37541 9.68722 1.00499 10.5749 1 11.502V12H8Z" fill="currentColor"/>
<path d="M12.5 18C12.3674 18 12.2402 17.9473 12.1464 17.8536C12.0527 17.7598 12 17.6326 12 17.5C12 17.3674 12.0527 17.2402 12.1464 17.1464C12.2402 17.0527 12.3674 17 12.5 17H14.5C14.6326 17 14.7598 17.0527 14.8536 17.1464C14.9473 17.2402 15 17.3674 15 17.5C15 17.6326 14.9473 17.7598 14.8536 17.8536C14.7598 17.9473 14.6326 18 14.5 18H12.5Z" fill="currentColor"/>
</svg>
