<?xml version="1.0" encoding="UTF-8" standalone="no"?>
<svg
   width="24"
   height="24"
   viewBox="0 0 24 24"
   fill="none"
   version="1.1"
   id="svg13"
   sodipodi:docname="deliveries.svg"
   inkscape:version="1.3.2 (091e20e, 2023-11-25, custom)"
   xmlns:inkscape="http://www.inkscape.org/namespaces/inkscape"
   xmlns:sodipodi="http://sodipodi.sourceforge.net/DTD/sodipodi-0.dtd"
   xmlns="http://www.w3.org/2000/svg"
   xmlns:svg="http://www.w3.org/2000/svg">
  <defs
     id="defs13" />
  <sodipodi:namedview
     id="namedview13"
     pagecolor="#ffffff"
     bordercolor="#000000"
     borderopacity="0.25"
     inkscape:showpageshadow="2"
     inkscape:pageopacity="0.0"
     inkscape:pagecheckerboard="0"
     inkscape:deskcolor="#d1d1d1"
     inkscape:zoom="37.682899"
     inkscape:cx="11.172177"
     inkscape:cy="10.6547"
     inkscape:window-width="2880"
     inkscape:window-height="1514"
     inkscape:window-x="-11"
     inkscape:window-y="-11"
     inkscape:window-maximized="1"
     inkscape:current-layer="svg13" />
  <path
     style="color:#000000;fill:currentColor;stroke-linecap:round;stroke-linejoin:round;-inkscape-stroke:none"
     d="m 5,19.144531 a 0.5,0.5 0 0 0 -0.5,0.5 v 2.800781 c -5.07e-5,0.227256 0.064109,0.4493 0.1835937,0.642579 0.1195195,0.193362 0.2888775,0.349694 0.4921875,0.451171 0.4110045,0.2054 0.8648678,0.3125 1.3242188,0.3125 0.459351,0 0.9132143,-0.1071 1.3242187,-0.3125 C 8.0275288,23.437585 8.1968868,23.281253 8.3164063,23.087891 8.4358905,22.894612 8.5000507,22.672568 8.5,22.445312 v -2.800781 a 0.5,0.5 0 0 0 -0.5,-0.5 0.5,0.5 0 0 0 -0.5,0.5 v 2.800781 c 9.3e-6,0.04154 -0.011368,0.08187 -0.033203,0.117188 -0.021781,0.03524 -0.052734,0.06351 -0.089844,0.08203 -0.2721349,0.136 -0.5726448,0.207031 -0.8769531,0.207031 -0.3043083,0 -0.6048182,-0.07103 -0.8769531,-0.207031 -0.03711,-0.01852 -0.068063,-0.04679 -0.089844,-0.08203 C 5.5113675,22.527179 5.4999907,22.486857 5.5,22.445312 v -2.800781 a 0.5,0.5 0 0 0 -0.5,-0.5 z"
     id="path1" />
  <path
     style="color:#000000;fill:currentColor;stroke-linecap:round;stroke-linejoin:round;-inkscape-stroke:none"
     d="m 16,19.144531 a 0.5,0.5 0 0 0 -0.5,0.5 v 2.800781 c 0,0.227158 0.06229,0.449351 0.181641,0.642579 a 0.50005,0.50005 0 0 0 0.002,0 c 0.11953,0.193243 0.288893,0.349693 0.492187,0.451171 0.411021,0.20539 0.864892,0.3125 1.324219,0.3125 0.459327,0 0.913198,-0.10711 1.324219,-0.3125 0.203294,-0.101478 0.372657,-0.257928 0.492187,-0.451171 a 0.50005,0.50005 0 0 0 0.002,0 C 19.437711,22.894663 19.5,22.67247 19.5,22.445312 v -2.800781 a 0.5,0.5 0 0 0 -0.5,-0.5 0.5,0.5 0 0 0 -0.5,0.5 v 2.800781 c 0,0.04164 -0.01135,0.08182 -0.0332,0.117188 -0.02187,0.03536 -0.05274,0.06351 -0.08984,0.08203 -0.272179,0.13601 -0.572681,0.207032 -0.876953,0.207031 -0.304272,0 -0.604774,-0.07102 -0.876953,-0.207031 -0.03711,-0.01852 -0.06798,-0.04668 -0.08984,-0.08203 C 16.511355,22.527128 16.5,22.486955 16.5,22.445312 v -2.800781 a 0.5,0.5 0 0 0 -0.5,-0.5 z"
     id="path2" />
  <path
     style="color:#000000;fill:currentColor;stroke-linecap:round;stroke-linejoin:round;-inkscape-stroke:none"
     d="m 8,19.144531 a 0.50005,0.50005 0 0 0 -0.5,0.5 v 2 a 0.50005,0.50005 0 0 0 0.5,0.5 h 8 a 0.50005,0.50005 0 0 0 0.5,-0.5 v -2 a 0.50005,0.50005 0 0 0 -0.5,-0.5 z m 0.5,1 h 7 v 1 h -7 z"
     id="path3" />
  <path
     style="color:#000000;fill:currentColor;stroke-linecap:round;stroke-linejoin:round;-inkscape-stroke:none"
     d="m 12,12.144531 a 0.50005,0.50005 0 0 0 -0.5,0.5 v 5 a 0.50005,0.50005 0 0 0 0.5,0.5 h 6 a 0.50005,0.50005 0 0 0 0.5,-0.5 v -4.5 C 18.5,12.879453 18.394433,12.624902 18.207031,12.4375 18.019629,12.250098 17.765078,12.144531 17.5,12.144531 Z m 0.5,1 h 5 v 4 h -5 z"
     id="path4" />
  <path
     style="color:#000000;fill:currentColor;stroke-linecap:round;stroke-linejoin:round;-inkscape-stroke:none"
     d="m 6,2.1445313 a 0.5,0.5 0 0 0 -0.5,0.5 0.5,0.5 0 0 0 0.5,0.5 h 12 a 0.5,0.5 0 0 0 0.5,-0.5 0.5,0.5 0 0 0 -0.5,-0.5 z"
     id="path5" />
  <path
     style="color:#000000;fill:currentColor;stroke-linecap:round;stroke-linejoin:round;-inkscape-stroke:none"
     d="m 6,4.1445312 a 0.5,0.5 0 0 0 -0.5,0.5 0.5,0.5 0 0 0 0.5,0.5 h 12 a 0.5,0.5 0 0 0 0.5,-0.5 0.5,0.5 0 0 0 -0.5,-0.5 z"
     id="path6" />
  <path
     style="color:#000000;fill:currentColor;stroke-linecap:round;stroke-linejoin:round;-inkscape-stroke:none"
     d="m 5,0.14453125 c -0.3976329,0 -0.7793788,0.15828959 -1.0605469,0.43945312 C 3.6583,0.86514797 3.5,1.2468933 3.5,1.6445312 V 17.644531 a 0.5,0.5 0 0 0 0.5,0.5 0.5,0.5 0 0 0 0.5,-0.5 V 1.6445312 C 4.5,1.5117298 4.5525779,1.3849257 4.6464844,1.2910156 4.740396,1.1971055 4.8671935,1.1445312 5,1.1445312 h 14 c 0.132777,0 0.2597,0.05265 0.353516,0.1464844 C 19.447435,1.3849539 19.5,1.51178 19.5,1.6445312 V 17.644531 a 0.5,0.5 0 0 0 0.5,0.5 0.5,0.5 0 0 0 0.5,-0.5 V 1.6445312 C 20.5,1.246843 20.341627,0.86511972 20.060547,0.58398437 19.779363,0.30274533 19.397623,0.14453125 19,0.14453125 Z"
     id="path7" />
  <path
     style="color:#000000;fill:currentColor;stroke-linecap:round;stroke-linejoin:round;-inkscape-stroke:none"
     d="m 15,12.144531 a 0.5,0.5 0 0 0 -0.5,0.5 v 2 a 0.5,0.5 0 0 0 0.5,0.5 0.5,0.5 0 0 0 0.5,-0.5 v -2 a 0.5,0.5 0 0 0 -0.5,-0.5 z"
     id="path8" />
  <path
     style="color:#000000;fill:currentColor;stroke-linecap:round;stroke-linejoin:round;-inkscape-stroke:none"
     d="m 6.5,12.144531 c -0.2650784,0 -0.5196459,0.105504 -0.7070313,0.292969 C 5.605387,12.624942 5.5,12.879503 5.5,13.144531 v 4.5 a 0.50005,0.50005 0 0 0 0.5,0.5 h 6 a 0.50005,0.50005 0 0 0 0.5,-0.5 v -5 a 0.50005,0.50005 0 0 0 -0.5,-0.5 z m 0,1 h 5 v 4 h -5 z"
     id="path9" />
  <path
     style="color:#000000;fill:currentColor;stroke-linecap:round;stroke-linejoin:round;-inkscape-stroke:none"
     d="m 9,12.144531 a 0.5,0.5 0 0 0 -0.5,0.5 v 2 a 0.5,0.5 0 0 0 0.5,0.5 0.5,0.5 0 0 0 0.5,-0.5 v -2 a 0.5,0.5 0 0 0 -0.5,-0.5 z"
     id="path10" />
  <path
     style="color:#000000;fill:currentColor;stroke-linecap:round;stroke-linejoin:round;-inkscape-stroke:none"
     d="M 9.5,8.1445313 C 9.2349719,8.1445313 8.980373,8.2500758 8.7929688,8.4375 8.6055445,8.6249043 8.5,8.8795031 8.5,9.1445313 v 3.4999997 a 0.50005,0.50005 0 0 0 0.5,0.5 h 6 a 0.50005,0.50005 0 0 0 0.5,-0.5 V 9.1445313 C 15.5,8.8794529 15.394276,8.6248646 15.207031,8.4375 15.01961,8.2501388 14.765028,8.1445313 14.5,8.1445313 Z m 0,1 h 5 v 2.9999997 h -5 z"
     id="path11" />
  <path
     style="color:#000000;fill:currentColor;stroke-linecap:round;stroke-linejoin:round;-inkscape-stroke:none"
     d="m 12,8.1445313 a 0.5,0.5 0 0 0 -0.5,0.5 v 1.9999997 a 0.5,0.5 0 0 0 0.5,0.5 0.5,0.5 0 0 0 0.5,-0.5 V 8.6445313 a 0.5,0.5 0 0 0 -0.5,-0.5 z"
     id="path12" />
  <path
     style="color:#000000;fill:currentColor;stroke-linecap:round;stroke-linejoin:round;-inkscape-stroke:none"
     d="m 3.3085938,17.144531 c -0.1704894,0 -0.3372701,0.04368 -0.4863282,0.126953 -0.1490788,0.08309 -0.2737283,0.2027 -0.3632812,0.347657 -0.08951,0.145054 -0.1408819,0.312119 -0.1484375,0.482421 -0.00754,0.17031 0.027134,0.339784 0.1035156,0.492188 l 0.3632813,0.722656 c 0.1244692,0.249089 0.3159565,0.457011 0.5527343,0.603516 0.2367379,0.14634 0.5086241,0.224459 0.7871094,0.224609 H 19.882812 c 0.278506,-1.5e-4 0.550428,-0.07831 0.78711,-0.224609 0.236762,-0.146496 0.428251,-0.354399 0.552734,-0.603516 l 0.363281,-0.722656 c 0.07637,-0.152333 0.111122,-0.321649 0.103516,-0.492188 -0.0076,-0.170262 -0.05895,-0.337396 -0.148437,-0.482421 -0.08955,-0.14492 -0.214329,-0.264572 -0.363282,-0.347657 -0.148928,-0.08316 -0.315838,-0.126953 -0.486328,-0.126953 z m 0,1 H 20.691406 l -0.363281,0.722656 a 0.50005,0.50005 0 0 0 0,0.002 c -0.04152,0.08308 -0.104556,0.152267 -0.183594,0.201171 -0.07858,0.04857 -0.16949,0.07382 -0.261719,0.07422 H 4.1191406 4.1171875 C 4.0250156,19.144129 3.933968,19.118837 3.8554688,19.070312 3.7764469,19.021418 3.7134056,18.952252 3.671875,18.869141 a 0.50005,0.50005 0 0 0 0,-0.002 z"
     id="path13" />
</svg>
