<svg width="24" height="24" viewBox="0 0 24 24" fill="none" xmlns="http://www.w3.org/2000/svg">
<g clip-path="url(#clip0_1_113499)">
<path d="M2.5 20.454C1.83721 20.4532 1.20178 20.1895 0.733115 19.7209C0.264446 19.2522 0.000798618 18.6168 4.68885e-06 17.954V5.95398C-0.000635526 5.62473 0.0642916 5.29865 0.190999 4.99476C0.317706 4.69087 0.503657 4.41525 0.738005 4.18398C0.969156 3.95226 1.24381 3.76849 1.54618 3.64321C1.84856 3.51794 2.1727 3.45363 2.5 3.45398H21.5C21.8369 3.45343 22.1704 3.5214 22.4801 3.65378C22.7899 3.78615 23.0696 3.98015 23.302 4.22398C23.749 4.68498 24 5.30198 24 5.95398V17.954C24 19.332 22.878 20.454 21.5 20.454H2.5ZM1.176 5.25298C1.05979 5.46831 0.999291 5.70929 1 5.95398V17.954C1 18.781 1.673 19.454 2.5 19.454H21.5C22.327 19.454 23 18.781 23 17.954V5.95398C23 5.70598 22.94 5.46798 22.824 5.25298L12.316 13.842C12.2269 13.9149 12.1152 13.9548 12 13.9548C11.8848 13.9548 11.7732 13.9149 11.684 13.842L1.176 5.25298ZM12 12.808L22.078 4.57098C21.8951 4.49363 21.6986 4.45384 21.5 4.45398H2.5C2.3 4.45398 2.104 4.49398 1.922 4.57098L12 12.808Z" fill="currentColor"/>
</g>
<defs>
<clipPath id="clip0_1_113499">
<rect width="24" height="24" fill="white"/>
</clipPath>
</defs>
</svg>
