<svg width="24" height="24" viewBox="0 0 24 24" fill="none" xmlns="http://www.w3.org/2000/svg">
<path d="M17.9519 21.731C17.8598 21.7312 17.7695 21.7059 17.6909 21.6579C17.6124 21.6099 17.5487 21.541 17.5069 21.459L12.4519 11.583L7.3969 21.459C7.36735 21.5177 7.32646 21.5699 7.27659 21.6127C7.22672 21.6554 7.16887 21.6879 7.10638 21.7082C7.04389 21.7285 6.978 21.7361 6.91252 21.7308C6.84704 21.7254 6.78327 21.7071 6.7249 21.677C6.6069 21.6165 6.51769 21.5117 6.47682 21.3855C6.43596 21.2594 6.44677 21.1222 6.5069 21.004L11.8899 10.487L11.3349 9.40399L5.0659 13.149C4.8449 13.281 4.6349 13.348 4.4409 13.348C4.27489 13.3509 4.11302 13.2961 3.9829 13.193C3.8539 13.089 3.5759 12.777 3.7929 12.126L4.7999 9.10499L1.8259 8.46899C1.1749 8.32999 1.0329 7.96699 1.0059 7.76399C0.978901 7.55999 1.0219 7.17299 1.6139 6.86899L8.2859 3.44299L8.0569 2.99699C8.01724 2.92084 7.99795 2.83572 8.00089 2.74991C8.00384 2.6641 8.02892 2.58051 8.0737 2.50725C8.11848 2.43399 8.18144 2.37356 8.25647 2.33181C8.33149 2.29006 8.41604 2.26842 8.5019 2.26899C8.6909 2.26899 8.8609 2.37299 8.9469 2.54099L9.3919 3.40999C9.40052 3.42363 9.40788 3.43802 9.4139 3.45299L12.4519 9.38799L15.4899 3.45299C15.4927 3.44624 15.4957 3.43957 15.4989 3.43299L15.5119 3.40999L15.9559 2.54199C15.9858 2.48349 16.027 2.43146 16.0771 2.38886C16.1271 2.34627 16.1851 2.31395 16.2476 2.29376C16.3101 2.27356 16.3761 2.26588 16.4416 2.27115C16.5071 2.27643 16.5709 2.29455 16.6294 2.32449C16.6879 2.35443 16.7399 2.39561 16.7825 2.44566C16.8251 2.49571 16.8574 2.55366 16.8776 2.6162C16.8978 2.67874 16.9055 2.74464 16.9002 2.81015C16.895 2.87566 16.8768 2.93949 16.8469 2.99799L16.6179 3.44399L23.2899 6.86999C23.8809 7.17399 23.9249 7.56099 23.8979 7.76399C23.8709 7.96799 23.7289 8.32999 23.0779 8.46999L20.1029 9.10399L21.1099 12.125C21.3269 12.777 21.0489 13.089 20.9199 13.193C20.7898 13.2961 20.6279 13.3509 20.4619 13.348C20.2689 13.348 20.0579 13.281 19.8369 13.149L13.5669 9.40399L13.0129 10.487L18.3969 21.004C18.4354 21.0802 18.4538 21.165 18.4504 21.2503C18.4469 21.3357 18.4217 21.4187 18.3771 21.4916C18.3325 21.5644 18.27 21.6246 18.1956 21.6665C18.1212 21.7084 18.0373 21.7306 17.9519 21.731ZM5.5559 8.24199C5.62454 8.25696 5.68927 8.28617 5.74591 8.32773C5.80254 8.36929 5.84983 8.42227 5.8847 8.48326C5.91958 8.54424 5.94126 8.61186 5.94836 8.68175C5.95546 8.75164 5.94781 8.82225 5.9259 8.88899L4.8519 12.11L10.8789 8.50999L8.7409 4.33299L2.4289 7.57499L5.5559 8.24199ZM20.0519 12.11L18.9779 8.88899C18.9555 8.82226 18.9474 8.75155 18.9542 8.68149C18.961 8.61143 18.9826 8.54359 19.0174 8.48243C19.0522 8.42126 19.0996 8.36813 19.1564 8.32653C19.2132 8.28492 19.2781 8.25577 19.3469 8.24099L22.4749 7.57399L16.1619 4.33199L14.0249 8.50999L20.0519 12.11Z" fill="currentColor"/>
</svg>
