<svg width="24" height="24" viewBox="0 0 24 24" fill="none" xmlns="http://www.w3.org/2000/svg">
<g clip-path="url(#clip0_1_113617)">
<path d="M10.988 24C10.161 24 9.48799 23.327 9.48799 22.5V12.757L1.77899 2.399C1.61286 2.17588 1.51195 1.911 1.48752 1.6339C1.46309 1.3568 1.5161 1.07836 1.64063 0.829609C1.76516 0.580862 1.95632 0.371584 2.1928 0.225103C2.42929 0.0786215 2.70181 0.000691758 2.97999 0L20.999 0C21.2772 0.000691758 21.5497 0.0786215 21.7862 0.225103C22.0227 0.371584 22.2138 0.580862 22.3383 0.829609C22.4629 1.07836 22.5159 1.3568 22.4914 1.6339C22.467 1.911 22.3661 2.17588 22.2 2.399L14.488 12.755V21C14.488 21.469 14.264 21.918 13.888 22.2L11.888 23.7C11.63 23.894 11.31 24 10.988 24ZM2.97999 1C2.88713 1 2.79611 1.02586 2.71712 1.07467C2.63813 1.12349 2.5743 1.19334 2.53277 1.27639C2.49125 1.35945 2.47367 1.45242 2.48201 1.5449C2.49034 1.63738 2.52427 1.72572 2.57999 1.8L10.389 12.293C10.4533 12.3791 10.488 12.4836 10.488 12.591V22.5C10.488 22.5929 10.5138 22.6839 10.5627 22.7629C10.6115 22.8419 10.6813 22.9057 10.7644 22.9472C10.8474 22.9887 10.9404 23.0063 11.0329 22.998C11.1254 22.9896 11.2137 22.9557 11.288 22.9L13.288 21.4C13.3499 21.3532 13.4001 21.2928 13.4348 21.2234C13.4695 21.154 13.4877 21.0776 13.488 21V12.59C13.488 12.483 13.523 12.377 13.587 12.291L21.399 1.8C21.4543 1.72562 21.4879 1.63734 21.4961 1.545C21.5042 1.45265 21.4866 1.35986 21.4451 1.27694C21.4036 1.19403 21.34 1.12424 21.2612 1.07534C21.1825 1.02645 21.0917 1.00037 20.999 1H2.97999Z" fill="currentColor"/>
</g>
<defs>
<clipPath id="clip0_1_113617">
<rect width="24" height="24" fill="white"/>
</clipPath>
</defs>
</svg>
