<svg width="24" height="24" viewBox="0 0 24 24" fill="none" xmlns="http://www.w3.org/2000/svg">
<g clip-path="url(#clip0_1_113833)">
<path d="M17.997 10.513C17.3414 10.5146 16.7037 10.2994 16.183 9.90099C15.712 9.54327 15.3577 9.05394 15.1647 8.49487C14.9718 7.93579 14.9489 7.33206 15.099 6.75999L13.724 7.44699C13.6653 7.47654 13.6014 7.49421 13.5359 7.49899C13.4704 7.50377 13.4045 7.49557 13.3422 7.47485C13.2799 7.45413 13.2222 7.4213 13.1726 7.37825C13.123 7.33521 13.0823 7.28278 13.053 7.22399C12.9936 7.10544 12.9837 6.96814 13.0255 6.84231C13.0674 6.71647 13.1575 6.6124 13.276 6.55299L14.855 5.76399L13.922 3.58499C13.8699 3.46444 13.8423 3.33479 13.8405 3.20349C13.8388 3.07219 13.8631 2.94186 13.912 2.81999C13.9852 2.63379 14.113 2.47408 14.2786 2.36183C14.4443 2.24958 14.6399 2.19002 14.84 2.19099C14.91 2.19099 14.98 2.19799 15.049 2.21299L20.473 3.37499C20.6222 3.40735 20.762 3.47338 20.8818 3.56803C21.0016 3.66268 21.0982 3.78345 21.1642 3.92112C21.2302 4.05879 21.2638 4.20972 21.2626 4.36239C21.2613 4.51505 21.2252 4.66541 21.157 4.80199L20.571 5.97399C20.8792 6.48814 21.0263 7.08282 20.9933 7.68135C20.9603 8.27988 20.7488 8.85481 20.386 9.33199C20.107 9.70098 19.7458 9.99984 19.3311 10.2048C18.9164 10.4099 18.4596 10.5154 17.997 10.513ZM16.276 6.49999C16.0973 6.80373 16.002 7.14931 15.9998 7.50173C15.9975 7.85416 16.0885 8.20091 16.2634 8.50687C16.4383 8.81284 16.6909 9.06715 16.9958 9.24406C17.3006 9.42098 17.6467 9.5142 17.9991 9.51431C18.3516 9.51441 18.6978 9.42138 19.0027 9.24465C19.3076 9.06791 19.5604 8.81374 19.7355 8.50788C19.9105 8.20201 20.0017 7.85532 19.9997 7.50289C19.9977 7.15047 19.9026 6.80484 19.724 6.50099H16.276V6.49999ZM19.691 5.49999L20.264 4.35399L14.842 3.19199L15.83 5.49999H19.691Z" fill="currentColor"/>
<path d="M20.5 23.5C20.3674 23.5 20.2402 23.4473 20.1465 23.3535C20.0527 23.2598 20 23.1326 20 23V15.5C20 15.3674 20.0527 15.2402 20.1465 15.1464C20.2402 15.0527 20.3674 15 20.5 15C20.6326 15 20.7598 15.0527 20.8536 15.1464C20.9473 15.2402 21 15.3674 21 15.5V20.5C21 20.7652 21.1054 21.0196 21.2929 21.2071C21.4804 21.3946 21.7348 21.5 22 21.5C22.2652 21.5 22.5196 21.3946 22.7071 21.2071C22.8947 21.0196 23 20.7652 23 20.5V15C23 13.622 21.878 12.5 20.5 12.5H19.783L18.429 14.757C18.341 14.904 18.181 14.991 18 14.991C17.819 14.991 17.659 14.904 17.571 14.757L16.217 12.5H15.005C14.673 12.5 14.364 12.661 14.177 12.931L10.151 18.3C10.071 18.4054 9.95259 18.475 9.82155 18.4937C9.69051 18.5125 9.55738 18.4788 9.45101 18.4C9.39805 18.3609 9.35338 18.3117 9.31962 18.2552C9.28586 18.1987 9.26368 18.1361 9.25437 18.0709C9.24507 18.0058 9.24882 17.9394 9.26541 17.8757C9.282 17.8121 9.3111 17.7523 9.35101 17.7L13.366 12.346C13.5504 12.0831 13.7958 11.8688 14.081 11.7213C14.3662 11.5738 14.6829 11.4975 15.004 11.499H16.5C16.675 11.499 16.839 11.592 16.929 11.742L18 13.528L19.071 11.742C19.1156 11.668 19.1785 11.6068 19.2536 11.5642C19.3288 11.5216 19.4136 11.4992 19.5 11.499H20.5C22.43 11.499 24 13.069 24 14.999V20.499C23.9994 20.8498 23.9066 21.1943 23.7309 21.498C23.5552 21.8017 23.3028 22.0539 22.999 22.2293C22.6952 22.4047 22.3506 22.4972 21.9997 22.4975C21.6489 22.4978 21.3041 22.4059 21 22.231V23C21 23.1326 20.9473 23.2598 20.8536 23.3535C20.7598 23.4473 20.6326 23.5 20.5 23.5Z" fill="currentColor"/>
<path d="M14.5 23.5C14.3674 23.5 14.2402 23.4473 14.1464 23.3535C14.0527 23.2598 14 23.1326 14 23V18.295L13.592 18.81C13.5517 18.862 13.5014 18.9054 13.4441 18.9378C13.3868 18.9701 13.3236 18.9907 13.2582 18.9984C13.1928 19.006 13.1266 19.0005 13.0634 18.9822C13.0002 18.964 12.9412 18.9333 12.89 18.892C12.7859 18.8099 12.7187 18.6898 12.7032 18.5582C12.6876 18.4265 12.7249 18.2941 12.807 18.19L14.107 16.547C14.171 16.4648 14.2593 16.4049 14.3593 16.3758C14.4593 16.3467 14.5659 16.3499 14.664 16.385C14.7619 16.4192 14.8467 16.483 14.9067 16.5676C14.9668 16.6521 14.999 16.7533 14.999 16.857V23C14.9991 23.0656 14.9863 23.1306 14.9613 23.1912C14.9363 23.2519 14.8995 23.307 14.8532 23.3535C14.8068 23.3999 14.7518 23.4368 14.6912 23.4619C14.6306 23.487 14.5656 23.5 14.5 23.5Z" fill="currentColor"/>
<path d="M4.5 23.5C3.8372 23.4992 3.20178 23.2356 2.73311 22.7669C2.26444 22.2982 2.0008 21.6628 2 21V20.449C1.43514 20.3345 0.927324 20.028 0.562761 19.5816C0.198199 19.1352 -0.00063995 18.5764 1.54735e-06 18V12C1.54735e-06 11.8674 0.05268 11.7402 0.146448 11.6464C0.240216 11.5527 0.367393 11.5 0.500002 11.5C0.63261 11.5 0.759787 11.5527 0.853555 11.6464C0.947323 11.7402 1 11.8674 1 12V18C1 18.827 1.673 19.5 2.5 19.5H3V13C3 12.8674 3.05268 12.7402 3.14645 12.6464C3.24022 12.5527 3.36739 12.5 3.5 12.5C3.63261 12.5 3.75979 12.5527 3.85355 12.6464C3.94732 12.7402 4 12.8674 4 13V19.5H12C12.2652 19.5 12.5196 19.6054 12.7071 19.7929C12.8946 19.9804 13 20.2348 13 20.5V21C13 22.378 11.879 23.5 10.5 23.5H4.5ZM3 21C3 21.827 3.673 22.5 4.5 22.5H10.5C11.327 22.5 12 21.827 12 21V20.5H3V21Z" fill="currentColor"/>
<path d="M5.5 11.5C2.467 11.5 0 9.033 0 6C0 2.967 2.467 0.5 5.5 0.5C5.63261 0.5 5.75979 0.552678 5.85355 0.646447C5.94732 0.740215 6 0.867392 6 1C6 1.13261 5.94732 1.25979 5.85355 1.35355C5.75979 1.44732 5.63261 1.5 5.5 1.5C3.019 1.5 1 3.519 1 6C1 8.481 3.019 10.5 5.5 10.5C7.981 10.5 10 8.481 10 6C10 5.86739 10.0527 5.74021 10.1464 5.64645C10.2402 5.55268 10.3674 5.5 10.5 5.5C10.6326 5.5 10.7598 5.55268 10.8536 5.64645C10.9473 5.74021 11 5.86739 11 6C11 9.033 8.533 11.5 5.5 11.5Z" fill="currentColor"/>
<path d="M5.42001 7.31498C5.20384 7.31564 4.99342 7.24538 4.82101 7.11498L3.20001 5.89998C3.14704 5.86092 3.10237 5.81171 3.06861 5.75522C3.03485 5.69872 3.01267 5.63608 3.00337 5.57093C2.99406 5.50578 2.99781 5.43942 3.0144 5.37574C3.03099 5.31205 3.06009 5.25231 3.10001 5.19998C3.18021 5.09478 3.29857 5.02533 3.42953 5.00662C3.56049 4.98791 3.69355 5.02144 3.80001 5.09998L5.42001 6.31498L10.116 0.679978C10.158 0.629551 10.2096 0.587894 10.2677 0.557386C10.3258 0.526879 10.3894 0.508118 10.4548 0.502175C10.5201 0.496232 10.586 0.503223 10.6487 0.52275C10.7114 0.542276 10.7696 0.573955 10.82 0.615978C10.8704 0.658001 10.9121 0.709545 10.9426 0.767667C10.9731 0.825789 10.9919 0.889351 10.9978 0.954723C11.0038 1.0201 10.9968 1.086 10.9772 1.14867C10.9577 1.21134 10.926 1.26955 10.884 1.31998L6.18801 6.95498C6.09438 7.06781 5.977 7.15859 5.84424 7.22082C5.71148 7.28305 5.56662 7.3152 5.42001 7.31498Z" fill="currentColor"/>
</g>
<defs>
<clipPath id="clip0_1_113833">
<rect width="24" height="24" fill="white"/>
</clipPath>
</defs>
</svg>
