<svg width="24" height="24" viewBox="0 0 24 24" fill="none" xmlns="http://www.w3.org/2000/svg">
<path d="M1.24999 18.75C1.15342 18.7502 1.05886 18.7224 0.977729 18.67C0.896603 18.6176 0.832382 18.5429 0.792828 18.4548C0.753274 18.3667 0.740078 18.269 0.754835 18.1736C0.769593 18.0781 0.811672 17.989 0.875988 17.917L8.21199 9.66698C8.47726 9.37264 8.84566 9.19172 9.24076 9.16175C9.63586 9.13177 10.0273 9.25503 10.334 9.50598L14.802 13.229C14.9092 13.3155 15.0455 13.3576 15.1827 13.3466C15.32 13.3356 15.4479 13.2724 15.54 13.17L21.643 6.25098H15.813C15.6804 6.25098 15.5532 6.1983 15.4594 6.10453C15.3657 6.01076 15.313 5.88358 15.313 5.75098C15.313 5.61837 15.3657 5.49119 15.4594 5.39742C15.5532 5.30366 15.6804 5.25098 15.813 5.25098H22.751C22.774 5.25098 22.819 5.25798 22.841 5.26398C22.8704 5.26691 22.8993 5.27363 22.927 5.28398C22.9602 5.29734 22.9917 5.31446 23.021 5.33498C23.023 5.33498 23.053 5.34998 23.083 5.37698L23.109 5.40398C23.1283 5.42481 23.1454 5.4476 23.16 5.47198C23.172 5.48798 23.19 5.51198 23.206 5.54598C23.222 5.58098 23.228 5.61198 23.232 5.62898C23.2426 5.66923 23.2493 5.71042 23.252 5.75198V11.731C23.252 11.8636 23.1993 11.9908 23.1055 12.0845C23.0118 12.1783 22.8846 12.231 22.752 12.231C22.6194 12.231 22.4922 12.1783 22.3984 12.0845C22.3047 11.9908 22.252 11.8636 22.252 11.731V7.07298L16.289 13.834C16.1445 13.9956 15.9676 14.125 15.7698 14.2137C15.572 14.3025 15.3578 14.3485 15.141 14.349C14.788 14.349 14.442 14.225 14.167 14L9.69999 10.277C9.59242 10.19 9.45559 10.1477 9.31772 10.1587C9.17985 10.1697 9.05145 10.2331 8.95899 10.336L1.62599 18.582C1.57856 18.6347 1.52058 18.6769 1.45581 18.7059C1.39105 18.7348 1.32093 18.7498 1.24999 18.75Z" fill="currentColor"/>
</svg>
