<svg width="24" height="24" viewBox="0 0 24 24" fill="none" xmlns="http://www.w3.org/2000/svg">
<path d="M15.812 18.75C15.6794 18.75 15.5522 18.6973 15.4584 18.6035C15.3647 18.5098 15.312 18.3826 15.312 18.25C15.312 18.1174 15.3647 17.9902 15.4584 17.8964C15.5522 17.8027 15.6794 17.75 15.812 17.75H21.645L15.537 10.828C15.4445 10.7258 15.3162 10.6633 15.1788 10.6532C15.0414 10.6431 14.9054 10.6864 14.799 10.774L10.338 14.491C10.0617 14.7178 9.71546 14.8422 9.35798 14.843C8.92398 14.843 8.50698 14.658 8.21498 14.336L0.875978 6.08198C0.832379 6.03286 0.798881 5.97564 0.777396 5.91358C0.755911 5.85152 0.746861 5.78584 0.750761 5.72028C0.758637 5.58788 0.818787 5.46403 0.917978 5.37598C1.01717 5.28793 1.14728 5.24288 1.27968 5.25076C1.34523 5.25466 1.40938 5.27144 1.46846 5.30013C1.52753 5.32882 1.58038 5.36886 1.62398 5.41798L8.95998 13.668C9.05299 13.7705 9.18198 13.8331 9.32004 13.8428C9.4581 13.8525 9.59457 13.8085 9.70098 13.72L14.161 10.003C14.467 9.75073 14.8587 9.62654 15.2541 9.65636C15.6496 9.68617 16.0182 9.8677 16.283 10.163L22.249 16.925V12.271C22.249 12.1384 22.3017 12.0112 22.3954 11.9174C22.4892 11.8237 22.6164 11.771 22.749 11.771C22.8816 11.771 23.0088 11.8237 23.1025 11.9174C23.1963 12.0112 23.249 12.1384 23.249 12.271V18.25C23.249 18.265 23.248 18.28 23.245 18.295C23.242 18.319 23.237 18.337 23.235 18.347C23.2285 18.3855 23.2175 18.4231 23.202 18.459L23.187 18.487C23.1447 18.5662 23.0817 18.6325 23.0048 18.6788C22.9278 18.7251 22.8398 18.7497 22.75 18.75H15.812Z" fill="currentColor"/>
</svg>
