<svg width="24" height="24" viewBox="0 0 24 24" fill="none" xmlns="http://www.w3.org/2000/svg">
<g clip-path="url(#clip0_1_113929)">
<path d="M16 24C15.8674 24 15.7402 23.9473 15.6464 23.8536C15.5527 23.7598 15.5 23.6326 15.5 23.5V17.5C15.5 15.57 13.93 14 12 14C10.07 14 8.5 15.57 8.5 17.5V23.5C8.5 23.6326 8.44732 23.7598 8.35355 23.8536C8.25979 23.9473 8.13261 24 8 24H1.5C0.673 24 0 23.327 0 22.5V9.98701C0 9.52201 0.21 9.09201 0.576 8.80601L11.076 0.588012C11.339 0.382012 11.667 0.269012 12 0.269012C12.333 0.269012 12.661 0.382012 12.924 0.588012L23.424 8.80601C23.79 9.09201 24 9.52201 24 9.98601V22.5C24 23.327 23.327 24 22.5 24H16ZM22.5 23C22.6326 23 22.7598 22.9473 22.8536 22.8536C22.9473 22.7598 23 22.6326 23 22.5V9.98701C23.0002 9.91119 22.9829 9.83633 22.9497 9.76821C22.9164 9.70008 22.8679 9.64049 22.808 9.59401L12.308 1.37601C12.2205 1.30627 12.112 1.2682 12.0002 1.26802C11.8883 1.26784 11.7797 1.30555 11.692 1.37501L1.192 9.59301C1.13207 9.63969 1.0836 9.69946 1.05032 9.76775C1.01705 9.83605 0.999832 9.91105 1 9.98701V22.5C1 22.6326 1.05268 22.7598 1.14645 22.8536C1.24021 22.9473 1.36739 23 1.5 23H7.5V17.5C7.5 15.019 9.519 13 12 13C14.481 13 16.5 15.019 16.5 17.5V23H22.5Z" fill="currentColor"/>
</g>
<defs>
<clipPath id="clip0_1_113929">
<rect width="24" height="24" fill="white"/>
</clipPath>
</defs>
</svg>
