<svg width="24" height="25" viewBox="0 0 24 25" fill="none" xmlns="http://www.w3.org/2000/svg">
<g clip-path="url(#clip0_1_113775)">
<path d="M11.5 24.3535C5.159 24.3535 0 19.1945 0 12.8535C0 6.51252 5.159 1.35352 11.5 1.35352C17.841 1.35352 23 6.51252 23 12.8535C23 19.1945 17.841 24.3535 11.5 24.3535ZM11.5 2.35352C5.71 2.35352 1 7.06352 1 12.8535C1 18.6435 5.71 23.3535 11.5 23.3535C17.29 23.3535 22 18.6435 22 12.8535C22 7.06352 17.29 2.35352 11.5 2.35352Z" fill="currentColor"/>
<path d="M12.5 18.3575C11.673 18.3575 11 17.6845 11 16.8575V10.3575H9.5C9.36739 10.3575 9.24021 10.3049 9.14645 10.2111C9.05268 10.1173 9 9.99015 9 9.85754C9 9.72494 9.05268 9.59776 9.14645 9.50399C9.24021 9.41022 9.36739 9.35754 9.5 9.35754H11C11.551 9.35754 12 9.80654 12 10.3575V16.8575C12 16.9902 12.0527 17.1173 12.1464 17.2111C12.2402 17.3049 12.3674 17.3575 12.5 17.3575H14C14.1326 17.3575 14.2598 17.4102 14.3536 17.504C14.4473 17.5978 14.5 17.7249 14.5 17.8575C14.5 17.9902 14.4473 18.1173 14.3536 18.2111C14.2598 18.3049 14.1326 18.3575 14 18.3575H12.5Z" fill="currentColor"/>
<path d="M11.245 8.35254C11.0461 8.35254 10.8553 8.27352 10.7147 8.13287C10.574 7.99222 10.495 7.80145 10.495 7.60254C10.495 7.40363 10.574 7.21286 10.7147 7.07221C10.8553 6.93156 11.0461 6.85254 11.245 6.85254C11.4439 6.85254 11.6347 6.93156 11.7753 7.07221C11.916 7.21286 11.995 7.40363 11.995 7.60254C11.995 7.80145 11.916 7.99222 11.7753 8.13287C11.6347 8.27352 11.4439 8.35254 11.245 8.35254Z" fill="currentColor"/>
</g>
<defs>
<clipPath id="clip0_1_113775">
<rect width="24" height="24" fill="white" transform="translate(0 0.852539)"/>
</clipPath>
</defs>
</svg>
