<?xml version="1.0" encoding="UTF-8" standalone="no"?>
<svg
   width="24"
   height="25"
   viewBox="0 0 24 25"
   fill="none"
   version="1.1"
   id="svg3"
   sodipodi:docname="lat-long.svg"
   inkscape:version="1.3.2 (091e20e, 2023-11-25, custom)"
   xmlns:inkscape="http://www.inkscape.org/namespaces/inkscape"
   xmlns:sodipodi="http://sodipodi.sourceforge.net/DTD/sodipodi-0.dtd"
   xmlns="http://www.w3.org/2000/svg"
   xmlns:svg="http://www.w3.org/2000/svg">
  <sodipodi:namedview
     id="namedview3"
     pagecolor="#ffffff"
     bordercolor="#000000"
     borderopacity="0.25"
     inkscape:showpageshadow="2"
     inkscape:pageopacity="0.0"
     inkscape:pagecheckerboard="0"
     inkscape:deskcolor="#d1d1d1"
     inkscape:zoom="51.16"
     inkscape:cx="12.001564"
     inkscape:cy="12.5"
     inkscape:window-width="2880"
     inkscape:window-height="1514"
     inkscape:window-x="-11"
     inkscape:window-y="-11"
     inkscape:window-maximized="1"
     inkscape:current-layer="g3" />
  <g
     clip-path="url(#clip0_1_113770)"
     id="g3">
    <path
       style="color:#000000;fill:currentColor;stroke-linecap:round;stroke-linejoin:round;-inkscape-stroke:none"
       d="M 12.484375,6.3652344 C 11.687727,6.2741581 10.882797,6.410351 10.160156,6.7578125 9.4374972,7.1052885 8.8266916,7.6490169 8.4003906,8.328125 7.9740906,9.0072428 7.7488215,9.7938643 7.75,10.595703 a 0.5,0.5 0 0 0 0.5,0.498047 0.5,0.5 0 0 0 0.5,-0.5 C 8.7490985,9.9804302 8.9219676,9.378836 9.2480469,8.859375 9.5741251,8.3399243 10.039037,7.9239865 10.591797,7.6582031 c 0.552758,-0.2657779 1.169946,-0.3704448 1.779297,-0.3007812 0.60935,0.069663 1.18755,0.3116384 1.666015,0.6953125 0.478549,0.3836708 0.838664,0.8930086 1.039063,1.4726562 0.200414,0.5796764 0.233114,1.2054974 0.09375,1.8027344 -0.139291,0.597296 -0.444705,1.143091 -0.880859,1.574219 -0.43617,0.431142 -0.987049,0.728877 -1.585938,0.861328 l 0.01172,-0.002 c -0.339092,0.06689 -0.644021,0.248185 -0.865235,0.513672 C 11.628442,14.541 11.504488,14.875153 11.5,15.220703 a 0.50005,0.50005 0 0 0 0,0.0059 v 1.113281 a 0.5,0.5 0 0 0 0.5,0.5 0.5,0.5 0 0 0 0.5,-0.5 v -1.105469 c 0.0015,-0.116449 0.04275,-0.22897 0.117188,-0.318359 0.07458,-0.08951 0.176908,-0.151319 0.291015,-0.173828 a 0.50005,0.50005 0 0 0 0.01172,-0.002 c 0.78291,-0.173149 1.500083,-0.563296 2.070312,-1.126953 C 15.560479,13.04961 15.96047,12.33559 16.142578,11.554688 16.324814,10.773726 16.283469,9.9569809 16.021484,9.1992188 15.759483,8.4413877 15.28776,7.7730927 14.662109,7.2714844 14.036576,6.7698793 13.281024,6.4563107 12.484375,6.3652344 Z"
       id="path1" />
    <path
       style="color:#000000;fill:currentColor;stroke-linecap:round;stroke-linejoin:round;-inkscape-stroke:none"
       d="m 12,18.34375 c -0.19903,0 -0.390873,0.08033 -0.53125,0.220703 -0.140377,0.140377 -0.21875,0.33077 -0.21875,0.529297 0,0.14849 0.04505,0.295112 0.126953,0.417969 0.08209,0.122683 0.198312,0.218473 0.335938,0.27539 0.136655,0.05652 0.287502,0.07219 0.433593,0.04297 0.145765,-0.02885 0.280066,-0.100378 0.384766,-0.205078 0.1048,-0.1048 0.176123,-0.238481 0.205078,-0.384766 0.02865,-0.144757 0.01369,-0.294647 -0.04297,-0.43164 a 0.50005,0.50005 0 0 0 0,-0.002 C 12.636771,18.670532 12.540118,18.553438 12.416016,18.470703 12.292575,18.388109 12.14859,18.34375 12,18.34375 Z m -0.04883,0.505859 c 0.04909,-0.0098 0.09928,-0.005 0.144531,0.01367 0.04623,0.01912 0.08424,0.05131 0.111328,0.0918 h 0.002 c 0.02711,0.04066 0.04102,0.08918 0.04102,0.138672 0,0.06593 -0.02764,0.131158 -0.07422,0.177734 -0.04658,0.04658 -0.109351,0.07227 -0.175781,0.07227 -0.04979,0 -0.09743,-0.01342 -0.138672,-0.04102 -0.0419,-0.02793 -0.07321,-0.06662 -0.0918,-0.111328 v -0.002 c -0.01886,-0.04559 -0.02508,-0.09482 -0.01563,-0.142578 0.0098,-0.04929 0.03531,-0.09391 0.07031,-0.128906 0.0347,-0.0347 0.07819,-0.05871 0.126953,-0.06836 z"
       id="path2" />
    <path
       style="color:#000000;fill:currentColor;stroke-linecap:round;stroke-linejoin:round;-inkscape-stroke:none"
       d="m 12,0.85351563 c -6.6214834,0 -12,5.37852567 -12,12.00000037 0,6.621512 5.3785177,12 12,12 6.621511,0 12,-5.378489 12,-12 C 24,6.2320429 18.621512,0.85351563 12,0.85351563 Z m 0,0.99999997 c 6.081075,0 11,4.9189655 11,11.0000004 0,6.081076 -4.918924,11 -11,11 -6.081045,0 -11,-4.918926 -11,-11 C 1,6.7724826 5.9189561,1.8535156 12,1.8535156 Z"
       id="path3" />
  </g>
  <defs
     id="defs3">
    <clipPath
       id="clip0_1_113770">
      <rect
         width="24"
         height="24"
         fill="white"
         transform="translate(0 0.852539)"
         id="rect3" />
    </clipPath>
  </defs>
</svg>
