<svg width="24" height="24" viewBox="0 0 24 24" fill="none" xmlns="http://www.w3.org/2000/svg">
<path d="M2.25 24C1.65343 23.9995 1.08144 23.7622 0.659595 23.3404C0.237753 22.9186 0.000529583 22.3466 0 21.75L0 2.25C0.000529583 1.65343 0.237753 1.08144 0.659595 0.659595C1.08144 0.237752 1.65343 0.000529583 2.25 0H21.75C22.3466 0.000529583 22.9186 0.237752 23.3404 0.659595C23.7622 1.08144 23.9995 1.65343 24 2.25V21.75C23.9995 22.3466 23.7622 22.9186 23.3404 23.3404C22.9186 23.7622 22.3466 23.9995 21.75 24H2.25ZM2.25 1.5C2.05109 1.5 1.86032 1.57902 1.71967 1.71967C1.57902 1.86032 1.5 2.05109 1.5 2.25V21.75C1.5 22.164 1.836 22.5 2.25 22.5H21.75C21.9489 22.5 22.1397 22.421 22.2803 22.2803C22.421 22.1397 22.5 21.9489 22.5 21.75V2.25C22.5 2.05109 22.421 1.86032 22.2803 1.71967C22.1397 1.57902 21.9489 1.5 21.75 1.5H2.25Z" fill="currentColor"/>
<path d="M5.25 10.501C5.05109 10.501 4.86032 10.422 4.71967 10.2813C4.57902 10.1407 4.5 9.94989 4.5 9.75098V5.25098C4.5 5.05206 4.57902 4.8613 4.71967 4.72065C4.86032 4.57999 5.05109 4.50098 5.25 4.50098H9.75C9.94891 4.50098 10.1397 4.57999 10.2803 4.72065C10.421 4.8613 10.5 5.05206 10.5 5.25098V9.75098C10.5 9.94989 10.421 10.1407 10.2803 10.2813C10.1397 10.422 9.94891 10.501 9.75 10.501H5.25ZM9 9.00098V6.00098H6V9.00098H9Z" fill="currentColor"/>
<path d="M14.25 10.501C14.0511 10.501 13.8603 10.422 13.7197 10.2813C13.579 10.1407 13.5 9.94989 13.5 9.75098V5.25098C13.5 5.05206 13.579 4.8613 13.7197 4.72065C13.8603 4.57999 14.0511 4.50098 14.25 4.50098H18.75C18.9489 4.50098 19.1397 4.57999 19.2803 4.72065C19.421 4.8613 19.5 5.05206 19.5 5.25098V9.75098C19.5 9.94989 19.421 10.1407 19.2803 10.2813C19.1397 10.422 18.9489 10.501 18.75 10.501H14.25ZM18 9.00098V6.00098H15V9.00098H18Z" fill="currentColor"/>
<path d="M5.25 19.501C5.05109 19.501 4.86032 19.422 4.71967 19.2813C4.57902 19.1407 4.5 18.9499 4.5 18.751V14.251C4.5 14.0521 4.57902 13.8613 4.71967 13.7206C4.86032 13.58 5.05109 13.501 5.25 13.501H9.75C9.94891 13.501 10.1397 13.58 10.2803 13.7206C10.421 13.8613 10.5 14.0521 10.5 14.251V18.751C10.5 18.9499 10.421 19.1407 10.2803 19.2813C10.1397 19.422 9.94891 19.501 9.75 19.501H5.25ZM9 18.001V15.001H6V18.001H9Z" fill="currentColor"/>
<path d="M14.25 19.501C14.0511 19.501 13.8603 19.422 13.7197 19.2813C13.579 19.1407 13.5 18.9499 13.5 18.751V14.251C13.5 14.0521 13.579 13.8613 13.7197 13.7206C13.8603 13.58 14.0511 13.501 14.25 13.501H18.75C18.9489 13.501 19.1397 13.58 19.2803 13.7206C19.421 13.8613 19.5 14.0521 19.5 14.251V18.751C19.5 18.9499 19.421 19.1407 19.2803 19.2813C19.1397 19.422 18.9489 19.501 18.75 19.501H14.25ZM18 18.001V15.001H15V18.001H18Z" fill="currentColor"/>
</svg>
