<svg width="24" height="24" viewBox="0 0 24 24" fill="none" xmlns="http://www.w3.org/2000/svg">
<path d="M8.5 4.99799C8.36739 4.99799 8.24021 4.94531 8.14645 4.85154C8.05268 4.75777 8 4.63059 8 4.49799C8 4.36538 8.05268 4.2382 8.14645 4.14443C8.24021 4.05066 8.36739 3.99799 8.5 3.99799H23.5C23.6326 3.99799 23.7598 4.05066 23.8536 4.14443C23.9473 4.2382 24 4.36538 24 4.49799C24 4.63059 23.9473 4.75777 23.8536 4.85154C23.7598 4.94531 23.6326 4.99799 23.5 4.99799H8.5Z" fill="currentColor"/>
<path d="M8.5 12.998C8.36739 12.998 8.24021 12.9453 8.14645 12.8515C8.05268 12.7578 8 12.6306 8 12.498C8 12.3654 8.05268 12.2382 8.14645 12.1444C8.24021 12.0507 8.36739 11.998 8.5 11.998H23.5C23.6326 11.998 23.7598 12.0507 23.8536 12.1444C23.9473 12.2382 24 12.3654 24 12.498C24 12.6306 23.9473 12.7578 23.8536 12.8515C23.7598 12.9453 23.6326 12.998 23.5 12.998H8.5Z" fill="currentColor"/>
<path d="M8.5 20.998C8.36739 20.998 8.24021 20.9453 8.14645 20.8515C8.05268 20.7578 8 20.6306 8 20.498C8 20.3654 8.05268 20.2382 8.14645 20.1444C8.24021 20.0507 8.36739 19.998 8.5 19.998H23.5C23.6326 19.998 23.7598 20.0507 23.8536 20.1444C23.9473 20.2382 24 20.3654 24 20.498C24 20.6306 23.9473 20.7578 23.8536 20.8515C23.7598 20.9453 23.6326 20.998 23.5 20.998H8.5Z" fill="currentColor"/>
<path d="M1.5 6.99799C0.673 6.99799 0 6.32499 0 5.49799V3.49799C0 2.67099 0.673 1.99799 1.5 1.99799H3.5C4.327 1.99799 5 2.67099 5 3.49799V5.49799C5 6.32499 4.327 6.99799 3.5 6.99799H1.5ZM1.5 2.99799C1.36739 2.99799 1.24021 3.05066 1.14645 3.14443C1.05268 3.2382 1 3.36538 1 3.49799V5.49799C1 5.63059 1.05268 5.75777 1.14645 5.85154C1.24021 5.94531 1.36739 5.99799 1.5 5.99799H3.5C3.63261 5.99799 3.75979 5.94531 3.85355 5.85154C3.94732 5.75777 4 5.63059 4 5.49799V3.49799C4 3.36538 3.94732 3.2382 3.85355 3.14443C3.75979 3.05066 3.63261 2.99799 3.5 2.99799H1.5Z" fill="currentColor"/>
<path d="M1.5 14.998C0.673 14.998 0 14.325 0 13.498V11.498C0 10.671 0.673 9.99799 1.5 9.99799H3.5C4.327 9.99799 5 10.671 5 11.498V13.498C5 14.325 4.327 14.998 3.5 14.998H1.5ZM1.5 10.998C1.36739 10.998 1.24021 11.0507 1.14645 11.1444C1.05268 11.2382 1 11.3654 1 11.498V13.498C1 13.6306 1.05268 13.7578 1.14645 13.8515C1.24021 13.9453 1.36739 13.998 1.5 13.998H3.5C3.63261 13.998 3.75979 13.9453 3.85355 13.8515C3.94732 13.7578 4 13.6306 4 13.498V11.498C4 11.3654 3.94732 11.2382 3.85355 11.1444C3.75979 11.0507 3.63261 10.998 3.5 10.998H1.5Z" fill="currentColor"/>
<path d="M1.5 22.998C0.673 22.998 0 22.325 0 21.498V19.498C0 18.671 0.673 17.998 1.5 17.998H3.5C4.327 17.998 5 18.671 5 19.498V21.498C5 22.325 4.327 22.998 3.5 22.998H1.5ZM1.5 18.998C1.36739 18.998 1.24021 19.0507 1.14645 19.1444C1.05268 19.2382 1 19.3654 1 19.498V21.498C1 21.6306 1.05268 21.7578 1.14645 21.8515C1.24021 21.9453 1.36739 21.998 1.5 21.998H3.5C3.63261 21.998 3.75979 21.9453 3.85355 21.8515C3.94732 21.7578 4 21.6306 4 21.498V19.498C4 19.3654 3.94732 19.2382 3.85355 19.1444C3.75979 19.0507 3.63261 18.998 3.5 18.998H1.5Z" fill="currentColor"/>
</svg>
