<svg width="24" height="24" viewBox="0 0 24 24" fill="none" xmlns="http://www.w3.org/2000/svg">
<path d="M8.5 14C8.91421 14 9.25 13.6642 9.25 13.25C9.25 12.8358 8.91421 12.5 8.5 12.5C8.08579 12.5 7.75 12.8358 7.75 13.25C7.75 13.6642 8.08579 14 8.5 14Z" fill="currentColor"/>
<path d="M12 14C12.4142 14 12.75 13.6642 12.75 13.25C12.75 12.8358 12.4142 12.5 12 12.5C11.5858 12.5 11.25 12.8358 11.25 13.25C11.25 13.6642 11.5858 14 12 14Z" fill="currentColor"/>
<path d="M15.5 14C15.9142 14 16.25 13.6642 16.25 13.25C16.25 12.8358 15.9142 12.5 15.5 12.5C15.0858 12.5 14.75 12.8358 14.75 13.25C14.75 13.6642 15.0858 14 15.5 14Z" fill="currentColor"/>
<path d="M8.5 17.5C8.91421 17.5 9.25 17.1642 9.25 16.75C9.25 16.3358 8.91421 16 8.5 16C8.08579 16 7.75 16.3358 7.75 16.75C7.75 17.1642 8.08579 17.5 8.5 17.5Z" fill="currentColor"/>
<path d="M12 17.5C12.4142 17.5 12.75 17.1642 12.75 16.75C12.75 16.3358 12.4142 16 12 16C11.5858 16 11.25 16.3358 11.25 16.75C11.25 17.1642 11.5858 17.5 12 17.5Z" fill="currentColor"/>
<path d="M15.5 17.5C15.9142 17.5 16.25 17.1642 16.25 16.75C16.25 16.3358 15.9142 16 15.5 16C15.0858 16 14.75 16.3358 14.75 16.75C14.75 17.1642 15.0858 17.5 15.5 17.5Z" fill="currentColor"/>
<path d="M8.5 21C8.91421 21 9.25 20.6642 9.25 20.25C9.25 19.8358 8.91421 19.5 8.5 19.5C8.08579 19.5 7.75 19.8358 7.75 20.25C7.75 20.6642 8.08579 21 8.5 21Z" fill="currentColor"/>
<path d="M12 21C11.8011 21 11.6103 20.921 11.4697 20.7803C11.329 20.6397 11.25 20.4489 11.25 20.25C11.2497 20.1514 11.269 20.0538 11.3066 19.9627C11.3442 19.8716 11.3994 19.7888 11.4691 19.7191C11.5388 19.6494 11.6216 19.5942 11.7127 19.5566C11.8038 19.519 11.9014 19.4997 12 19.5L12.057 19.504C12.2469 19.5231 12.4223 19.6139 12.5476 19.7579C12.6728 19.9018 12.7385 20.0881 12.7313 20.2788C12.724 20.4695 12.6443 20.6502 12.5085 20.7842C12.3726 20.9182 12.1908 20.9954 12 21Z" fill="currentColor"/>
<path d="M15.5 21C15.9142 21 16.25 20.6642 16.25 20.25C16.25 19.8358 15.9142 19.5 15.5 19.5C15.0858 19.5 14.75 19.8358 14.75 20.25C14.75 20.6642 15.0858 21 15.5 21Z" fill="currentColor"/>
<path d="M4.5 24C3.673 24 3 23.327 3 22.5V10.5C3 9.673 3.673 9 4.5 9H6V6C6 2.692 8.692 0 12 0C15.308 0 18 2.692 18 6V9H19.5C20.327 9 21 9.673 21 10.5V22.5C21 23.327 20.327 24 19.5 24H4.5ZM4.5 10C4.36739 10 4.24021 10.0527 4.14645 10.1464C4.05268 10.2402 4 10.3674 4 10.5V22.5C4 22.6326 4.05268 22.7598 4.14645 22.8536C4.24021 22.9473 4.36739 23 4.5 23H19.5C19.6326 23 19.7598 22.9473 19.8536 22.8536C19.9473 22.7598 20 22.6326 20 22.5V10.5C20 10.3674 19.9473 10.2402 19.8536 10.1464C19.7598 10.0527 19.6326 10 19.5 10H4.5ZM17 9V6C17 3.243 14.757 1 12 1C9.243 1 7 3.243 7 6V9H17Z" fill="currentColor"/>
</svg>
