<svg width="24" height="24" viewBox="0 0 24 24" fill="none" xmlns="http://www.w3.org/2000/svg">
<g clip-path="url(#clip0_1_113958)">
<path d="M1.49902 24C0.672023 24 -0.000976562 23.327 -0.000976562 22.5V1.5C-0.000976562 0.673 0.672023 0 1.49902 0H12.499C13.326 0 13.999 0.673 13.999 1.5V5C13.999 5.13261 13.9463 5.25979 13.8526 5.35355C13.7588 5.44732 13.6316 5.5 13.499 5.5C13.3664 5.5 13.2392 5.44732 13.1455 5.35355C13.0517 5.25979 12.999 5.13261 12.999 5V1.5C12.999 1.36739 12.9463 1.24021 12.8526 1.14645C12.7588 1.05268 12.6316 1 12.499 1H1.49902C1.36642 1 1.23924 1.05268 1.14547 1.14645C1.0517 1.24021 0.999023 1.36739 0.999023 1.5V22.5C0.999023 22.6326 1.0517 22.7598 1.14547 22.8536C1.23924 22.9473 1.36642 23 1.49902 23H12.499C12.6316 23 12.7588 22.9473 12.8526 22.8536C12.9463 22.7598 12.999 22.6326 12.999 22.5V19C12.999 18.8674 13.0517 18.7402 13.1455 18.6464C13.2392 18.5527 13.3664 18.5 13.499 18.5C13.6316 18.5 13.7588 18.5527 13.8526 18.6464C13.9463 18.7402 13.999 18.8674 13.999 19V22.5C13.999 23.327 13.326 24 12.499 24H1.49902Z" fill="currentColor"/>
<path d="M18.499 17.5C18.4002 17.5 18.3036 17.4707 18.2214 17.4158C18.1393 17.3609 18.0752 17.2829 18.0373 17.1917C17.9994 17.1004 17.9895 17 18.0086 16.903C18.0278 16.8061 18.0753 16.717 18.145 16.647L22.291 12.501H4.49902C4.36642 12.501 4.23924 12.4483 4.14547 12.3546C4.0517 12.2608 3.99902 12.1336 3.99902 12.001C3.99902 11.8684 4.0517 11.7412 4.14547 11.6475C4.23924 11.5537 4.36642 11.501 4.49902 11.501H22.292L18.146 7.35501C18.052 7.26126 17.9991 7.13399 17.9989 7.00122C17.9987 6.86844 18.0513 6.74103 18.145 6.64701C18.2388 6.55299 18.366 6.50007 18.4988 6.49988C18.6316 6.49969 18.759 6.55226 18.853 6.64601L23.853 11.646C23.9456 11.7404 23.9974 11.8673 23.9974 11.9995C23.9974 12.1317 23.9456 12.2586 23.853 12.353L18.854 17.353C18.8075 17.3997 18.7521 17.4367 18.6912 17.462C18.6303 17.4872 18.565 17.5001 18.499 17.5Z" fill="currentColor"/>
</g>
<defs>
<clipPath id="clip0_1_113958">
<rect width="24" height="24" fill="white"/>
</clipPath>
</defs>
</svg>
