<?xml version="1.0" encoding="UTF-8" standalone="no"?>
<svg
   width="25"
   height="25"
   viewBox="0 0 25 25"
   fill="none"
   version="1.1"
   id="svg6"
   sodipodi:docname="maintenance.svg"
   inkscape:version="1.3.2 (091e20e, 2023-11-25, custom)"
   xmlns:inkscape="http://www.inkscape.org/namespaces/inkscape"
   xmlns:sodipodi="http://sodipodi.sourceforge.net/DTD/sodipodi-0.dtd"
   xmlns="http://www.w3.org/2000/svg"
   xmlns:svg="http://www.w3.org/2000/svg">
  <defs
     id="defs6" />
  <sodipodi:namedview
     id="namedview6"
     pagecolor="#ffffff"
     bordercolor="#000000"
     borderopacity="0.25"
     inkscape:showpageshadow="2"
     inkscape:pageopacity="0.0"
     inkscape:pagecheckerboard="0"
     inkscape:deskcolor="#d1d1d1"
     inkscape:zoom="51.16"
     inkscape:cx="12.490227"
     inkscape:cy="12.5"
     inkscape:window-width="2880"
     inkscape:window-height="1514"
     inkscape:window-x="-11"
     inkscape:window-y="-11"
     inkscape:window-maximized="1"
     inkscape:current-layer="svg6" />
  <path
     style="color:#000000;fill:currentColor;stroke-linecap:round;stroke-linejoin:round;-inkscape-stroke:none"
     d="M 8.0097656,14.367188 A 0.50005,0.50005 0 0 0 7.65625,14.513672 l -6.5703125,6.574219 a 0.50005,0.50005 0 0 0 -0.00977,0.0098 C 0.71847188,21.47595 0.5219398,21.979407 0.52929687,22.5 c 0.00737,0.52059 0.21769182,1.016733 0.58593753,1.384766 0.3682126,0.367999 0.8661699,0.57874 1.3867187,0.585937 0.5205244,0.0071 1.0241794,-0.188984 1.4023438,-0.546875 a 0.50005,0.50005 0 0 0 0.00977,-0.0098 L 10.484375,17.34375 a 0.50005,0.50005 0 0 0 0,-0.707031 L 8.3632813,14.513672 A 0.50005,0.50005 0 0 0 8.0097656,14.367188 Z m 0,1.207031 1.4140625,1.416015 -6.2070312,6.207032 C 3.0275418,23.376375 2.7762198,23.474239 2.515625,23.470703 2.2550346,23.4671 2.0065724,23.361934 1.8222656,23.177734 1.6379919,22.993567 1.5329865,22.744984 1.5292969,22.484375 c -0.00366,-0.2591 0.094452,-0.508345 0.2714843,-0.697266 0.00103,-0.0011 9.188e-4,-0.0028 0.00195,-0.0039 z"
     id="path1" />
  <path
     style="color:#000000;fill:currentColor;stroke-linecap:round;stroke-linejoin:round;-inkscape-stroke:none"
     d="m 6.5976562,13.453125 a 0.5,0.5 0 0 0 0,0.707031 l 4.2402348,4.242188 a 0.5,0.5 0 0 0 0.707031,0 0.5,0.5 0 0 0 0,-0.707032 L 7.3046875,13.453125 a 0.5,0.5 0 0 0 -0.7070313,0 z"
     id="path2" />
  <path
     style="color:#000000;fill:currentColor;stroke-linecap:round;stroke-linejoin:round;-inkscape-stroke:none"
     d="M 20.410156,4.1015625 A 0.5,0.5 0 0 0 20.056641,4.2480469 L 8.71875,15.574219 a 0.5,0.5 0 0 0 0,0.707031 0.5,0.5 0 0 0 0.7070313,0 L 20.763672,4.9550781 a 0.5,0.5 0 0 0 0,-0.7070312 0.5,0.5 0 0 0 -0.353516,-0.1464844 z"
     id="path3" />
  <path
     style="color:#000000;fill:currentColor;stroke-linecap:round;stroke-linejoin:round;-inkscape-stroke:none"
     d="M 22.689453,0.50390625 C 22.455947,0.48307265 22.22365,0.54594673 22.03125,0.6796875 L 19.814453,2.21875 c -0.18036,0.1254571 -0.331289,0.2887846 -0.441406,0.4785156 -0.109681,0.1892521 -0.175867,0.4007573 -0.195313,0.6191407 -0.01935,0.2187888 0.0088,0.4401849 0.08398,0.6464843 0.07516,0.2063534 0.19404,0.3937541 0.349609,0.5488281 l 0.8125,0.8105469 c 0.15221,0.1521503 0.335528,0.2687119 0.537109,0.34375 0.201611,0.075064 0.416339,0.1073084 0.63086,0.091797 0.214501,-0.01551 0.422576,-0.078352 0.611328,-0.1816406 0.188711,-0.1032661 0.353726,-0.2456244 0.482422,-0.4179688 l 1.613281,-2.15625 C 24.443722,2.8097934 24.514649,2.5704027 24.498047,2.3300781 24.481634,2.0895907 24.378823,1.8638375 24.208984,1.6933594 L 23.308594,0.79296875 C 23.142718,0.62703269 22.922926,0.5247349 22.689453,0.50390625 Z M 22.601562,1.5 23.5,2.3984375 a 0.50005,0.50005 0 0 0 0,0.00195 l -1.615234,2.1601563 c -0.0429,0.057455 -0.09727,0.104258 -0.160157,0.1386718 -0.06285,0.034391 -0.133579,0.055377 -0.205078,0.060547 -0.07148,0.00517 -0.143748,-0.00428 -0.210937,-0.029297 -0.06722,-0.025022 -0.127145,-0.064665 -0.177735,-0.1152343 l -0.8125,-0.8125 c -0.05183,-0.051666 -0.09214,-0.1128743 -0.117187,-0.1816406 -0.02506,-0.0688 -0.03379,-0.141953 -0.02734,-0.2148438 a 0.50005,0.50005 0 0 0 0,-0.00195 c 0.0064,-0.072608 0.02765,-0.1415736 0.06445,-0.2050781 0.03688,-0.063549 0.08644,-0.1183935 0.146485,-0.1601563 z"
     id="path4" />
  <path
     style="color:#000000;fill:currentColor;stroke-linecap:round;stroke-linejoin:round;-inkscape-stroke:none"
     d="M 5,0.5 C 4.6897388,0.49987641 4.3799819,0.53283348 4.0761719,0.59570312 3.8997755,0.63263818 3.7361358,0.71583042 3.6035156,0.83789063 3.4708799,0.95994667 3.3736878,1.1163625 3.3222656,1.2890625 3.2708321,1.4618007 3.2662954,1.6456262 3.3105469,1.8203125 3.354799,1.9950015 3.4467638,2.153835 3.5742188,2.28125 L 5,3.7089844 V 5 H 3.7070313 L 2.28125,3.5742188 C 2.1538535,3.4467823 1.993067,3.3567518 1.8183594,3.3125 1.643673,3.2682485 1.4598475,3.2708321 1.2871094,3.3222656 1.1143992,3.3736908 0.95992824,3.4708999 0.83789063,3.6035156 0.71584885,3.7361158 0.63069247,3.8997401 0.59375,4.0761719 a 0.50005,0.50005 0 0 0 0,0.00195 C 0.53087891,4.381942 0.49988316,4.6897532 0.5,5 0.4999325,5.751999 0.68918706,6.49192 1.0488281,7.1523437 1.4084668,7.8127632 1.9268505,8.3732988 2.5585938,8.78125 3.1903198,9.1891973 3.9141552,9.4322013 4.6640625,9.4882813 5.2807443,9.5343982 5.8815731,9.3724536 6.4628906,9.1699219 l 3.2695313,3.2695311 a 0.5,0.5 0 0 0 0.7070311,0 0.5,0.5 0 0 0 0,-0.707031 L 7,8.2929688 A 0.50005,0.50005 0 0 0 6.4394531,8.1914063 C 5.9063525,8.4320996 5.3215771,8.5338547 4.7382812,8.4902344 4.1549899,8.4466144 3.5929354,8.2587182 3.1015625,7.9414062 2.6101869,7.6240981 2.2055219,7.1875275 1.9257812,6.6738281 1.646043,6.1601331 1.4999475,5.5849196 1.5,5 1.4999091,4.7585964 1.5254319,4.5176603 1.5742187,4.28125 L 3,5.7089844 C 3.1872766,5.8957813 3.4425288,5.99994 3.7070313,6 H 5 C 5.2650281,6 5.519627,5.8944555 5.7070312,5.7070312 5.8944209,5.5196416 6,5.2650281 6,5 V 3.7070313 C 5.99994,3.4425288 5.8938628,3.1892444 5.7070312,3.0019531 a 0.50005,0.50005 0 0 0 0,-0.00195 L 4.28125,1.5742187 C 4.5176672,1.5254304 4.7586108,1.4999038 5,1.5 5.5849246,1.4999475 6.1601369,1.646045 6.6738281,1.9257812 7.1875302,2.2055186 7.6240941,2.6101894 7.9414062,3.1015625 8.2587208,3.5929481 8.4466144,4.156943 8.4902344,4.7402344 8.5338547,5.3235306 8.430149,5.9082911 8.1894531,6.4414062 A 0.50005,0.50005 0 0 0 8.2929688,7 l 3.4394532,3.439453 a 0.5,0.5 0 0 0 0.707031,0 0.5,0.5 0 0 0 0,-0.7070311 L 9.1699219,6.4628906 C 9.3724525,5.8815719 9.5343982,5.280744 9.4882813,4.6640625 9.4322013,3.9141552 9.1891947,3.190327 8.78125,2.5585938 8.3733029,1.926868 7.8127805,1.4084701 7.1523437,1.0488281 6.4919161,0.68918497 5.7519941,0.4999325 5,0.5 Z"
     id="path5" />
  <path
     style="color:#000000;fill:currentColor;stroke-linecap:round;stroke-linejoin:round;-inkscape-stroke:none"
     d="m 14.560547,12.560547 a 0.5,0.5 0 0 0 0,0.707031 L 18,16.708984 a 0.50005,0.50005 0 0 0 0.560547,0.101563 c 0.533035,-0.240706 1.1179,-0.344444 1.701172,-0.300781 0.583276,0.04358 1.145437,0.233439 1.636718,0.550781 0.49139,0.317268 0.896026,0.751966 1.175782,1.265625 C 23.353982,18.839931 23.500087,19.41507 23.5,20 c 8.8e-5,0.242054 -0.02516,0.48382 -0.07422,0.720703 L 22,19.292969 C 21.812765,19.106134 21.557544,19 21.292969,19 H 20 c -0.265078,0 -0.51965,0.105787 -0.707031,0.292969 C 19.105787,19.48035 19,19.734922 19,20 v 1.292969 c 0,0.264575 0.106008,0.51967 0.292969,0.707031 l 1.425781,1.427734 C 20.482253,23.476491 20.241285,23.500087 20,23.5 c -0.58493,8.7e-5 -1.160197,-0.14604 -1.673828,-0.425781 -0.513745,-0.279755 -0.95031,-0.684392 -1.267578,-1.175782 -0.317343,-0.491281 -0.505253,-1.053442 -0.548828,-1.636718 -0.04366,-0.583272 0.06008,-1.168137 0.300781,-1.701172 A 0.50005,0.50005 0 0 0 16.707031,18 l -3.439453,-3.439453 a 0.5,0.5 0 0 0 -0.707031,0 0.5,0.5 0 0 0 0,0.707031 l 3.269531,3.271484 c -0.202089,0.580787 -0.364475,1.180823 -0.318359,1.796875 0.05602,0.749922 0.298974,1.473752 0.707031,2.105469 0.407931,0.63181 0.968452,1.152075 1.628906,1.511719 C 18.508023,24.312783 19.247931,24.500113 20,24.5 c 0.310266,1.12e-4 0.620139,-0.03097 0.923828,-0.09375 0.176363,-0.03699 0.34008,-0.122162 0.472656,-0.244141 0.132594,-0.121993 0.229824,-0.276329 0.28125,-0.449218 0.05134,-0.172612 0.05587,-0.356665 0.01172,-0.53125 -0.04429,-0.174955 -0.136329,-0.333595 -0.263672,-0.460938 L 20,21.292969 V 20 h 1.292969 l 1.425781,1.427734 c 0.127343,0.127344 0.287936,0.217429 0.462891,0.261719 0.174585,0.04415 0.356685,0.03963 0.529296,-0.01172 0.172889,-0.05143 0.329179,-0.148656 0.451172,-0.28125 0.122452,-0.132873 0.207223,-0.294694 0.244141,-0.470703 a 0.50005,0.50005 0 0 0 0,-0.002 C 24.469191,20.619912 24.500112,20.310145 24.5,20 c 1.13e-4,-0.752069 -0.189192,-1.491904 -0.548828,-2.152344 -0.359644,-0.66034 -0.877956,-1.219022 -1.509766,-1.626953 -0.631717,-0.408057 -1.355547,-0.652959 -2.105469,-0.708984 -0.616702,-0.04617 -1.217506,0.115802 -1.798828,0.318359 l -3.269531,-3.269531 a 0.5,0.5 0 0 0 -0.707031,0 z"
     id="path6" />
</svg>
