<svg width="24" height="24" viewBox="0 0 24 24" fill="none" xmlns="http://www.w3.org/2000/svg">
<g clip-path="url(#clip0_1_113585)">
<path d="M7.5 21.977C7.29121 21.9772 7.08764 21.9118 6.918 21.79L0.418004 17.147C0.288821 17.0542 0.183553 16.9319 0.110878 16.7904C0.0382033 16.6489 0.00020133 16.4921 4.38778e-06 16.333V1.56202C-0.000386998 1.43056 0.0254087 1.30034 0.0758863 1.17895C0.126364 1.05756 0.200512 0.947445 0.294004 0.855023C0.386474 0.762012 0.496504 0.688303 0.617702 0.638175C0.7389 0.588048 0.86885 0.562503 1 0.563023C1.211 0.563023 1.412 0.628023 1.582 0.750023L7.5 4.97702L13.918 0.394023C14.098 0.264445 14.3164 0.199275 14.538 0.209023C14.729 0.215023 14.92 0.279023 15.081 0.394023L21.581 5.03602C21.844 5.22402 22 5.52802 22 5.85102V10.593C22 10.7256 21.9473 10.8528 21.8536 10.9466C21.7598 11.0403 21.6326 11.093 21.5 11.093C21.3674 11.093 21.2402 11.0403 21.1465 10.9466C21.0527 10.8528 21 10.7256 21 10.593V5.85002L15 1.56402V10.591C15 10.7236 14.9473 10.8508 14.8536 10.9446C14.7598 11.0383 14.6326 11.091 14.5 11.091C14.3674 11.091 14.2402 11.0383 14.1465 10.9446C14.0527 10.8508 14 10.7236 14 10.591V1.56402L8 5.84902V20.62L13.209 16.899C13.2897 16.8428 13.3851 16.8115 13.4834 16.8091C13.5816 16.8066 13.6785 16.8331 13.7619 16.8851C13.8453 16.9372 13.9115 17.0126 13.9524 17.102C13.9933 17.1914 14.0071 17.2909 13.992 17.388C13.9814 17.4529 13.9579 17.5151 13.9231 17.5709C13.8882 17.6267 13.8427 17.675 13.789 17.713L8.082 21.79C7.91237 21.9118 7.7088 21.9772 7.5 21.977ZM1 16.333L7 20.619V5.84902L1 1.56302V16.333Z" fill="currentColor"/>
<path d="M19.499 23.795C19.3487 23.7957 19.2003 23.7621 19.0649 23.6968C18.9296 23.6314 18.8109 23.5361 18.718 23.418C17.329 21.662 15 18.442 15 16.591C15 14.11 17.019 12.091 19.5 12.091C21.981 12.091 24 14.11 24 16.591C24 18.442 21.672 21.661 20.284 23.415C20.1905 23.5337 20.0713 23.6297 19.9353 23.6955C19.7993 23.7613 19.6501 23.7954 19.499 23.795ZM19.5 13.091C17.57 13.091 16 14.661 16 16.591C16 17.902 17.808 20.656 19.5 22.795C21.192 20.656 23 17.903 23 16.591C23 14.661 21.43 13.091 19.5 13.091Z" fill="currentColor"/>
<path d="M19.5 18.591C18.397 18.591 17.5 17.694 17.5 16.591C17.5 15.488 18.397 14.591 19.5 14.591C20.603 14.591 21.5 15.488 21.5 16.591C21.5 17.694 20.603 18.591 19.5 18.591ZM19.5 15.591C19.2348 15.591 18.9804 15.6964 18.7929 15.8839C18.6054 16.0714 18.5 16.3258 18.5 16.591C18.5 16.8562 18.6054 17.1106 18.7929 17.2981C18.9804 17.4856 19.2348 17.591 19.5 17.591C19.7652 17.591 20.0196 17.4856 20.2071 17.2981C20.3946 17.1106 20.5 16.8562 20.5 16.591C20.5 16.3258 20.3946 16.0714 20.2071 15.8839C20.0196 15.6964 19.7652 15.591 19.5 15.591Z" fill="currentColor"/>
</g>
<defs>
<clipPath id="clip0_1_113585">
<rect width="24" height="24" fill="white"/>
</clipPath>
</defs>
</svg>
