<svg width="24" height="24" viewBox="0 0 24 24" fill="none" xmlns="http://www.w3.org/2000/svg">
<path d="M2.25 18.7529C2.05109 18.7529 1.86032 18.6739 1.71967 18.5333C1.57902 18.3926 1.5 18.2018 1.5 18.0029C1.5 17.804 1.57902 17.6133 1.71967 17.4726C1.86032 17.3319 2.05109 17.2529 2.25 17.2529H21.75C21.9489 17.2529 22.1397 17.3319 22.2803 17.4726C22.421 17.6133 22.5 17.804 22.5 18.0029C22.5 18.2018 22.421 18.3926 22.2803 18.5333C22.1397 18.6739 21.9489 18.7529 21.75 18.7529H2.25Z" fill="white"/>
<path d="M2.25 12.7529C2.05109 12.7529 1.86032 12.6739 1.71967 12.5333C1.57902 12.3926 1.5 12.2018 1.5 12.0029C1.5 11.804 1.57902 11.6133 1.71967 11.4726C1.86032 11.3319 2.05109 11.2529 2.25 11.2529H21.75C21.9489 11.2529 22.1397 11.3319 22.2803 11.4726C22.421 11.6133 22.5 11.804 22.5 12.0029C22.5 12.2018 22.421 12.3926 22.2803 12.5333C22.1397 12.6739 21.9489 12.7529 21.75 12.7529H2.25Z" fill="white"/>
<path d="M2.25 6.75293C2.05109 6.75293 1.86032 6.67391 1.71967 6.53326C1.57902 6.39261 1.5 6.20184 1.5 6.00293C1.5 5.80402 1.57902 5.61325 1.71967 5.4726C1.86032 5.33195 2.05109 5.25293 2.25 5.25293H21.75C21.9489 5.25293 22.1397 5.33195 22.2803 5.4726C22.421 5.61325 22.5 5.80402 22.5 6.00293C22.5 6.20184 22.421 6.39261 22.2803 6.53326C22.1397 6.67391 21.9489 6.75293 21.75 6.75293H2.25Z" fill="white"/>
</svg>
