<?xml version="1.0" encoding="UTF-8" standalone="no"?>
<svg
   width="24"
   height="24"
   viewBox="0 0 24 24"
   fill="none"
   version="1.1"
   id="svg6"
   sodipodi:docname="money.svg"
   inkscape:version="1.3.2 (091e20e, 2023-11-25, custom)"
   xmlns:inkscape="http://www.inkscape.org/namespaces/inkscape"
   xmlns:sodipodi="http://sodipodi.sourceforge.net/DTD/sodipodi-0.dtd"
   xmlns="http://www.w3.org/2000/svg"
   xmlns:svg="http://www.w3.org/2000/svg">
  <defs
     id="defs6" />
  <sodipodi:namedview
     id="namedview6"
     pagecolor="#ffffff"
     bordercolor="#000000"
     borderopacity="0.25"
     inkscape:showpageshadow="2"
     inkscape:pageopacity="0.0"
     inkscape:pagecheckerboard="0"
     inkscape:deskcolor="#d1d1d1"
     inkscape:zoom="53.291667"
     inkscape:cx="11.990618"
     inkscape:cy="12"
     inkscape:window-width="2880"
     inkscape:window-height="1514"
     inkscape:window-x="-11"
     inkscape:window-y="-11"
     inkscape:window-maximized="1"
     inkscape:current-layer="svg6" />
  <path
     style="color:#000000;fill:currentColor;stroke-linecap:round;stroke-linejoin:round;-inkscape-stroke:none"
     d="m 9.390625,9.5800781 c -0.2163329,0 -0.4285526,0.069486 -0.6015625,0.1992188 a 0.50005,0.50005 0 0 0 -0.00195,0.00391 C 7.6513573,10.650085 6.4743165,11.894422 5.5644531,13.269531 4.6545897,14.644641 4,16.146746 4,17.576172 4,19.464495 4.5577856,21.036501 5.8808594,22.068359 7.2039332,23.100218 9.1921543,23.576172 12,23.576172 c 2.807846,0 4.796067,-0.475954 6.119141,-1.507813 C 19.442214,21.036501 20,19.464495 20,17.576172 20,16.147402 19.346649,14.646681 18.439453,13.271484 17.532257,11.896288 16.360121,10.650302 15.224609,9.7832031 a 0.50005,0.50005 0 0 0 -0.0039,-0.00391 C 15.047613,9.6494291 14.837427,9.5800781 14.621094,9.5800781 Z m 0,0.9999999 h 5.228516 c 1.029949,0.786902 2.146052,1.968434 2.986328,3.242188 C 18.446271,15.096817 19,16.463944 19,17.576172 c 0,1.702674 -0.442217,2.882735 -1.494141,3.703125 -1.051923,0.82039 -2.81371,1.296875 -5.505859,1.296875 -2.6921488,0 -4.4539355,-0.476485 -5.5058594,-1.296875 C 5.4422168,20.458907 5,19.278846 5,17.576172 5,16.4646 5.5550526,15.096904 6.3984375,13.822266 7.2412951,12.548425 8.359914,11.367196 9.390625,10.580078 Z"
     id="path1" />
  <path
     style="color:#000000;fill:currentColor;stroke-linecap:round;stroke-linejoin:round;-inkscape-stroke:none"
     d="m 8.5039063,7.5761719 a 0.5,0.5 0 0 0 -0.5,0.5 0.5,0.5 0 0 0 0.5,0.5 h 6.9999997 a 0.5,0.5 0 0 0 0.5,-0.5 0.5,0.5 0 0 0 -0.5,-0.5 z"
     id="path2" />
  <path
     style="color:#000000;fill:currentColor;stroke-linecap:round;stroke-linejoin:round;-inkscape-stroke:none"
     d="m 12.001953,0.41992188 c -0.200053,0 -0.395044,0.0596467 -0.560547,0.17187499 -0.165491,0.11222598 -0.293122,0.27096812 -0.367187,0.45703123 L 10.726563,1.9160156 9.0996094,1.21875 C 8.9082612,1.1356899 8.6942245,1.1144138 8.4902344,1.1582031 8.2862536,1.2019904 8.1013611,1.3085906 7.9609375,1.4628906 7.8205689,1.6171721 7.7314459,1.8123165 7.7070312,2.0195313 7.6826148,2.2267409 7.7235227,2.4364404 7.8242187,2.6191406 a 0.50005,0.50005 0 0 0 0.00586,0.00781 C 8.3870009,3.589499 8.77709,4.6398589 8.984375,5.7324219 l -0.00391,-0.03125 C 9.0108323,5.9442199 9.128246,6.1686734 9.3125,6.3300781 9.4967487,6.4914806 9.7355584,6.5780506 9.9804688,6.5761719 h 4.0566402 c 0.244911,0.00188 0.481789,-0.084746 0.666016,-0.2460938 0.184333,-0.1614209 0.303608,-0.3859133 0.333984,-0.6289062 l -0.0039,0.029297 c 0.20154,-1.0926172 0.585711,-2.1436934 1.138672,-3.1074218 a 0.50005,0.50005 0 0 0 0.0059,-0.00781 C 16.278123,2.4328386 16.319345,2.2230583 16.294922,2.015625 16.270374,1.8088022 16.181379,1.6133041 16.041016,1.4589844 15.900451,1.3044635 15.715633,1.1980784 15.511719,1.1542969 15.307724,1.110498 15.093697,1.1317642 14.902344,1.2148437 l -1.625,0.6972657 -0.345703,-0.8632813 C 12.857576,0.86276499 12.729944,0.70402285 12.564453,0.59179687 12.398795,0.47946365 12.202006,0.41992188 12.001953,0.41992188 Z m 0,1.00000002 0.535156,1.3398437 a 0.50005,0.50005 0 0 0 0.66211,0.2734375 l 2.099609,-0.9003906 a 0.50005,0.50005 0 0 0 0.002,0 C 14.69387,3.1925489 14.270359,4.347833 14.048828,5.5488281 a 0.50005,0.50005 0 0 0 -0.0039,0.027344 0.50005,0.50005 0 0 0 -0.0039,0 H 9.9765625 a 0.50005,0.50005 0 0 0 -0.00391,0 0.50005,0.50005 0 0 0 -0.00586,-0.03125 C 9.7385224,4.3417271 9.3086286,3.1869652 8.6953125,2.1269531 l 0.00586,0.00781 a 0.50005,0.50005 0 0 0 0.00195,0.00195 l 2.099609,0.9003906 a 0.50005,0.50005 0 0 0 0.66211,-0.2734375 z"
     id="path3" />
  <path
     style="color:#000000;fill:currentColor;stroke-linecap:round;stroke-linejoin:round;-inkscape-stroke:none"
     d="m 12.503906,12.076172 a 0.5,0.5 0 0 0 -0.5,0.5 v 1 a 0.5,0.5 0 0 0 0.5,0.5 0.5,0.5 0 0 0 0.5,-0.5 v -1 a 0.5,0.5 0 0 0 -0.5,-0.5 z"
     id="path4" />
  <path
     style="color:#000000;fill:currentColor;stroke-linecap:round;stroke-linejoin:round;-inkscape-stroke:none"
     d="m 11.970703,13.076172 c -0.427875,-9.3e-4 -0.843313,0.148055 -1.173828,0.419922 -0.331012,0.27225 -0.555357,0.651599 -0.636719,1.072265 a 0.50005,0.50005 0 0 0 -0.002,0 c -0.08124,0.420604 -0.01238,0.856359 0.19336,1.232422 0.205435,0.375627 0.536073,0.669618 0.933593,0.828125 l 2.0625,0.826172 v -0.002 c 0.181422,0.07298 0.33221,0.207087 0.425782,0.378906 0.09353,0.17174 0.123029,0.370513 0.08594,0.5625 -0.03708,0.191915 -0.14018,0.365648 -0.291016,0.490235 -0.150723,0.124494 -0.339523,0.19128 -0.535156,0.191406 H 11 a 0.5,0.5 0 0 0 -0.5,0.5 0.5,0.5 0 0 0 0.5,0.5 h 2.033203 a 0.50005,0.50005 0 0 0 0.002,0 c 0.427567,-2.75e-4 0.840246,-0.147617 1.169922,-0.419922 0.329564,-0.272213 0.555597,-0.652381 0.636719,-1.072266 0.08111,-0.419811 0.01307,-0.855009 -0.191406,-1.230468 -0.204429,-0.37538 -0.53291,-0.668508 -0.929688,-0.828125 L 11.65625,15.699219 c -0.182055,-0.07242 -0.333811,-0.205221 -0.427734,-0.376953 -0.09406,-0.171936 -0.125052,-0.372057 -0.08789,-0.564453 0.03724,-0.192534 0.139828,-0.363933 0.291016,-0.488282 a 0.50005,0.50005 0 0 0 0,-0.002 c 0.151396,-0.124532 0.341254,-0.192033 0.537109,-0.191406 a 0.50005,0.50005 0 0 0 0.002,0 H 14 a 0.5,0.5 0 0 0 0.5,-0.5 0.5,0.5 0 0 0 -0.5,-0.5 h -2.027344 z"
     id="path5" />
  <path
     style="color:#000000;fill:currentColor;stroke-linecap:round;stroke-linejoin:round;-inkscape-stroke:none"
     d="m 12.503906,19.076172 a 0.5,0.5 0 0 0 -0.5,0.5 v 1 a 0.5,0.5 0 0 0 0.5,0.5 0.5,0.5 0 0 0 0.5,-0.5 v -1 a 0.5,0.5 0 0 0 -0.5,-0.5 z"
     id="path6" />
</svg>
