<svg width="24" height="24" viewBox="0 0 24 24" fill="none" xmlns="http://www.w3.org/2000/svg">
<g clip-path="url(#clip0_1_113938)">
<path d="M11.981 14.475C11.6526 14.47 11.3284 14.4 11.0272 14.2691C10.726 14.1381 10.4537 13.9488 10.226 13.712C9.77366 13.2471 9.52057 12.6241 9.52057 11.9755C9.52057 11.3269 9.77366 10.7039 10.226 10.239C11.033 9.432 17.698 5.326 18.456 4.86C18.5519 4.80109 18.6648 4.77624 18.7766 4.78949C18.8883 4.80273 18.9924 4.85328 19.0718 4.93297C19.1513 5.01266 19.2015 5.11683 19.2144 5.22862C19.2274 5.34041 19.2022 5.45329 19.143 5.549C18.678 6.306 14.574 12.967 13.766 13.769C13.3002 14.2229 12.6754 14.4766 12.025 14.476L11.981 14.475ZM17.171 6.833C14.389 8.569 11.372 10.507 10.939 10.94C10.379 11.52 10.381 12.434 10.945 13.018C11.0815 13.1602 11.2449 13.2739 11.4256 13.3525C11.6064 13.4311 11.8009 13.4731 11.998 13.476H12.024C12.414 13.476 12.784 13.327 13.065 13.056C13.5 12.622 15.437 9.61 17.171 6.833Z" fill="currentColor"/>
<path d="M3.5 12.5C3.36739 12.5 3.24021 12.4473 3.14645 12.3536C3.05268 12.2598 3 12.1326 3 12C3 11.8674 3.05268 11.7402 3.14645 11.6464C3.24021 11.5527 3.36739 11.5 3.5 11.5H5C5.13261 11.5 5.25979 11.5527 5.35355 11.6464C5.44732 11.7402 5.5 11.8674 5.5 12C5.5 12.1326 5.44732 12.2598 5.35355 12.3536C5.25979 12.4473 5.13261 12.5 5 12.5H3.5Z" fill="currentColor"/>
<path d="M7.05003 7.54999C6.98433 7.55011 6.91924 7.53727 6.8585 7.51222C6.79776 7.48717 6.74255 7.45039 6.69603 7.40399L5.63603 6.34399C5.56592 6.27406 5.51816 6.18489 5.49879 6.08778C5.47943 5.99067 5.48933 5.89 5.52725 5.79853C5.56516 5.70705 5.62939 5.6289 5.71178 5.57397C5.79417 5.51904 5.89101 5.48981 5.99003 5.48999C6.05574 5.48987 6.12082 5.50271 6.18156 5.52776C6.2423 5.55281 6.29751 5.58959 6.34403 5.63599L7.40403 6.69599C7.47414 6.76592 7.5219 6.85509 7.54127 6.9522C7.56064 7.04931 7.55073 7.14998 7.51282 7.24145C7.4749 7.33293 7.41067 7.41108 7.32828 7.46601C7.24589 7.52094 7.14905 7.55017 7.05003 7.54999Z" fill="currentColor"/>
<path d="M12 5.5C11.8674 5.5 11.7402 5.44732 11.6464 5.35355C11.5527 5.25979 11.5 5.13261 11.5 5V3.5C11.5 3.36739 11.5527 3.24021 11.6464 3.14645C11.7402 3.05268 11.8674 3 12 3C12.1326 3 12.2598 3.05268 12.3536 3.14645C12.4473 3.24021 12.5 3.36739 12.5 3.5V5C12.5 5.13261 12.4473 5.25979 12.3536 5.35355C12.2598 5.44732 12.1326 5.5 12 5.5Z" fill="currentColor"/>
<path d="M19 12.5C18.8674 12.5 18.7402 12.4473 18.6464 12.3536C18.5527 12.2598 18.5 12.1326 18.5 12C18.5 11.8674 18.5527 11.7402 18.6464 11.6464C18.7402 11.5527 18.8674 11.5 19 11.5H20.5C20.6326 11.5 20.7598 11.5527 20.8536 11.6464C20.9473 11.7402 21 11.8674 21 12C21 12.1326 20.9473 12.2598 20.8536 12.3536C20.7598 12.4473 20.6326 12.5 20.5 12.5H19Z" fill="currentColor"/>
<path d="M12 24C10.3062 23.9979 8.63198 23.6375 7.08726 22.9426C5.54255 22.2477 4.16226 21.234 3.037 19.968C3.00505 19.9453 2.9773 19.9172 2.955 19.885L2.936 19.853C1.04429 17.6739 0.00186063 14.8857 0 12C0 5.383 5.383 0 12 0C18.617 0 24 5.383 24 12C24 14.881 22.958 17.667 21.065 19.85C21.0324 19.9057 20.9896 19.9549 20.939 19.995C19.8139 21.2529 18.4363 22.2597 16.8962 22.9498C15.356 23.6398 13.6877 23.9977 12 24ZM4.144 19.689C6.209 21.797 9.055 23 12 23C14.945 23 17.791 21.797 19.856 19.689C17.5122 18.2052 14.7835 17.4439 12.01 17.5C11.911 17.498 11.822 17.498 11.733 17.498C9.034 17.498 6.417 18.254 4.144 19.689ZM12.267 16.498C15.212 16.498 18.064 17.339 20.53 18.934C22.1257 16.9752 22.9979 14.5265 23 12C23 5.935 18.065 1 12 1C5.935 1 1 5.935 1 12C1 14.522 1.875 16.975 3.47 18.934C5.93173 17.3404 8.80249 16.4943 11.735 16.498L12.01 16.5L12.267 16.498Z" fill="currentColor"/>
</g>
<defs>
<clipPath id="clip0_1_113938">
<rect width="24" height="24" fill="white"/>
</clipPath>
</defs>
</svg>
