<svg width="24" height="24" viewBox="0 0 24 24" fill="none" xmlns="http://www.w3.org/2000/svg">
<path d="M12.4987 23C12.2866 22.9999 12.0814 22.9238 11.9188 22.7851C9.57465 20.747 7.40488 18.5093 5.43293 16.0962C3.5412 13.7801 2.69168 10.9273 3.10061 8.27C3.45616 5.96227 4.74445 3.98566 6.72757 2.70451C8.44864 1.59031 10.4455 0.99906 12.4842 1H12.515C14.5569 1 16.5472 1.58939 18.2716 2.70451C20.2556 3.98658 21.5439 5.96319 21.8995 8.27C22.3084 10.9273 21.458 13.7792 19.5671 16.0962C17.5963 18.5086 15.4274 20.7454 13.084 22.7823C12.9198 22.9223 12.7127 22.9993 12.4987 23ZM12.4842 1.92236C10.6142 1.92236 8.7912 2.46193 7.21249 3.48298C5.45193 4.62116 4.30839 6.37179 3.99445 8.41204C3.62534 10.8065 4.40338 13.3918 6.12775 15.5049C8.06585 17.8768 10.1984 20.0763 12.5023 22.0795C14.8026 20.0748 16.9329 17.8758 18.8705 15.5059C20.5958 13.3928 21.3738 10.8074 21.0047 8.41296C20.6908 6.37179 19.5472 4.62116 17.7867 3.48298C16.2102 2.46285 14.3813 1.92154 12.5141 1.92236H12.4842Z" fill="currentColor"/>
<path d="M13.0162 15.7568C12.822 15.7568 12.633 15.693 12.4772 15.5749C12.3214 15.4568 12.2071 15.2906 12.1513 15.101L11.2312 11.9751L8.16604 11.038C8.03718 10.9986 7.91861 10.9302 7.81905 10.838C7.71948 10.7457 7.64144 10.6319 7.59065 10.5049C7.54503 10.393 7.5217 10.273 7.52201 10.1519C7.52232 10.0308 7.54627 9.9109 7.59246 9.79929C7.63802 9.6873 7.70489 9.58563 7.78921 9.50014C7.87353 9.41465 7.97362 9.34704 8.08372 9.30122L15.8533 6.06006C16.0742 5.96714 16.3223 5.96729 16.543 6.06048C16.7638 6.15367 16.9394 6.33229 17.0312 6.55721C17.0775 6.66898 17.1014 6.789 17.1017 6.91029C17.102 7.03158 17.0787 7.15173 17.0331 7.26374L13.8548 15.1849C13.7865 15.3544 13.6703 15.4993 13.5209 15.6011C13.3716 15.703 13.1959 15.7571 13.0162 15.7568ZM8.4266 10.1553L11.7242 11.1635C11.7959 11.1854 11.8611 11.2251 11.914 11.279C11.9669 11.333 12.0058 11.3994 12.0273 11.4724L13.0171 14.8353L16.1953 6.91416L8.4266 10.1553Z" fill="currentColor"/>
</svg>
