<svg width="24" height="24" viewBox="0 0 24 24" fill="none" xmlns="http://www.w3.org/2000/svg">
<path d="M12 6C10.346 6 9 4.654 9 3C9 1.346 10.346 0 12 0C13.654 0 15 1.346 15 3C15 4.654 13.654 6 12 6ZM12 1C10.897 1 10 1.897 10 3C10 4.103 10.897 5 12 5C13.103 5 14 4.103 14 3C14 1.897 13.103 1 12 1Z" fill="currentColor"/>
<path d="M12 15C10.346 15 9 13.654 9 12C9 10.346 10.346 9 12 9C13.654 9 15 10.346 15 12C15 13.654 13.654 15 12 15ZM12 10C10.897 10 10 10.897 10 12C10 13.103 10.897 14 12 14C13.103 14 14 13.103 14 12C14 10.897 13.103 10 12 10Z" fill="currentColor"/>
<path d="M12 24C10.346 24 9 22.654 9 21C9 19.346 10.346 18 12 18C13.654 18 15 19.346 15 21C15 22.654 13.654 24 12 24ZM12 19C10.897 19 10 19.897 10 21C10 22.103 10.897 23 12 23C13.103 23 14 22.103 14 21C14 19.897 13.103 19 12 19Z" fill="currentColor"/>
</svg>
