<?xml version="1.0" encoding="UTF-8" standalone="no"?>
<svg
   width="24"
   height="24"
   viewBox="0 0 24 24"
   fill="none"
   version="1.1"
   id="svg9"
   sodipodi:docname="nf.svg"
   inkscape:version="1.3.2 (091e20e, 2023-11-25, custom)"
   xmlns:inkscape="http://www.inkscape.org/namespaces/inkscape"
   xmlns:sodipodi="http://sodipodi.sourceforge.net/DTD/sodipodi-0.dtd"
   xmlns="http://www.w3.org/2000/svg"
   xmlns:svg="http://www.w3.org/2000/svg">
  <defs
     id="defs9" />
  <sodipodi:namedview
     id="namedview9"
     pagecolor="#ffffff"
     bordercolor="#000000"
     borderopacity="0.25"
     inkscape:showpageshadow="2"
     inkscape:pageopacity="0.0"
     inkscape:pagecheckerboard="0"
     inkscape:deskcolor="#d1d1d1"
     inkscape:zoom="53.291667"
     inkscape:cx="11.990618"
     inkscape:cy="12"
     inkscape:window-width="2880"
     inkscape:window-height="1514"
     inkscape:window-x="-11"
     inkscape:window-y="-11"
     inkscape:window-maximized="1"
     inkscape:current-layer="svg9" />
  <path
     style="color:#000000;fill:currentColor;stroke-linecap:round;stroke-linejoin:round;-inkscape-stroke:none"
     d="m 6.5039062,12 c -0.5464129,0 -1,0.453636 -1,1 v 7 c 0,0.546364 0.4535871,1 1,1 h 9.9999998 c 0.546412,0 1,-0.453588 1,-1 v -7 c 0,-0.546412 -0.453588,-1 -1,-1 z m 0,1 h 9.9999998 v 7 H 6.5039062 Z"
     id="path1" />
  <path
     style="color:#000000;fill:currentColor;stroke-linecap:round;stroke-linejoin:round;-inkscape-stroke:none"
     d="m 6.0039062,14 a 0.5,0.5 0 0 0 -0.5,0.5 0.5,0.5 0 0 0 0.5,0.5 H 17.003906 a 0.5,0.5 0 0 0 0.5,-0.5 0.5,0.5 0 0 0 -0.5,-0.5 z"
     id="path2" />
  <path
     style="color:#000000;fill:currentColor;stroke-linecap:round;stroke-linejoin:round;-inkscape-stroke:none"
     d="m 9.0039063,12 a 0.5,0.5 0 0 0 -0.5,0.5 v 8 a 0.5,0.5 0 0 0 0.5,0.5 0.5,0.5 0 0 0 0.5,-0.5 v -8 a 0.5,0.5 0 0 0 -0.5,-0.5 z"
     id="path3" />
  <path
     style="color:#000000;fill:currentColor;stroke-linecap:round;stroke-linejoin:round;-inkscape-stroke:none"
     d="m 12.003906,12 a 0.5,0.5 0 0 0 -0.5,0.5 v 8 a 0.5,0.5 0 0 0 0.5,0.5 0.5,0.5 0 0 0 0.5,-0.5 v -8 a 0.5,0.5 0 0 0 -0.5,-0.5 z"
     id="path4" />
  <path
     style="color:#000000;fill:currentColor;stroke-linecap:round;stroke-linejoin:round;-inkscape-stroke:none"
     d="M 4,0 C 3.6023658,0 3.2206204,0.15829183 2.9394531,0.43945313 2.6583,0.72061672 2.5,1.102362 2.5,1.5 v 21 c 0,0.397628 0.1582278,0.779367 0.4394531,1.060547 C 3.2205897,23.841623 3.6023118,24 4,24 h 15 c 0.397678,0 0.779395,-0.158301 1.060547,-0.439453 C 20.341699,23.279395 20.5,22.897678 20.5,22.5 V 7.5 A 0.50005,0.50005 0 0 0 20.353516,7.1464844 l -7,-7.00000003 A 0.50005,0.50005 0 0 0 13,0 Z m 0,1 h 8.792969 L 19.5,7.7070312 V 22.5 c 0,0.132721 -0.05264,0.259668 -0.146484,0.353516 C 19.259668,22.947363 19.132721,23 19,23 H 4 C 3.8672488,23 3.7404275,22.947439 3.6464844,22.853516 3.5526501,22.759696 3.5,22.632772 3.5,22.5 V 1.5 C 3.5,1.3671985 3.5525779,1.2403944 3.6464844,1.1464844 3.7403967,1.052574 3.8671947,1 4,1 Z"
     id="path5" />
  <path
     style="color:#000000;fill:currentColor;stroke-linecap:round;stroke-linejoin:round;-inkscape-stroke:none"
     d="m 13,0 a 0.5,0.5 0 0 0 -0.5,0.5 v 6 c 0,0.3976882 0.158377,0.7794103 0.439453,1.0605469 C 13.220633,7.8417722 13.602372,8 14,8 h 6 A 0.5,0.5 0 0 0 20.5,7.5 0.5,0.5 0 0 0 20,7 H 14 C 13.867228,7 13.740304,6.9473499 13.646484,6.8535156 13.552561,6.7595725 13.5,6.6327512 13.5,6.5 v -6 A 0.5,0.5 0 0 0 13,0 Z"
     id="path6" />
  <path
     style="color:#000000;fill:currentColor;stroke-linecap:round;stroke-linejoin:round;-inkscape-stroke:none"
     d="M 8.0039063,8 A 0.5,0.5 0 0 0 7.5039062,8.5 v 1 a 0.5,0.5 0 0 0 0.5000001,0.5 0.5,0.5 0 0 0 0.5,-0.5 v -1 a 0.5,0.5 0 0 0 -0.5,-0.5 z"
     id="path7" />
  <path
     style="color:#000000;fill:currentColor;stroke-linecap:round;stroke-linejoin:round;-inkscape-stroke:none"
     d="M 8.0039063,3 A 0.5,0.5 0 0 0 7.5039062,3.5 v 1 a 0.5,0.5 0 0 0 0.5000001,0.5 0.5,0.5 0 0 0 0.5,-0.5 v -1 a 0.5,0.5 0 0 0 -0.5,-0.5 z"
     id="path8" />
  <path
     style="color:#000000;fill:currentColor;stroke-linecap:round;stroke-linejoin:round;-inkscape-stroke:none"
     d="M 7,4 C 6.602362,4 6.2206179,4.1583033 5.9394531,4.4394531 5.6583033,4.7206179 5.5,5.102362 5.5,5.5 5.5,5.897638 5.6583033,6.2793821 5.9394531,6.5605469 6.2206179,6.8416967 6.602362,7 7,7 H 9 C 9.1328015,7 9.2596008,7.0525745 9.3535156,7.1464844 9.4474255,7.2403992 9.5,7.3671985 9.5,7.5 9.5,7.6328015 9.4474255,7.7596008 9.3535156,7.8535156 9.2596008,7.9474255 9.1328015,8 9,8 H 6 A 0.5,0.5 0 0 0 5.5,8.5 0.5,0.5 0 0 0 6,9 H 9 C 9.397638,9 9.7793821,8.8416967 10.060547,8.5605469 10.341697,8.2793821 10.5,7.897638 10.5,7.5 10.5,7.102362 10.341697,6.7206179 10.060547,6.4394531 9.7793821,6.1583033 9.397638,6 9,6 H 7 C 6.8671985,6 6.7403992,5.9474255 6.6464844,5.8535156 6.5525745,5.7596008 6.5,5.6328015 6.5,5.5 6.5,5.3671985 6.5525745,5.2403992 6.6464844,5.1464844 6.7403992,5.0525745 6.8671985,5 7,5 h 3 A 0.5,0.5 0 0 0 10.5,4.5 0.5,0.5 0 0 0 10,4 Z"
     id="path9" />
</svg>
