<svg width="24" height="24" viewBox="0 0 24 24" fill="none" xmlns="http://www.w3.org/2000/svg">
<path d="M2.5 24C1.673 24 1 23.327 1 22.5V3.5C1 2.673 1.673 2 2.5 2H4V0.5C4 0.367392 4.05268 0.240215 4.14645 0.146447C4.24021 0.0526784 4.36739 0 4.5 0C4.63261 0 4.75979 0.0526784 4.85355 0.146447C4.94732 0.240215 5 0.367392 5 0.5V2H9V0.5C9 0.367392 9.05268 0.240215 9.14645 0.146447C9.24021 0.0526784 9.36739 0 9.5 0C9.63261 0 9.75979 0.0526784 9.85355 0.146447C9.94732 0.240215 10 0.367392 10 0.5V2H14V0.5C14 0.367392 14.0527 0.240215 14.1464 0.146447C14.2402 0.0526784 14.3674 0 14.5 0C14.6326 0 14.7598 0.0526784 14.8536 0.146447C14.9473 0.240215 15 0.367392 15 0.5V2H19V0.5C19 0.367392 19.0527 0.240215 19.1464 0.146447C19.2402 0.0526784 19.3674 0 19.5 0C19.6326 0 19.7598 0.0526784 19.8536 0.146447C19.9473 0.240215 20 0.367392 20 0.5V2H21.5C22.327 2 23 2.673 23 3.5V17.5C23 17.566 22.987 17.63 22.961 17.691C22.9363 17.7523 22.8992 17.8078 22.852 17.854L16.853 23.853C16.8068 23.8996 16.7518 23.9367 16.6912 23.9619C16.6306 23.9871 16.5656 24.0001 16.5 24H2.5ZM2.5 3C2.36739 3 2.24021 3.05268 2.14645 3.14645C2.05268 3.24021 2 3.36739 2 3.5V22.5C2 22.6326 2.05268 22.7598 2.14645 22.8536C2.24021 22.9473 2.36739 23 2.5 23H16V18.5C16 17.673 16.673 17 17.5 17H22V3.5C22 3.36739 21.9473 3.24021 21.8536 3.14645C21.7598 3.05268 21.6326 3 21.5 3H20V5C20 5.13261 19.9473 5.25979 19.8536 5.35355C19.7598 5.44732 19.6326 5.5 19.5 5.5C19.3674 5.5 19.2402 5.44732 19.1464 5.35355C19.0527 5.25979 19 5.13261 19 5V3H15V5C15 5.13261 14.9473 5.25979 14.8536 5.35355C14.7598 5.44732 14.6326 5.5 14.5 5.5C14.3674 5.5 14.2402 5.44732 14.1464 5.35355C14.0527 5.25979 14 5.13261 14 5V3H10V5C10 5.13261 9.94732 5.25979 9.85355 5.35355C9.75979 5.44732 9.63261 5.5 9.5 5.5C9.36739 5.5 9.24021 5.44732 9.14645 5.35355C9.05268 5.25979 9 5.13261 9 5V3H5V5C5 5.13261 4.94732 5.25979 4.85355 5.35355C4.75979 5.44732 4.63261 5.5 4.5 5.5C4.36739 5.5 4.24021 5.44732 4.14645 5.35355C4.05268 5.25979 4 5.13261 4 5V3H2.5ZM17.5 18C17.3674 18 17.2402 18.0527 17.1464 18.1464C17.0527 18.2402 17 18.3674 17 18.5V22.293L21.293 18H17.5Z" fill="currentColor"/>
<path d="M6.50001 11C6.4343 11.0001 6.36922 10.9873 6.30848 10.9623C6.24774 10.9372 6.19253 10.9004 6.14601 10.854L4.64601 9.35402C4.5759 9.28409 4.52814 9.19492 4.50877 9.09781C4.4894 9.00071 4.49931 8.90003 4.53723 8.80856C4.57514 8.71709 4.63937 8.63893 4.72176 8.584C4.80415 8.52907 4.90099 8.49985 5.00001 8.50002C5.06571 8.49991 5.1308 8.51274 5.19154 8.53779C5.25228 8.56284 5.30749 8.59962 5.35401 8.64602L6.50001 9.79302L9.14601 7.14702C9.19243 7.10053 9.24756 7.06365 9.30824 7.03846C9.36891 7.01328 9.43396 7.00029 9.49966 7.00024C9.56535 7.0002 9.63042 7.01309 9.69113 7.03819C9.75184 7.06329 9.80702 7.1001 9.85351 7.14652C9.9 7.19294 9.93689 7.24807 9.96207 7.30875C9.98725 7.36943 10.0002 7.43447 10.0003 7.50017C10.0003 7.56587 9.98744 7.63093 9.96234 7.69164C9.93724 7.75236 9.90043 7.80753 9.85401 7.85402L6.85401 10.854C6.80749 10.9004 6.75228 10.9372 6.69154 10.9623C6.6308 10.9873 6.56571 11.0001 6.50001 11Z" fill="currentColor"/>
<path d="M6.50001 16.5C6.4343 16.5001 6.36922 16.4873 6.30848 16.4623C6.24774 16.4372 6.19253 16.4004 6.14601 16.354L4.64601 14.854C4.5759 14.7841 4.52814 14.6949 4.50877 14.5978C4.4894 14.5007 4.49931 14.4 4.53723 14.3086C4.57514 14.2171 4.63937 14.1389 4.72176 14.084C4.80415 14.0291 4.90099 13.9998 5.00001 14C5.06571 13.9999 5.1308 14.0127 5.19154 14.0378C5.25228 14.0628 5.30749 14.0996 5.35401 14.146L6.50001 15.293L9.14601 12.647C9.19243 12.6005 9.24756 12.5636 9.30824 12.5385C9.36891 12.5133 9.43396 12.5003 9.49966 12.5002C9.56535 12.5002 9.63042 12.5131 9.69113 12.5382C9.75184 12.5633 9.80702 12.6001 9.85351 12.6465C9.9 12.6929 9.93689 12.7481 9.96207 12.8087C9.98725 12.8694 10.0002 12.9345 10.0003 13.0002C10.0003 13.0659 9.98744 13.1309 9.96234 13.1916C9.93724 13.2524 9.90043 13.3075 9.85401 13.354L6.85401 16.354C6.80749 16.4004 6.75228 16.4372 6.69154 16.4623C6.6308 16.4873 6.56571 16.5001 6.50001 16.5Z" fill="currentColor"/>
<path d="M11.5 10C11.3674 10 11.2402 9.94732 11.1464 9.85355C11.0527 9.75979 11 9.63261 11 9.5C11 9.36739 11.0527 9.24021 11.1464 9.14645C11.2402 9.05268 11.3674 9 11.5 9H18C18.1326 9 18.2598 9.05268 18.3536 9.14645C18.4473 9.24021 18.5 9.36739 18.5 9.5C18.5 9.63261 18.4473 9.75979 18.3536 9.85355C18.2598 9.94732 18.1326 10 18 10H11.5Z" fill="currentColor"/>
<path d="M11.5 15C11.3674 15 11.2402 14.9473 11.1464 14.8536C11.0527 14.7598 11 14.6326 11 14.5C11 14.3674 11.0527 14.2402 11.1464 14.1464C11.2402 14.0527 11.3674 14 11.5 14H18C18.1326 14 18.2598 14.0527 18.3536 14.1464C18.4473 14.2402 18.5 14.3674 18.5 14.5C18.5 14.6326 18.4473 14.7598 18.3536 14.8536C18.2598 14.9473 18.1326 15 18 15H11.5Z" fill="currentColor"/>
</svg>
