<svg width="24" height="24" viewBox="0 0 24 24" fill="none" xmlns="http://www.w3.org/2000/svg">
<path d="M2.50012 24C1.67312 24 1.00012 23.327 1.00012 22.5V3.5C1.00012 2.673 1.67312 2 2.50012 2H4.00012V0.5C4.00012 0.367392 4.0528 0.240215 4.14657 0.146447C4.24034 0.0526784 4.36751 0 4.50012 0C4.63273 0 4.75991 0.0526784 4.85368 0.146447C4.94744 0.240215 5.00012 0.367392 5.00012 0.5V2H9.00012V0.5C9.00012 0.367392 9.0528 0.240215 9.14657 0.146447C9.24034 0.0526784 9.36751 0 9.50012 0C9.63273 0 9.75991 0.0526784 9.85368 0.146447C9.94744 0.240215 10.0001 0.367392 10.0001 0.5V2H14.0001V0.5C14.0001 0.367392 14.0528 0.240215 14.1466 0.146447C14.2403 0.0526784 14.3675 0 14.5001 0C14.6327 0 14.7599 0.0526784 14.8537 0.146447C14.9474 0.240215 15.0001 0.367392 15.0001 0.5V2H19.0001V0.5C19.0001 0.367392 19.0528 0.240215 19.1466 0.146447C19.2403 0.0526784 19.3675 0 19.5001 0C19.6327 0 19.7599 0.0526784 19.8537 0.146447C19.9474 0.240215 20.0001 0.367392 20.0001 0.5V2H21.5001C22.3271 2 23.0001 2.673 23.0001 3.5V17.5C23.0001 17.566 22.9871 17.63 22.9611 17.691C22.9365 17.7523 22.8994 17.8078 22.8521 17.854L16.8531 23.853C16.8069 23.8996 16.752 23.9367 16.6914 23.9619C16.6308 23.9871 16.5658 24.0001 16.5001 24H2.50012ZM2.50012 3C2.36751 3 2.24034 3.05268 2.14657 3.14645C2.0528 3.24021 2.00012 3.36739 2.00012 3.5V22.5C2.00012 22.6326 2.0528 22.7598 2.14657 22.8536C2.24034 22.9473 2.36751 23 2.50012 23H16.0001V18.5C16.0001 17.673 16.6731 17 17.5001 17H22.0001V3.5C22.0001 3.36739 21.9474 3.24021 21.8537 3.14645C21.7599 3.05268 21.6327 3 21.5001 3H20.0001V5C20.0001 5.13261 19.9474 5.25979 19.8537 5.35355C19.7599 5.44732 19.6327 5.5 19.5001 5.5C19.3675 5.5 19.2403 5.44732 19.1466 5.35355C19.0528 5.25979 19.0001 5.13261 19.0001 5V3H15.0001V5C15.0001 5.13261 14.9474 5.25979 14.8537 5.35355C14.7599 5.44732 14.6327 5.5 14.5001 5.5C14.3675 5.5 14.2403 5.44732 14.1466 5.35355C14.0528 5.25979 14.0001 5.13261 14.0001 5V3H10.0001V5C10.0001 5.13261 9.94744 5.25979 9.85368 5.35355C9.75991 5.44732 9.63273 5.5 9.50012 5.5C9.36751 5.5 9.24034 5.44732 9.14657 5.35355C9.0528 5.25979 9.00012 5.13261 9.00012 5V3H5.00012V5C5.00012 5.13261 4.94744 5.25979 4.85368 5.35355C4.75991 5.44732 4.63273 5.5 4.50012 5.5C4.36751 5.5 4.24034 5.44732 4.14657 5.35355C4.0528 5.25979 4.00012 5.13261 4.00012 5V3H2.50012ZM17.5001 18C17.3675 18 17.2403 18.0527 17.1466 18.1464C17.0528 18.2402 17.0001 18.3674 17.0001 18.5V22.293L21.2931 18H17.5001Z" fill="currentColor"/>
<path d="M5.00028 13.0001C4.90126 13.0003 4.80442 12.9711 4.72203 12.9161C4.63964 12.8612 4.57542 12.783 4.5375 12.6916C4.49958 12.6001 4.48968 12.4994 4.50905 12.4023C4.52841 12.3052 4.57618 12.216 4.64628 12.1461L5.64628 11.1461C6.00828 10.7861 6.48828 10.5871 7.00028 10.5871C7.51228 10.5871 7.99228 10.7861 8.35328 11.1461C8.52628 11.3181 8.75528 11.4131 9.00028 11.4131C9.24528 11.4131 9.47428 11.3181 9.64728 11.1461C10.0083 10.7851 10.4893 10.5871 11.0003 10.5871C11.5113 10.5871 11.9923 10.7861 12.3533 11.1461C12.4381 11.2312 12.539 11.2985 12.6501 11.3444C12.7611 11.3902 12.8801 11.4136 13.0003 11.4131C13.1203 11.4135 13.2392 11.3902 13.35 11.3443C13.4609 11.2985 13.5616 11.2311 13.6463 11.1461C14.0073 10.7851 14.4883 10.5871 15.0003 10.5871C15.5123 10.5871 15.9923 10.7861 16.3543 11.1461C16.5263 11.3181 16.7563 11.4131 17.0003 11.4131C17.2443 11.4131 17.4743 11.3181 17.6463 11.1461L18.6463 10.1461C18.7162 10.076 18.8054 10.0282 18.9025 10.0089C18.9996 9.9895 19.1003 9.9994 19.1917 10.0373C19.2832 10.0752 19.3614 10.1395 19.4163 10.2218C19.4712 10.3042 19.5005 10.4011 19.5003 10.5001C19.5004 10.5658 19.4876 10.6309 19.4625 10.6916C19.4375 10.7524 19.4007 10.8076 19.3543 10.8541L18.3543 11.8541C17.9933 12.2151 17.5123 12.4141 17.0003 12.4141C16.4883 12.4141 16.0083 12.2151 15.6473 11.8551C15.4753 11.6831 15.2453 11.5881 15.0013 11.5881C14.7573 11.5881 14.5273 11.6831 14.3553 11.8551C13.9943 12.2161 13.5133 12.4141 13.0013 12.4141C12.4893 12.4141 12.0093 12.2151 11.6483 11.8551C11.4763 11.6831 11.2463 11.5881 11.0013 11.5881C10.7563 11.5881 10.5273 11.6831 10.3543 11.8551C9.99228 12.2141 9.51228 12.4131 9.00028 12.4131C8.48828 12.4131 8.00828 12.2141 7.64728 11.8541C7.47428 11.6821 7.24528 11.5871 7.00028 11.5871C6.75528 11.5871 6.52628 11.6821 6.35328 11.8541L5.35328 12.8541C5.30705 12.9006 5.25203 12.9375 5.19144 12.9625C5.13084 12.9876 5.06586 13.0004 5.00028 13.0001Z" fill="currentColor"/>
<path d="M5.00028 18.0001C4.90126 18.0003 4.80442 17.971 4.72203 17.9161C4.63964 17.8612 4.57542 17.783 4.5375 17.6916C4.49958 17.6001 4.48968 17.4994 4.50905 17.4023C4.52841 17.3052 4.57618 17.216 4.64628 17.1461L5.64628 16.1461C6.00828 15.7861 6.48928 15.5871 7.00028 15.5871C7.51128 15.5871 7.99228 15.7851 8.35328 16.1461C8.52628 16.3181 8.75528 16.4131 9.00028 16.4131C9.24528 16.4131 9.47428 16.3181 9.64728 16.1461C9.69365 16.0996 9.74874 16.0626 9.8094 16.0375C9.87006 16.0123 9.9351 15.9993 10.0008 15.9993C10.0665 15.9993 10.1315 16.0123 10.1922 16.0375C10.2528 16.0626 10.3079 16.0996 10.3543 16.1461C10.4478 16.2402 10.5004 16.3674 10.5004 16.5001C10.5004 16.6328 10.4478 16.76 10.3543 16.8541C9.99228 17.2141 9.51228 17.4131 9.00028 17.4131C8.48828 17.4131 8.00828 17.2141 7.64728 16.8541C7.47428 16.6821 7.24528 16.5871 7.00028 16.5871C6.75528 16.5871 6.52628 16.6821 6.35328 16.8541L5.35328 17.8541C5.30705 17.9006 5.25203 17.9375 5.19144 17.9625C5.13084 17.9876 5.06586 18.0004 5.00028 18.0001Z" fill="currentColor"/>
</svg>
