<svg width="24" height="24" viewBox="0 0 24 24" fill="none" xmlns="http://www.w3.org/2000/svg">
<path d="M1.5 21C0.673 21 0 20.327 0 19.4999V3.49917C0 2.67213 0.673 1.9991 1.5 1.9991H4V0.500024C4 0.367409 4.05268 0.240226 4.14645 0.146454C4.24021 0.0526809 4.36739 0 4.5 0C4.63261 0 4.75979 0.0526809 4.85355 0.146454C4.94732 0.240226 5 0.367409 5 0.500024V1.9991H8V0.500024C8 0.367409 8.05268 0.240226 8.14645 0.146454C8.24021 0.0526809 8.36739 0 8.5 0C8.63261 0 8.75979 0.0526809 8.85355 0.146454C8.94732 0.240226 9 0.367409 9 0.500024V1.9991H12V0.500024C12 0.367409 12.0527 0.240226 12.1464 0.146454C12.2402 0.0526809 12.3674 0 12.5 0C12.6326 0 12.7598 0.0526809 12.8536 0.146454C12.9473 0.240226 13 0.367409 13 0.500024V1.9991H15.5C16.327 1.9991 17 2.67213 17 3.49917V8.4994C17 8.63202 16.9473 8.7592 16.8536 8.85297C16.7598 8.94675 16.6326 8.99943 16.5 8.99943C16.3674 8.99943 16.2402 8.94675 16.1464 8.85297C16.0527 8.7592 16 8.63202 16 8.4994V3.49917C16 3.36655 15.9473 3.23937 15.8536 3.1456C15.7598 3.05182 15.6326 2.99914 15.5 2.99914H13V4.50021C13 4.63283 12.9473 4.76001 12.8536 4.85378C12.7598 4.94756 12.6326 5.00024 12.5 5.00024C12.3674 5.00024 12.2402 4.94756 12.1464 4.85378C12.0527 4.76001 12 4.63283 12 4.50021V2.99914H9V4.50021C9 4.63283 8.94732 4.76001 8.85355 4.85378C8.75979 4.94756 8.63261 5.00024 8.5 5.00024C8.36739 5.00024 8.24021 4.94756 8.14645 4.85378C8.05268 4.76001 8 4.63283 8 4.50021V2.99914H5V4.50021C5 4.63283 4.94732 4.76001 4.85355 4.85378C4.75979 4.94756 4.63261 5.00024 4.5 5.00024C4.36739 5.00024 4.24021 4.94756 4.14645 4.85378C4.05268 4.76001 4 4.63283 4 4.50021V2.99914H1.5C1.36739 2.99914 1.24021 3.05182 1.14645 3.1456C1.05268 3.23937 1 3.36655 1 3.49917V19.4999C1 19.6325 1.05268 19.7597 1.14645 19.8535C1.24021 19.9473 1.36739 20 1.5 20H9.5C9.63261 20 9.75979 20.0526 9.85355 20.1464C9.94732 20.2402 10 20.3674 10 20.5C10 20.6326 9.94732 20.7598 9.85355 20.8535C9.75979 20.9473 9.63261 21 9.5 21H1.5Z" fill="#A71E26"/>
<path d="M17.5 24C13.916 24 11 21.084 11 17.5C11 13.916 13.916 11 17.5 11C21.084 11 24 13.916 24 17.5C24 21.084 21.084 24 17.5 24ZM17.5 12C14.467 12 12 14.467 12 17.5C12 20.533 14.467 23 17.5 23C20.533 23 23 20.533 23 17.5C23 14.467 20.532 12 17.5 12Z" fill="#A71E26"/>
<path d="M19.523 19.9993C19.4603 19.9994 19.3982 19.9871 19.3403 19.9632C19.2824 19.9394 19.2298 19.9043 19.1854 19.86L17.4995 18.1742L15.8146 19.86C15.7703 19.9044 15.7178 19.9395 15.6599 19.9636C15.602 19.9876 15.54 20 15.4774 20C15.4147 20 15.3527 19.9877 15.2948 19.9638C15.2369 19.9399 15.1843 19.9048 15.14 19.8605C15.0956 19.8162 15.0605 19.7637 15.0364 19.7058C15.0124 19.648 15 19.5859 15 19.5233C15 19.4607 15.0123 19.3986 15.0362 19.3407C15.0601 19.2828 15.0952 19.2302 15.1395 19.1859L16.8254 17.5L15.1395 15.8141C15.0501 15.7246 14.9999 15.6032 15 15.4767C15.0001 15.3502 15.0504 15.2289 15.14 15.1395C15.2295 15.0501 15.3509 14.9999 15.4774 15C15.6039 15.0001 15.7252 15.0504 15.8146 15.14L17.4995 16.8258L19.1854 15.14C19.2297 15.0956 19.2822 15.0605 19.3401 15.0364C19.398 15.0124 19.46 15 19.5226 15C19.5853 15 19.6473 15.0123 19.7052 15.0362C19.7631 15.0601 19.8157 15.0952 19.86 15.1395C19.9044 15.1838 19.9395 15.2363 19.9636 15.2942C19.9876 15.352 20 15.4141 20 15.4767C20 15.5393 19.9877 15.6014 19.9638 15.6593C19.9399 15.7172 19.9048 15.7698 19.8605 15.8141L18.1746 17.5L19.8605 19.1859C19.927 19.2526 19.9723 19.3376 19.9906 19.43C20.0089 19.5224 19.9993 19.6182 19.9632 19.7052C19.9271 19.7923 19.866 19.8666 19.7876 19.919C19.7093 19.9713 19.6172 19.9992 19.523 19.9993Z" fill="#A71E26"/>
</svg>
