<svg width="24" height="24" viewBox="0 0 24 24" fill="none" xmlns="http://www.w3.org/2000/svg">
<path d="M1.5 21.001C0.673 21.001 0 20.328 0 19.501V3.50098C0 2.67398 0.673 2.00098 1.5 2.00098H4V0.500977C4 0.368368 4.05268 0.241191 4.14645 0.147423C4.24021 0.053655 4.36739 0.000976563 4.5 0.000976562C4.63261 0.000976563 4.75979 0.053655 4.85355 0.147423C4.94732 0.241191 5 0.368368 5 0.500977V2.00098H8V0.500977C8 0.368368 8.05268 0.241191 8.14645 0.147423C8.24021 0.053655 8.36739 0.000976563 8.5 0.000976562C8.63261 0.000976563 8.75979 0.053655 8.85355 0.147423C8.94732 0.241191 9 0.368368 9 0.500977V2.00098H12V0.500977C12 0.368368 12.0527 0.241191 12.1464 0.147423C12.2402 0.053655 12.3674 0.000976563 12.5 0.000976562C12.6326 0.000976563 12.7598 0.053655 12.8536 0.147423C12.9473 0.241191 13 0.368368 13 0.500977V2.00098H15.5C16.327 2.00098 17 2.67398 17 3.50098V8.50098C17 8.63358 16.9473 8.76076 16.8536 8.85453C16.7598 8.9483 16.6326 9.00098 16.5 9.00098C16.3674 9.00098 16.2402 8.9483 16.1464 8.85453C16.0527 8.76076 16 8.63358 16 8.50098V3.50098C16 3.36837 15.9473 3.24119 15.8536 3.14742C15.7598 3.05366 15.6326 3.00098 15.5 3.00098H13V4.50098C13 4.63358 12.9473 4.76076 12.8536 4.85453C12.7598 4.9483 12.6326 5.00098 12.5 5.00098C12.3674 5.00098 12.2402 4.9483 12.1464 4.85453C12.0527 4.76076 12 4.63358 12 4.50098V3.00098H9V4.50098C9 4.63358 8.94732 4.76076 8.85355 4.85453C8.75979 4.9483 8.63261 5.00098 8.5 5.00098C8.36739 5.00098 8.24021 4.9483 8.14645 4.85453C8.05268 4.76076 8 4.63358 8 4.50098V3.00098H5V4.50098C5 4.63358 4.94732 4.76076 4.85355 4.85453C4.75979 4.9483 4.63261 5.00098 4.5 5.00098C4.36739 5.00098 4.24021 4.9483 4.14645 4.85453C4.05268 4.76076 4 4.63358 4 4.50098V3.00098H1.5C1.36739 3.00098 1.24021 3.05366 1.14645 3.14742C1.05268 3.24119 1 3.36837 1 3.50098V19.501C1 19.6336 1.05268 19.7608 1.14645 19.8545C1.24021 19.9483 1.36739 20.001 1.5 20.001H9.5C9.63261 20.001 9.75979 20.0537 9.85355 20.1474C9.94732 20.2412 10 20.3684 10 20.501C10 20.6336 9.94732 20.7608 9.85355 20.8545C9.75979 20.9483 9.63261 21.001 9.5 21.001H1.5Z" fill="#002465"/>
<path d="M13.629 23.9997C13.4027 24.0007 13.1802 23.9418 12.9842 23.8288C12.7882 23.7159 12.6256 23.553 12.513 23.3567C12.4148 23.1854 12.3571 22.9938 12.3445 22.7967C12.3318 22.5996 12.3645 22.4022 12.44 22.2197L13.739 19.2317L11.409 17.1567C11.2226 16.9906 11.0909 16.7719 11.0313 16.5295C10.9717 16.287 10.987 16.0322 11.0751 15.7987C11.1633 15.5651 11.3202 15.3637 11.5251 15.2211C11.73 15.0784 11.9733 15.0013 12.223 14.9997L12.276 15.0007H14.928L16.339 11.7327C16.4493 11.5174 16.6165 11.3364 16.8224 11.2093C17.0283 11.0822 17.265 11.0139 17.507 11.0117C17.7405 11.0125 17.9695 11.0761 18.1699 11.1959C18.3703 11.3158 18.5348 11.4874 18.646 11.6927L18.665 11.7317L20.074 15.0007H22.74L22.78 14.9997C23.084 14.9997 23.378 15.1167 23.607 15.3297C23.849 15.5537 23.989 15.8587 24.001 16.1887C24.0083 16.3707 23.9751 16.552 23.9039 16.7195C23.8326 16.8871 23.7251 17.0368 23.589 17.1577L21.26 19.2327L22.555 22.2137C22.6374 22.4089 22.6703 22.6214 22.6507 22.8323C22.6312 23.0433 22.5598 23.2461 22.4429 23.4228C22.326 23.5994 22.1672 23.7445 21.9808 23.845C21.7943 23.9454 21.5858 23.9983 21.374 23.9987C21.147 23.9987 20.925 23.9397 20.73 23.8277L17.5 22.0077L14.266 23.8307C14.073 23.9407 13.852 23.9997 13.629 23.9997ZM12.237 15.9997C12.2025 15.9987 12.1683 16.0053 12.1367 16.019C12.1051 16.0326 12.0769 16.053 12.054 16.0787C12.0335 16.1016 12.0178 16.1283 12.0079 16.1574C11.9979 16.1864 11.9939 16.2171 11.996 16.2477C11.9977 16.2784 12.0054 16.3084 12.0188 16.336C12.0322 16.3637 12.051 16.3884 12.074 16.4087L14.675 18.7257C14.7537 18.7958 14.8082 18.8889 14.8308 18.9918C14.8535 19.0947 14.843 19.2021 14.801 19.2987L13.361 22.6117C13.3447 22.655 13.3391 22.7016 13.3447 22.7475C13.3503 22.7934 13.367 22.8373 13.3932 22.8754C13.4194 22.9135 13.4544 22.9447 13.4953 22.9664C13.5362 22.988 13.5817 22.9995 13.628 22.9997C13.6779 22.9997 13.727 22.9862 13.77 22.9607L17.254 20.9977C17.3291 20.9557 17.4138 20.9336 17.5 20.9336C17.5861 20.9336 17.6708 20.9557 17.746 20.9977L21.226 22.9587C21.2643 22.9813 21.3073 22.9949 21.3516 22.9984C21.396 23.0018 21.4406 22.9951 21.482 22.9787C21.5517 22.9495 21.6071 22.8939 21.636 22.824C21.6648 22.7541 21.6648 22.6756 21.636 22.6057L20.199 19.2997C20.1568 19.2033 20.1463 19.096 20.169 18.9932C20.1916 18.8905 20.2462 18.7975 20.325 18.7277L22.925 16.4107C22.9493 16.3889 22.9687 16.3623 22.9822 16.3325C22.9956 16.3028 23.0027 16.2705 23.003 16.2379C23.0032 16.2052 22.9967 16.1729 22.9838 16.1429C22.9709 16.1129 22.9519 16.0859 22.928 16.0637C22.8843 16.0222 22.8262 15.9993 22.766 15.9997H19.745C19.6472 15.9999 19.5515 15.9712 19.4698 15.9173C19.3882 15.8634 19.3243 15.7867 19.286 15.6967L17.758 12.1527C17.7308 12.1094 17.6933 12.0737 17.6487 12.0487C17.6042 12.0237 17.554 12.0103 17.503 12.0097C17.4487 12.0095 17.3954 12.024 17.3488 12.0516C17.3021 12.0793 17.2638 12.119 17.238 12.1667L15.716 15.6977C15.6773 15.7874 15.6132 15.8637 15.5317 15.9174C15.4501 15.9711 15.3546 15.9997 15.257 15.9997H12.237Z" fill="#002465"/>
</svg>
