<?xml version="1.0" encoding="UTF-8" standalone="no"?>
<svg
   width="24"
   height="24"
   viewBox="0 0 24 24"
   fill="none"
   version="1.1"
   id="svg2"
   sodipodi:docname="notification.svg"
   inkscape:version="1.3.2 (091e20e, 2023-11-25, custom)"
   xmlns:inkscape="http://www.inkscape.org/namespaces/inkscape"
   xmlns:sodipodi="http://sodipodi.sourceforge.net/DTD/sodipodi-0.dtd"
   xmlns="http://www.w3.org/2000/svg"
   xmlns:svg="http://www.w3.org/2000/svg">
  <sodipodi:namedview
     id="namedview2"
     pagecolor="#ffffff"
     bordercolor="#000000"
     borderopacity="0.25"
     inkscape:showpageshadow="2"
     inkscape:pageopacity="0.0"
     inkscape:pagecheckerboard="0"
     inkscape:deskcolor="#d1d1d1"
     inkscape:zoom="53.291667"
     inkscape:cx="11.990618"
     inkscape:cy="12"
     inkscape:window-width="2880"
     inkscape:window-height="1514"
     inkscape:window-x="-11"
     inkscape:window-y="-11"
     inkscape:window-maximized="1"
     inkscape:current-layer="g2" />
  <g
     clip-path="url(#clip0_1_114061)"
     id="g2">
    <path
       style="color:#000000;fill:currentColor;stroke-linecap:round;stroke-linejoin:round;-inkscape-stroke:none"
       d="m 11.998047,0.0234375 c -0.830661,0 -1.634775,0.29592654 -2.2675782,0.83398438 C 9.1900351,1.3169873 8.9010832,1.9749547 8.7167969,2.6542969 7.063825,3.3037156 5.6269927,4.4072473 4.6113281,5.8671875 3.5633308,7.3735989 3.0006459,9.1648861 3,11 v 6.5 C 3,18.163175 2.7365436,18.798621 2.2675781,19.267578 1.7985939,19.736554 1.1632209,20 0.5,20 v 1 h 23 A 0.50005,0.50005 0 0 0 23.927734,20.251953 0.50005,0.50005 0 0 0 23.5,20 C 22.836837,20 22.201386,19.736542 21.732422,19.267578 21.263458,18.798614 21,18.163163 21,17.5 V 11 C 20.997988,9.1647121 20.435348,7.3733745 19.386719,5.8671875 18.37052,4.4074248 16.932358,3.3038724 15.279297,2.6542969 15.095036,1.9749401 14.806112,1.31699 14.265625,0.85742188 13.632822,0.31936404 12.828708,0.0234375 11.998047,0.0234375 Z m 0,1 c 0.593538,0 1.166945,0.2112119 1.619141,0.5957031 0.452168,0.3844723 0.752308,0.9161896 0.847656,1.5019532 a 0.50005,0.50005 0 0 0 0.320312,0.3886718 C 16.314525,4.0776998 17.634346,5.0986014 18.566406,6.4375 19.498575,7.7764102 19.998212,9.3685314 20,11 v 6.5 c 0,0.928036 0.369156,1.818374 1.025391,2.474609 0.0108,0.0108 0.02618,0.01474 0.03711,0.02539 H 2.9375 c 0.010929,-0.01065 0.026306,-0.01459 0.037109,-0.02539 C 3.6308627,19.318368 4,18.428023 4,17.5 V 11 C 4.0005741,9.3688373 4.5001199,7.7764857 5.4316406,6.4375 6.3631513,5.0985246 7.6817928,4.0774809 9.2109375,3.5097656 A 0.50005,0.50005 0 0 0 9.53125,3.1210938 C 9.6266336,2.535315 9.9267757,2.0036162 10.378906,1.6191406 10.831102,1.2346494 11.404509,1.0234375 11.998047,1.0234375 Z"
       id="path1" />
    <path
       style="color:#000000;fill:currentColor;stroke-linecap:round;stroke-linejoin:round;-inkscape-stroke:none"
       d="m 9,20 a 0.5,0.5 0 0 0 -0.5,0.5 c 0,0.928023 0.3691373,1.818368 1.0253906,2.474609 C 10.181642,23.630837 11.071964,24 12,24 12.928036,24 13.818374,23.630844 14.474609,22.974609 15.130844,22.318374 15.5,21.428036 15.5,20.5 A 0.5,0.5 0 0 0 15,20 0.5,0.5 0 0 0 14.5,20.5 c 0,0.663163 -0.263458,1.298614 -0.732422,1.767578 C 13.298614,22.736542 12.663163,23 12,23 11.336837,23 10.70141,22.736549 10.232422,22.267578 9.7634564,21.798621 9.5,21.163175 9.5,20.5 A 0.5,0.5 0 0 0 9,20 Z"
       id="path2" />
  </g>
  <defs
     id="defs2">
    <clipPath
       id="clip0_1_114061">
      <rect
         width="24"
         height="24"
         fill="white"
         id="rect2" />
    </clipPath>
  </defs>
</svg>
