<svg width="24" height="24" viewBox="0 0 24 24" fill="none" xmlns="http://www.w3.org/2000/svg">
<path d="M3.5 24C2.673 24 2 23.327 2 22.5V1.5C2 0.673 2.673 0 3.5 0H15.525C17.2413 0.00211585 18.8867 0.684706 20.1005 1.89811C21.3143 3.11152 21.9974 4.75672 22 6.473V22.5C22 23.327 21.327 24 20.5 24H3.5ZM3.5 1C3.36739 1 3.24021 1.05268 3.14645 1.14645C3.05268 1.24021 3 1.36739 3 1.5V22.5C3 22.6326 3.05268 22.7598 3.14645 22.8536C3.24021 22.9473 3.36739 23 3.5 23H20.5C20.6326 23 20.7598 22.9473 20.8536 22.8536C20.9473 22.7598 21 22.6326 21 22.5V6.473C21 6.32 20.993 6.161 20.978 6H17.5C16.673 6 16 5.327 16 4.5V1.022C15.8421 1.00732 15.6836 0.999983 15.525 1H3.5ZM17 4.5C17 4.63261 17.0527 4.75979 17.1464 4.85355C17.2402 4.94732 17.3674 5 17.5 5H20.797C20.542 4.09506 20.0589 3.27072 19.3941 2.60591C18.7293 1.94109 17.9049 1.45804 17 1.203V4.5Z" fill="currentColor"/>
<path d="M8.49999 18.973C8.40704 18.9732 8.31588 18.9475 8.23674 18.8987C8.15761 18.8499 8.09363 18.7801 8.05199 18.697L6.99999 16.591L5.94699 18.696C5.91786 18.755 5.87734 18.8076 5.82777 18.8508C5.7782 18.894 5.72056 18.927 5.65817 18.9478C5.59578 18.9687 5.52989 18.9769 5.46429 18.9722C5.3987 18.9674 5.3347 18.9497 5.27599 18.92C5.2172 18.8907 5.16477 18.85 5.1217 18.8004C5.07862 18.7508 5.04574 18.6932 5.02494 18.6309C5.00413 18.5686 4.99582 18.5028 5.00046 18.4373C5.0051 18.3717 5.02261 18.3078 5.05199 18.249L6.43999 15.473L5.05199 12.697C5.0222 12.6383 5.00437 12.5743 4.99952 12.5087C4.99467 12.443 5.00291 12.3771 5.02374 12.3147C5.04458 12.2523 5.07761 12.1946 5.12091 12.145C5.16421 12.0955 5.21692 12.055 5.27599 12.026C5.33461 11.9962 5.39857 11.9783 5.46415 11.9734C5.52974 11.9685 5.59565 11.9766 5.65807 11.9973C5.72048 12.0181 5.77816 12.051 5.82775 12.0942C5.87735 12.1374 5.91788 12.19 5.94699 12.249L6.99999 14.355L8.05299 12.25C8.082 12.1909 8.12247 12.1382 8.17205 12.095C8.22163 12.0517 8.27932 12.0187 8.34177 11.9979C8.40422 11.9772 8.47018 11.9691 8.5358 11.9741C8.60142 11.979 8.66539 11.997 8.72399 12.027C8.84252 12.0864 8.93266 12.1904 8.97465 12.3162C9.01663 12.442 9.00705 12.5793 8.94799 12.698L7.55999 15.474L8.94799 18.25C8.98599 18.3263 9.00387 18.411 8.99994 18.4961C8.996 18.5812 8.97037 18.6639 8.92549 18.7364C8.88061 18.8088 8.81796 18.8686 8.74349 18.91C8.66902 18.9514 8.5852 18.9731 8.49999 18.973Z" fill="currentColor"/>
<path d="M11.5 18.973C10.673 18.973 10 18.3 10 17.473V12.473C10 12.3404 10.0527 12.2132 10.1464 12.1195C10.2402 12.0257 10.3674 11.973 10.5 11.973C10.6326 11.973 10.7598 12.0257 10.8536 12.1195C10.9473 12.2132 11 12.3404 11 12.473V17.473C11 17.6056 11.0527 17.7328 11.1464 17.8266C11.2402 17.9203 11.3674 17.973 11.5 17.973H13.5C13.6326 17.973 13.7598 18.0257 13.8536 18.1195C13.9473 18.2132 14 18.3404 14 18.473C14 18.6056 13.9473 18.7328 13.8536 18.8266C13.7598 18.9203 13.6326 18.973 13.5 18.973H11.5Z" fill="currentColor"/>
<path d="M15.5 18.973C15.3674 18.973 15.2402 18.9203 15.1465 18.8265C15.0527 18.7328 15 18.6056 15 18.473C15 18.3404 15.0527 18.2132 15.1465 18.1194C15.2402 18.0257 15.3674 17.973 15.5 17.973H17.194C17.3664 17.974 17.5345 17.9193 17.6733 17.8171C17.8121 17.7149 17.9143 17.5707 17.9646 17.4058C18.0149 17.2409 18.0107 17.0642 17.9526 16.9019C17.8945 16.7396 17.7856 16.6004 17.642 16.505L15.8 15.276C15.5488 15.1112 15.3429 14.8859 15.2014 14.6209C15.0599 14.3558 14.9872 14.0595 14.99 13.759C14.9909 13.5226 15.0386 13.2887 15.1302 13.0708C15.2219 12.8529 15.3557 12.6553 15.524 12.4893C15.6923 12.3233 15.8918 12.1922 16.1109 12.1036C16.3301 12.015 16.5646 11.9706 16.801 11.973H18.5C18.6326 11.973 18.7598 12.0257 18.8536 12.1194C18.9473 12.2132 19 12.3404 19 12.473C19 12.6056 18.9473 12.7328 18.8536 12.8265C18.7598 12.9203 18.6326 12.973 18.5 12.973H16.8C16.5878 12.9727 16.3841 13.0557 16.2326 13.2043C16.081 13.3528 15.9939 13.5549 15.99 13.767C15.9888 13.9007 16.0212 14.0327 16.0843 14.1506C16.1474 14.2685 16.2391 14.3687 16.351 14.442L18.194 15.671C18.5162 15.8846 18.7611 16.1962 18.8925 16.5598C19.0239 16.9233 19.0348 17.3195 18.9237 17.6897C18.8126 18.0599 18.5853 18.3846 18.2754 18.6157C17.9656 18.8468 17.5896 18.9721 17.203 18.973H15.5Z" fill="currentColor"/>
</svg>
