<svg width="24" height="24" viewBox="0 0 24 24" fill="none" xmlns="http://www.w3.org/2000/svg">
<path d="M9.5 12.499C8.30653 12.499 7.16193 12.0249 6.31802 11.181C5.47411 10.3371 5 9.1925 5 7.99902C5 6.80555 5.47411 5.66096 6.31802 4.81704C7.16193 3.97313 8.30653 3.49902 9.5 3.49902C11.981 3.49902 14 5.51802 14 7.99902C14 10.48 11.981 12.499 9.5 12.499ZM6.899 10.333C7.22527 10.7005 7.62586 10.9944 8.07425 11.1954C8.52264 11.3964 9.00861 11.4999 9.5 11.499C11.43 11.499 13 9.92902 13 7.99902C12.9974 7.15856 12.6931 6.34698 12.1425 5.71197C11.5919 5.07696 10.8316 4.66073 10 4.53902V7.99902C10.0002 8.08141 9.97996 8.16257 9.94103 8.23519C9.90211 8.3078 9.84574 8.3696 9.777 8.41502L6.899 10.333ZM9 4.53902C8.16839 4.66073 7.40812 5.07696 6.85753 5.71197C6.30694 6.34698 6.00264 7.15856 6 7.99902C6 8.51802 6.118 9.03202 6.343 9.50202L9 7.73102V4.53902Z" fill="currentColor"/>
<path d="M3.5 24C2.673 24 2 23.327 2 22.5V1.5C2 0.673 2.673 0 3.5 0H16.793C17.214 0.012 17.578 0.163 17.853 0.437L21.561 4.147C21.844 4.43 22 4.807 22 5.207V22.5C22 23.327 21.327 24 20.5 24H3.5ZM3.5 1C3.36739 1 3.24021 1.05268 3.14645 1.14645C3.05268 1.24021 3 1.36739 3 1.5V22.5C3 22.6326 3.05268 22.7598 3.14645 22.8536C3.24021 22.9473 3.36739 23 3.5 23H20.5C20.6326 23 20.7598 22.9473 20.8536 22.8536C20.9473 22.7598 21 22.6326 21 22.5V5.207C21.0001 5.07432 20.9476 4.94701 20.854 4.853L17.147 1.144C17.0524 1.05087 16.9247 0.999076 16.792 1H3.5Z" fill="currentColor"/>
<path d="M16 5.99902C15.8674 5.99902 15.7402 5.94634 15.6464 5.85258C15.5527 5.75881 15.5 5.63163 15.5 5.49902C15.5 5.36642 15.5527 5.23924 15.6464 5.14547C15.7402 5.0517 15.8674 4.99902 16 4.99902H18.5C18.6326 4.99902 18.7598 5.0517 18.8536 5.14547C18.9473 5.23924 19 5.36642 19 5.49902C19 5.63163 18.9473 5.75881 18.8536 5.85258C18.7598 5.94634 18.6326 5.99902 18.5 5.99902H16Z" fill="currentColor"/>
<path d="M5.5 14.999C5.36739 14.999 5.24021 14.9463 5.14645 14.8526C5.05268 14.7588 5 14.6316 5 14.499C5 14.3664 5.05268 14.2392 5.14645 14.1455C5.24021 14.0517 5.36739 13.999 5.5 13.999H18.5C18.6326 13.999 18.7598 14.0517 18.8536 14.1455C18.9473 14.2392 19 14.3664 19 14.499C19 14.6316 18.9473 14.7588 18.8536 14.8526C18.7598 14.9463 18.6326 14.999 18.5 14.999H5.5Z" fill="currentColor"/>
<path d="M5.5 17.999C5.36739 17.999 5.24021 17.9463 5.14645 17.8526C5.05268 17.7588 5 17.6316 5 17.499C5 17.3664 5.05268 17.2392 5.14645 17.1455C5.24021 17.0517 5.36739 16.999 5.5 16.999H18.5C18.6326 16.999 18.7598 17.0517 18.8536 17.1455C18.9473 17.2392 19 17.3664 19 17.499C19 17.6316 18.9473 17.7588 18.8536 17.8526C18.7598 17.9463 18.6326 17.999 18.5 17.999H5.5Z" fill="currentColor"/>
<path d="M5.5 20.999C5.36739 20.999 5.24021 20.9463 5.14645 20.8526C5.05268 20.7588 5 20.6316 5 20.499C5 20.3664 5.05268 20.2392 5.14645 20.1455C5.24021 20.0517 5.36739 19.999 5.5 19.999H18.5C18.6326 19.999 18.7598 20.0517 18.8536 20.1455C18.9473 20.2392 19 20.3664 19 20.499C19 20.6316 18.9473 20.7588 18.8536 20.8526C18.7598 20.9463 18.6326 20.999 18.5 20.999H5.5Z" fill="currentColor"/>
<path d="M16 8.99902C15.8674 8.99902 15.7402 8.94634 15.6464 8.85258C15.5527 8.75881 15.5 8.63163 15.5 8.49902C15.5 8.36641 15.5527 8.23924 15.6464 8.14547C15.7402 8.0517 15.8674 7.99902 16 7.99902H18.5C18.6326 7.99902 18.7598 8.0517 18.8536 8.14547C18.9473 8.23924 19 8.36641 19 8.49902C19 8.63163 18.9473 8.75881 18.8536 8.85258C18.7598 8.94634 18.6326 8.99902 18.5 8.99902H16Z" fill="currentColor"/>
<path d="M16 11.999C15.8674 11.999 15.7402 11.9463 15.6464 11.8526C15.5527 11.7588 15.5 11.6316 15.5 11.499C15.5 11.3664 15.5527 11.2392 15.6464 11.1455C15.7402 11.0517 15.8674 10.999 16 10.999H18.5C18.6326 10.999 18.7598 11.0517 18.8536 11.1455C18.9473 11.2392 19 11.3664 19 11.499C19 11.6316 18.9473 11.7588 18.8536 11.8526C18.7598 11.9463 18.6326 11.999 18.5 11.999H16Z" fill="currentColor"/>
</svg>
