<?xml version="1.0" encoding="UTF-8" standalone="no"?>
<svg
   width="24"
   height="24"
   viewBox="0 0 24 24"
   fill="none"
   version="1.1"
   id="svg6"
   sodipodi:docname="operation-1.svg"
   inkscape:version="1.3.2 (091e20e, 2023-11-25, custom)"
   xmlns:inkscape="http://www.inkscape.org/namespaces/inkscape"
   xmlns:sodipodi="http://sodipodi.sourceforge.net/DTD/sodipodi-0.dtd"
   xmlns="http://www.w3.org/2000/svg"
   xmlns:svg="http://www.w3.org/2000/svg">
  <defs
     id="defs6" />
  <sodipodi:namedview
     id="namedview6"
     pagecolor="#ffffff"
     bordercolor="#000000"
     borderopacity="0.25"
     inkscape:showpageshadow="2"
     inkscape:pageopacity="0.0"
     inkscape:pagecheckerboard="0"
     inkscape:deskcolor="#d1d1d1"
     inkscape:zoom="53.291667"
     inkscape:cx="11.990618"
     inkscape:cy="12"
     inkscape:window-width="2880"
     inkscape:window-height="1514"
     inkscape:window-x="-11"
     inkscape:window-y="-11"
     inkscape:window-maximized="1"
     inkscape:current-layer="svg6" />
  <path
     style="color:#000000;fill:currentColor;stroke-linecap:round;stroke-linejoin:round;-inkscape-stroke:none"
     d="m 3,1.75 c -1.0986469,0 -2,0.9013531 -2,2 v 16.5 c 0,1.098627 0.9013411,2 2,2 h 18 c 1.098639,0 2,-0.901361 2,-2 V 3.75 c 0,-1.0986589 -0.901373,-2 -2,-2 z m 0,1 h 18 c 0.558172,0 1,0.4418006 1,1 v 16.5 c 0,0.55816 -0.44184,1 -1,1 H 3 c -0.5581994,0 -1,-0.441828 -1,-1 V 3.75 c 0,-0.5582115 0.4417885,-1 1,-1 z"
     id="path1" />
  <path
     style="color:#000000;fill:currentColor;stroke-linecap:round;stroke-linejoin:round;-inkscape-stroke:none"
     d="M 1.5,6.25 A 0.5,0.5 0 0 0 1,6.75 0.5,0.5 0 0 0 1.5,7.25 h 21 A 0.5,0.5 0 0 0 23,6.75 0.5,0.5 0 0 0 22.5,6.25 Z"
     id="path2" />
  <path
     style="color:#000000;fill:currentColor;stroke-linecap:round;stroke-linejoin:round;-inkscape-stroke:none"
     d="m 8.25,12.25 a 0.5,0.5 0 0 0 -0.5,0.5 0.5,0.5 0 0 0 0.5,0.5 h 9 a 0.5,0.5 0 0 0 0.5,-0.5 0.5,0.5 0 0 0 -0.5,-0.5 z"
     id="path3" />
  <path
     style="color:#000000;fill:currentColor;stroke-linecap:round;stroke-linejoin:round;-inkscape-stroke:none"
     d="m 6.75,15.25 a 0.5,0.5 0 0 0 -0.5,0.5 0.5,0.5 0 0 0 0.5,0.5 h 9 a 0.5,0.5 0 0 0 0.5,-0.5 0.5,0.5 0 0 0 -0.5,-0.5 z"
     id="path4" />
  <path
     style="color:#000000;fill:currentColor;stroke-linecap:round;stroke-linejoin:round;-inkscape-stroke:none"
     d="M 11.408203,9.2753906 A 0.5,0.5 0 0 0 10.775391,9.5917969 L 7.7753906,18.591797 a 0.5,0.5 0 0 0 0.3164063,0.632812 0.5,0.5 0 0 0 0.6328125,-0.316406 L 11.724609,9.9082031 A 0.5,0.5 0 0 0 11.408203,9.2753906 Z"
     id="path5" />
  <path
     style="color:#000000;fill:currentColor;stroke-linecap:round;stroke-linejoin:round;-inkscape-stroke:none"
     d="m 15.158203,9.2753906 a 0.5,0.5 0 0 0 -0.632812,0.3164063 l -3,9.0000001 a 0.5,0.5 0 0 0 0.316406,0.632812 0.5,0.5 0 0 0 0.632812,-0.316406 l 3,-8.9999999 A 0.5,0.5 0 0 0 15.158203,9.2753906 Z"
     id="path6" />
</svg>
