<?xml version="1.0" encoding="UTF-8" standalone="no"?>
<svg
   width="24"
   height="24"
   viewBox="0 0 24 24"
   fill="none"
   version="1.1"
   id="svg2"
   sodipodi:docname="operation.svg"
   inkscape:version="1.3.2 (091e20e, 2023-11-25, custom)"
   xmlns:inkscape="http://www.inkscape.org/namespaces/inkscape"
   xmlns:sodipodi="http://sodipodi.sourceforge.net/DTD/sodipodi-0.dtd"
   xmlns="http://www.w3.org/2000/svg"
   xmlns:svg="http://www.w3.org/2000/svg">
  <sodipodi:namedview
     id="namedview2"
     pagecolor="#ffffff"
     bordercolor="#000000"
     borderopacity="0.25"
     inkscape:showpageshadow="2"
     inkscape:pageopacity="0.0"
     inkscape:pagecheckerboard="0"
     inkscape:deskcolor="#d1d1d1"
     inkscape:zoom="53.291667"
     inkscape:cx="11.990618"
     inkscape:cy="12"
     inkscape:window-width="2880"
     inkscape:window-height="1514"
     inkscape:window-x="-11"
     inkscape:window-y="-11"
     inkscape:window-maximized="1"
     inkscape:current-layer="g2" />
  <g
     clip-path="url(#clip0_1_113664)"
     id="g2">
    <path
       style="color:#000000;fill:currentColor;stroke-linecap:round;stroke-linejoin:round;-inkscape-stroke:none"
       d="M 15.181641,0.56054687 C 14.253849,0.56043023 13.363293,0.92809591 12.707031,1.5839844 L 1.1464844,13.144531 c -0.37482177,0.374942 -0.58593752,0.88396 -0.58593753,1.414063 10e-9,0.530102 0.21111576,1.039121 0.58593753,1.414062 l 6.8789062,6.88086 c 0.3749117,0.374778 0.8839016,0.585937 1.4140625,0.585937 0.5301543,0 1.0391509,-0.211159 1.4140629,-0.585937 l 11.560546,-11.5625 C 23.069971,10.634757 23.43957,9.7442232 23.439453,8.8164063 V 2.5605469 c 0,-0.5302143 -0.210989,-1.0391146 -0.585937,-1.4140625 C 22.47855,0.77150569 21.969673,0.56054688 21.439453,0.56054687 Z m 0,1.00000003 h 6.257812 c 0.26538,0 0.519397,0.105328 0.707031,0.2929687 0.187652,0.1876516 0.292969,0.4415864 0.292969,0.7070313 v 6.2558594 c 8.3e-5,0.6630614 -0.263731,1.2986377 -0.732422,1.7675777 l -11.560547,11.5625 c -0.1876874,0.187621 -0.441706,0.292969 -0.7070309,0.292969 -0.2653382,0 -0.5193435,-0.105348 -0.7070312,-0.292969 L 1.8535156,15.265625 C 1.6659179,15.077967 1.5605469,14.823891 1.5605469,14.558594 c 0,-0.264672 0.1062011,-0.517551 0.2929687,-0.705078 v -0.002 L 13.414063,2.2910156 C 13.883,1.8223452 14.518634,1.5604635 15.181641,1.5605469 Z"
       id="path1" />
    <path
       style="color:#000000;fill:currentColor;stroke-linecap:round;stroke-linejoin:round;-inkscape-stroke:none"
       d="m 17.689453,4.3105469 c -1.098627,0 -2,0.901341 -2,2 0,1.0986522 0.901369,2 2,2 1.098631,0 2,-0.9013478 2,-2 0,-1.098659 -0.901373,-2 -2,-2 z m 0,1 c 0.558172,0 1,0.4418006 1,1 0,0.5581861 -0.441832,1 -1,1 -0.558168,0 -1,-0.4418139 -1,-1 0,-0.5581994 0.441828,-1 1,-1 z"
       id="path2" />
  </g>
  <defs
     id="defs2">
    <clipPath
       id="clip0_1_113664">
      <rect
         width="24"
         height="24"
         fill="white"
         transform="matrix(-1 0 0 1 24 0)"
         id="rect2" />
    </clipPath>
  </defs>
</svg>
