<svg width="24" height="24" viewBox="0 0 24 24" fill="none" xmlns="http://www.w3.org/2000/svg">
<g clip-path="url(#clip0_1_113962)">
<path d="M6.14002 24C5.98825 23.9996 5.83856 23.9647 5.70225 23.8979C5.56594 23.8312 5.44657 23.7344 5.35315 23.6148C5.25973 23.4951 5.19471 23.3559 5.16298 23.2075C5.13126 23.059 5.13366 22.9054 5.17002 22.758L7.86002 12H6.37702C5.93202 12 5.53702 11.701 5.41502 11.274L3.70102 5.274C3.65905 5.1252 3.65208 4.96871 3.68066 4.81677C3.70924 4.66483 3.77259 4.52157 3.86575 4.39819C3.95892 4.27481 4.07937 4.17466 4.21768 4.10558C4.35599 4.0365 4.50841 4.00037 4.66302 4H6.50002V1.5C6.50002 1.36739 6.5527 1.24021 6.64646 1.14645C6.74023 1.05268 6.86741 1 7.00002 1C7.13262 1 7.2598 1.05268 7.35357 1.14645C7.44734 1.24021 7.50002 1.36739 7.50002 1.5V4H11.5V0.5C11.5 0.367392 11.5527 0.240215 11.6465 0.146447C11.7402 0.0526784 11.8674 0 12 0C12.1326 0 12.2598 0.0526784 12.3536 0.146447C12.4473 0.240215 12.5 0.367392 12.5 0.5V4H16.5V1.5C16.5 1.36739 16.5527 1.24021 16.6465 1.14645C16.7402 1.05268 16.8674 1 17 1C17.1326 1 17.2598 1.05268 17.3536 1.14645C17.4473 1.24021 17.5 1.36739 17.5 1.5V4H19.337C19.604 4 19.855 4.104 20.044 4.293C20.1707 4.41854 20.2612 4.57589 20.3061 4.74851C20.351 4.92113 20.3485 5.10265 20.299 5.274L18.585 11.274C18.5248 11.4828 18.3985 11.6665 18.2251 11.7974C18.0516 11.9283 17.8403 11.9994 17.623 12H16.14L18.829 22.758C18.8664 22.9053 18.8695 23.0593 18.8383 23.208C18.807 23.3568 18.7422 23.4964 18.6487 23.6163C18.5551 23.7361 18.4355 23.833 18.2988 23.8995C18.1621 23.966 18.012 24.0004 17.86 24H6.14002ZM6.14002 23H17.86L15.11 12H14.5C14.3674 12 14.2402 11.9473 14.1465 11.8536C14.0527 11.7598 14 11.6326 14 11.5C14 11.3674 14.0527 11.2402 14.1465 11.1464C14.2402 11.0527 14.3674 11 14.5 11H17.623L17.909 10H6.09102L6.37702 11H9.50002C9.63263 11 9.7598 11.0527 9.85357 11.1464C9.94734 11.2402 10 11.3674 10 11.5C10 11.6326 9.94734 11.7598 9.85357 11.8536C9.7598 11.9473 9.63263 12 9.50002 12H8.89002L6.14002 23ZM18.195 9L18.766 7H15.5V9H18.195ZM14.5 9V7H9.50002V9H14.5ZM8.50002 9V7H5.23402L5.80502 9H8.50002ZM19.052 6L19.338 5H4.66202L4.94802 6H19.052Z" fill="currentColor"/>
</g>
<defs>
<clipPath id="clip0_1_113962">
<rect width="24" height="24" fill="white"/>
</clipPath>
</defs>
</svg>
