<svg width="24" height="24" viewBox="0 0 24 24" fill="none" xmlns="http://www.w3.org/2000/svg">
<g clip-path="url(#clip0_1_113965)">
<path d="M19.505 8.258C19.4245 8.25808 19.3451 8.23872 19.2737 8.20156C19.2023 8.1644 19.1409 8.11054 19.0947 8.04456C19.0486 7.97859 19.0191 7.90244 19.0086 7.8226C18.9982 7.74276 19.0073 7.66159 19.035 7.586C19.644 5.92108 19.6468 4.09479 19.043 2.428C19.0157 2.35259 19.007 2.27172 19.0175 2.19223C19.0281 2.11274 19.0576 2.03695 19.1036 1.97126C19.1496 1.90557 19.2107 1.8519 19.2817 1.81479C19.3528 1.77767 19.4318 1.75819 19.512 1.758C19.721 1.758 19.91 1.89 19.982 2.087C20.6659 3.97511 20.6631 6.04376 19.974 7.93C19.9388 8.0261 19.8749 8.10908 19.791 8.16773C19.7072 8.22639 19.6073 8.2579 19.505 8.258Z" fill="currentColor"/>
<path d="M21.528 9.89999C21.4442 9.89996 21.3617 9.87884 21.2881 9.83858C21.2146 9.79833 21.1524 9.74022 21.1071 9.66962C21.0619 9.59902 21.0352 9.51818 21.0294 9.43454C21.0236 9.35091 21.039 9.26716 21.074 9.19099C21.6888 7.8614 22.0039 6.41298 21.9972 4.94816C21.9904 3.48333 21.662 2.03787 21.035 0.713994C20.9874 0.595531 20.9868 0.463355 21.0333 0.344465C21.0799 0.225576 21.1701 0.128945 21.2855 0.0743099C21.4009 0.019675 21.5328 0.0111591 21.6542 0.0505018C21.7757 0.0898446 21.8775 0.174077 21.939 0.285994C22.6286 1.74197 22.9899 3.33169 22.9974 4.94271C23.0048 6.55374 22.6582 8.14672 21.982 9.60899C21.942 9.69582 21.8781 9.76937 21.7976 9.82094C21.7171 9.87252 21.6236 9.89995 21.528 9.89999Z" fill="currentColor"/>
<path d="M4.49498 8.25801C4.39256 8.25769 4.29268 8.22611 4.20869 8.1675C4.1247 8.10888 4.06061 8.02603 4.02498 7.93001C3.33668 6.0441 3.33314 3.97626 4.01498 2.08801C4.06055 1.96372 4.15337 1.86247 4.27323 1.80628C4.39309 1.75009 4.5303 1.74353 4.65498 1.78801C4.7796 1.83314 4.8812 1.9259 4.93745 2.04591C4.9937 2.16592 5.00001 2.30335 4.95498 2.42801C4.3532 4.09529 4.35674 5.92107 4.96498 7.58601C4.99267 7.66161 5.0017 7.74278 4.9913 7.82262C4.9809 7.90245 4.95137 7.9786 4.90522 8.04458C4.85908 8.11055 4.79768 8.16441 4.72626 8.20157C4.65483 8.23873 4.57549 8.25809 4.49498 8.25801Z" fill="currentColor"/>
<path d="M2.47199 9.90001C2.37647 9.89972 2.28302 9.87219 2.2026 9.82064C2.12218 9.7691 2.05814 9.69568 2.01799 9.60901C1.34182 8.14673 0.995189 6.55375 1.00262 4.94273C1.01005 3.3317 1.37136 1.74198 2.06099 0.286008C2.11813 0.166739 2.22004 0.0748381 2.34455 0.0302739C2.46907 -0.0142903 2.60614 -0.00791733 2.72599 0.048008C2.78544 0.0760103 2.83879 0.115458 2.88299 0.164096C2.92718 0.212734 2.96136 0.269606 2.98355 0.331462C3.00575 0.393318 3.01554 0.458942 3.01235 0.524583C3.00917 0.590224 2.99307 0.654593 2.96499 0.714008C2.33821 2.03794 2.00985 3.48338 2.00311 4.94817C1.99638 6.41296 2.31142 7.86136 2.92599 9.19101C2.96103 9.26717 2.97636 9.35092 2.97057 9.43456C2.96478 9.5182 2.93805 9.59903 2.89284 9.66964C2.84763 9.74024 2.78539 9.79834 2.71185 9.8386C2.63831 9.87885 2.55583 9.89997 2.47199 9.90001Z" fill="currentColor"/>
<path d="M14 24C13.9883 24 13.9766 23.999 13.965 23.997L10.03 23.998L10 24C9.98828 24 9.97657 23.999 9.96501 23.997L3.63501 23.998C3.48307 23.9978 3.33316 23.963 3.19666 23.8963C3.06016 23.8296 2.94064 23.7326 2.84717 23.6128C2.75369 23.4931 2.68871 23.3536 2.65715 23.2049C2.62559 23.0563 2.62827 22.9025 2.66501 22.755L4.32101 16.134C4.40201 15.8095 4.58924 15.5213 4.8529 15.3155C5.11656 15.1096 5.4415 14.9979 5.77601 14.998H7.50001V12.5C7.50001 11.673 8.17301 11 9.00001 11H11.495V8.99802H8.99501C8.33213 8.99749 7.69655 8.73392 7.22783 8.2652C6.7591 7.79647 6.49554 7.16089 6.49501 6.49802V3.49802C6.49501 2.11902 7.61601 0.998016 8.99501 0.998016H14.995C16.373 0.998016 17.495 2.11902 17.495 3.49802V6.49802C17.495 7.87702 16.373 8.99802 14.995 8.99802H12.495V11H15C15.827 11 16.5 11.673 16.5 12.5V14.998H18.214C18.903 14.998 19.501 15.465 19.669 16.133L21.325 22.755C21.3573 22.8822 21.364 23.0145 21.3447 23.1442C21.3255 23.274 21.2807 23.3987 21.213 23.511C21.1248 23.6598 20.9992 23.7831 20.8487 23.8685C20.6982 23.9539 20.528 23.9985 20.355 23.998H14.03L14 24ZM20.355 22.998L18.699 16.376C18.6718 16.268 18.6093 16.1721 18.5215 16.1036C18.4336 16.0352 18.3254 15.998 18.214 15.998H16.03L16 16C15.9883 16 15.9766 15.999 15.965 15.997L8.03001 15.998C8.00841 16.001 7.9865 16.0006 7.96501 15.997L5.77601 15.998C5.66461 15.998 5.5564 16.0352 5.46853 16.1036C5.38067 16.1721 5.31819 16.268 5.29101 16.376L3.63501 22.997L9.50001 22.998V19C9.50001 18.448 9.94901 18 10.5 18H13.5C13.7652 18 14.0196 18.1054 14.2071 18.2929C14.3947 18.4804 14.5 18.7348 14.5 19V22.998H20.355ZM13.5 22.998V19H10.5V22.998H13.5ZM15.5 14.998V12.5C15.5 12.3674 15.4473 12.2402 15.3536 12.1465C15.2598 12.0527 15.1326 12 15 12H9.00001C8.8674 12 8.74022 12.0527 8.64645 12.1465C8.55269 12.2402 8.50001 12.3674 8.50001 12.5V14.998H15.5ZM14.995 7.99802C15.822 7.99802 16.495 7.32502 16.495 6.49802V3.49802C16.495 2.67102 15.822 1.99802 14.995 1.99802H14.495V7.99802H14.995ZM13.495 7.99802V1.99802H10.495V7.99802H13.495ZM8.99501 1.99802C8.16801 1.99802 7.49501 2.67102 7.49501 3.49802V6.49802C7.49501 7.32502 8.16801 7.99802 8.99501 7.99802H9.49501V1.99802H8.99501Z" fill="currentColor"/>
</g>
<defs>
<clipPath id="clip0_1_113965">
<rect width="24" height="24" fill="white"/>
</clipPath>
</defs>
</svg>
