<svg width="24" height="24" viewBox="0 0 24 24" fill="none" xmlns="http://www.w3.org/2000/svg">
<g clip-path="url(#clip0_1_113844)">
<path d="M9.273 15.227C9.20118 15.2275 9.1301 15.2124 9.06466 15.1828C8.99922 15.1533 8.94097 15.1098 8.89393 15.0556C8.84688 15.0013 8.81216 14.9375 8.79214 14.8685C8.77213 14.7995 8.76731 14.727 8.778 14.656L9.321 10.861C9.33636 10.754 9.38581 10.6547 9.462 10.578L19.22 0.81999C19.4733 0.555622 19.7765 0.34411 20.1121 0.197693C20.4476 0.0512769 20.8089 -0.0271366 21.175 -0.0330096H21.224C21.9581 -0.0350117 22.6636 0.251135 23.1889 0.763899C23.7142 1.27666 24.0173 1.97509 24.033 2.70899C24.0416 3.07682 23.9771 3.4427 23.8434 3.78547C23.7097 4.12824 23.5094 4.44111 23.254 4.70599L13.422 14.538C13.3461 14.6147 13.2469 14.6643 13.14 14.679L9.344 15.222C9.32052 15.2257 9.29677 15.2274 9.273 15.227ZM9.863 14.138L12.833 13.713L22.532 4.01399C22.866 3.66599 23.044 3.20999 23.034 2.72999C23.0299 2.49352 22.9789 2.26021 22.8839 2.04358C22.789 1.82696 22.6521 1.63132 22.481 1.46799C22.1474 1.14346 21.6994 0.963454 21.234 0.96699H21.197C20.717 0.97699 20.269 1.17299 19.936 1.51999L10.289 11.168L9.863 14.138Z" fill="black"/>
<path d="M2.5 24C1.8372 23.9992 1.20178 23.7356 0.73311 23.2669C0.264441 22.7982 0.000793929 22.1628 0 21.5L0 7.5C0 6.122 1.122 5 2.5 5H12C12.1326 5 12.2598 5.05268 12.3536 5.14645C12.4473 5.24021 12.5 5.36739 12.5 5.5C12.5 5.63261 12.4473 5.75979 12.3536 5.85355C12.2598 5.94732 12.1326 6 12 6H2.5C1.673 6 1 6.673 1 7.5V21.5C1 22.327 1.673 23 2.5 23H16.5C17.327 23 18 22.327 18 21.5V12C18 11.8674 18.0527 11.7402 18.1464 11.6464C18.2402 11.5527 18.3674 11.5 18.5 11.5C18.6326 11.5 18.7598 11.5527 18.8536 11.6464C18.9473 11.7402 19 11.8674 19 12V21.5C19 22.878 17.878 24 16.5 24H2.5Z" fill="black"/>
</g>
<defs>
<clipPath id="clip0_1_113844">
<rect width="24" height="24" fill="white"/>
</clipPath>
</defs>
</svg>
