<?xml version="1.0" encoding="UTF-8" standalone="no"?>
<svg
   width="24"
   height="24"
   viewBox="0 0 24 24"
   fill="none"
   version="1.1"
   id="svg3"
   sodipodi:docname="pencil.svg"
   inkscape:version="1.3.2 (091e20e, 2023-11-25, custom)"
   xmlns:inkscape="http://www.inkscape.org/namespaces/inkscape"
   xmlns:sodipodi="http://sodipodi.sourceforge.net/DTD/sodipodi-0.dtd"
   xmlns="http://www.w3.org/2000/svg"
   xmlns:svg="http://www.w3.org/2000/svg">
  <sodipodi:namedview
     id="namedview3"
     pagecolor="#ffffff"
     bordercolor="#000000"
     borderopacity="0.25"
     inkscape:showpageshadow="2"
     inkscape:pageopacity="0.0"
     inkscape:pagecheckerboard="0"
     inkscape:deskcolor="#d1d1d1"
     inkscape:zoom="30.791667"
     inkscape:cx="11.983762"
     inkscape:cy="12"
     inkscape:window-width="2880"
     inkscape:window-height="1514"
     inkscape:window-x="-11"
     inkscape:window-y="-11"
     inkscape:window-maximized="1"
     inkscape:current-layer="g3" />
  <g
     clip-path="url(#clip0_1_113867)"
     id="g3">
    <path
       style="color:#000000;fill:currentColor;stroke-linecap:round;stroke-linejoin:round;-inkscape-stroke:none"
       d="M 17.318359,1.7324219 2.2675781,16.783203 a 0.50005,0.50005 0 0 0 0,0.707031 l 4.2421875,4.242188 a 0.50005,0.50005 0 0 0 0.7070313,0 L 22.267578,6.6816406 a 0.50005,0.50005 0 0 0 0,-0.7070312 L 18.025391,1.7324219 a 0.50005,0.50005 0 0 0 -0.707032,0 z M 17.671875,2.7929688 21.207031,6.328125 6.8632812,20.671875 3.328125,17.136719 Z"
       id="path1" />
    <path
       style="color:#000000;fill:currentColor;stroke-linecap:round;stroke-linejoin:round;-inkscape-stroke:none"
       d="m 2.5058594,16.650391 a 0.50005,0.50005 0 0 0 -0.359375,0.328125 l -2.12109377,6.363281 a 0.50005,0.50005 0 0 0 0.63281249,0.632812 L 7.0214844,21.853516 A 0.50005,0.50005 0 0 0 7.2167969,21.025391 L 2.9746094,16.783203 a 0.50005,0.50005 0 0 0 -0.46875,-0.132812 z M 2.8398438,18.0625 5.9375,21.160156 1.2910156,22.708984 Z"
       id="path2" />
    <path
       style="color:#000000;fill:currentColor;stroke-linecap:round;stroke-linejoin:round;-inkscape-stroke:none"
       d="M 20.494141,0.03710937 C 19.576626,0.02913565 18.691219,0.38210556 18.03125,1.0195312 a 0.50005,0.50005 0 0 0 -0.0059,0.00586 l -0.707032,0.7070313 a 0.50005,0.50005 0 0 0 0,0.7070312 l 4.242188,4.2421875 a 0.50005,0.50005 0 0 0 0.707031,0 l 0.707031,-0.7070312 a 0.50005,0.50005 0 0 0 0.0059,-0.00586 C 23.61792,5.308775 23.970939,4.4233984 23.962891,3.5058594 23.954959,2.588342 23.586274,1.7112969 22.9375,1.0625 22.288648,0.41373111 21.411655,0.04508193 20.494141,0.03710937 Z m -0.0098,1.00000003 c 0.655684,0.0057 1.282347,0.2687339 1.746094,0.7324218 0.463625,0.4636421 0.726753,1.0904327 0.732422,1.7460938 0.0058,0.6556394 -0.245625,1.2861686 -0.701172,1.7578125 L 21.914062,5.6210937 18.378906,2.0859375 18.726562,1.7382812 c 0.47163,-0.4555192 1.102129,-0.7068701 1.757813,-0.7011718 z"
       id="path3" />
  </g>
  <defs
     id="defs3">
    <clipPath
       id="clip0_1_113867">
      <rect
         width="24"
         height="24"
         fill="white"
         id="rect3" />
    </clipPath>
  </defs>
</svg>
