<svg width="24" height="24" viewBox="0 0 24 24" fill="none" xmlns="http://www.w3.org/2000/svg">
<g clip-path="url(#clip0_1_113620)">
<path d="M16.484 23.997C15.556 23.997 14.621 23.917 13.703 23.76C13.6658 23.7577 13.6289 23.7513 13.593 23.741C7.979 22.739 3.348 19 1.204 13.737C-0.429002 9.75353 -0.429002 5.28746 1.204 1.30399C1.413 0.784995 1.814 0.378995 2.33 0.159995C2.58375 0.0517864 2.85645 -0.0049926 3.1323 -0.00705246C3.40815 -0.00911232 3.68166 0.0435879 3.937 0.147995C4.199 0.253995 4.433 0.408995 4.633 0.608995L9.284 5.25999C9.896 5.87199 10.233 6.68499 10.233 7.54999C10.233 8.415 9.896 9.229 9.285 9.84L8.21 10.915C7.027 12.096 5.788 12.695 4.526 12.695C3.54 12.695 2.536 12.328 1.532 11.604C2.24469 14.1943 3.61825 16.555 5.51804 18.4546C7.41782 20.3542 9.77862 21.7275 12.369 22.44C10.706 20.14 10.938 17.9 13.066 15.773L14.141 14.698C14.4412 14.3963 14.7982 14.1571 15.1915 13.9944C15.5848 13.8317 16.0064 13.7486 16.432 13.75C17.298 13.75 18.111 14.086 18.722 14.697L23.373 19.348C23.769 19.744 23.988 20.272 23.988 20.833C23.988 21.394 23.77 21.921 23.373 22.318C23.1745 22.5166 22.9382 22.6733 22.678 22.779C20.7122 23.5838 18.6082 23.9975 16.484 23.997ZM13.974 22.792C16.7839 23.2573 19.6679 22.9325 22.304 21.854C22.5075 21.7725 22.6818 21.6316 22.8041 21.4497C22.9265 21.2678 22.9913 21.0532 22.99 20.834C22.99 20.54 22.875 20.264 22.667 20.056L18.016 15.405C17.8084 15.1966 17.5615 15.0313 17.2896 14.9189C17.0177 14.8065 16.7262 14.7491 16.432 14.75C15.833 14.75 15.271 14.983 14.849 15.405L13.774 16.48C11.725 18.528 11.788 20.535 13.974 22.792ZM1.181 9.99899C2.337 11.121 3.461 11.69 4.523 11.69C5.53 11.69 6.505 11.205 7.503 10.209L8.578 9.134C9.001 8.71 9.234 8.14799 9.234 7.54999C9.234 6.95199 9.001 6.38999 8.578 5.96699L3.927 1.31499C3.71966 1.11019 3.44043 0.994627 3.149 0.992995C2.92998 0.993314 2.71603 1.05895 2.53452 1.1815C2.353 1.30406 2.21216 1.47797 2.13 1.68099C1.05279 4.31313 0.724354 7.19186 1.181 9.99899Z" fill="currentColor"/>
</g>
<defs>
<clipPath id="clip0_1_113620">
<rect width="24" height="24" fill="white"/>
</clipPath>
</defs>
</svg>
