<svg width="24" height="24" viewBox="0 0 24 24" fill="none" xmlns="http://www.w3.org/2000/svg">
<g clip-path="url(#clip0_1_114016)">
<path d="M1.5 24C0.673 24 0 23.327 0 22.5V5.5C0 4.673 0.673 4 1.5 4H3V1.5C3 0.673 3.673 0 4.5 0H22.5C23.327 0 24 0.673 24 1.5V19.5C24 20.327 23.327 21 22.5 21H20V22.5C20 23.327 19.327 24 18.5 24H1.5ZM1.5 5C1.36739 5 1.24021 5.05268 1.14645 5.14645C1.05268 5.24021 1 5.36739 1 5.5V22.5C1 22.6326 1.05268 22.7598 1.14645 22.8536C1.24021 22.9473 1.36739 23 1.5 23H18.5C18.6326 23 18.7598 22.9473 18.8536 22.8536C18.9473 22.7598 19 22.6326 19 22.5V21H4.5C3.673 21 3 20.327 3 19.5V5H1.5ZM4 19.5C4 19.6326 4.05268 19.7598 4.14645 19.8536C4.24021 19.9473 4.36739 20 4.5 20H22.5C22.6326 20 22.7598 19.9473 22.8536 19.8536C22.9473 19.7598 23 19.6326 23 19.5V16.997H21.037C21.0098 17.0012 20.9821 17.0008 20.955 16.996L4 16.997V19.5ZM23 15.997V1.5C23 1.36739 22.9473 1.24021 22.8536 1.14645C22.7598 1.05268 22.6326 1 22.5 1H4.5C4.36739 1 4.24021 1.05268 4.14645 1.14645C4.05268 1.24021 4 1.36739 4 1.5V15.997H8.219L10.709 11.847C10.7912 11.7101 10.9049 11.5949 11.0408 11.511C11.1766 11.4271 11.3305 11.3769 11.4897 11.3646C11.6489 11.3524 11.8087 11.3785 11.9558 11.4406C12.1028 11.5028 12.2329 11.5993 12.335 11.722L13.955 13.666L17.042 9.034C17.133 8.89665 17.2566 8.78401 17.4018 8.70617C17.547 8.62833 17.7093 8.58773 17.874 8.588C18.288 8.588 18.664 8.848 18.81 9.234L21.345 15.997H23ZM20.278 15.997L17.875 9.586L14.416 14.777C14.3726 14.8414 14.3149 14.895 14.2475 14.9335C14.18 14.972 14.1045 14.9944 14.027 14.999H14.025C13.9477 15.0023 13.8707 14.9879 13.7998 14.9568C13.7289 14.9258 13.666 14.879 13.616 14.82L11.566 12.361L9.385 15.997H20.278Z" fill="currentColor"/>
<path d="M10 7.99701C8.897 7.99701 8 7.10001 8 5.99701C8 4.89401 8.897 3.99701 10 3.99701C11.103 3.99701 12 4.89401 12 5.99701C12 7.10001 11.103 7.99701 10 7.99701ZM10 4.99701C9.449 4.99701 9 5.44601 9 5.99701C9 6.54801 9.449 6.99701 10 6.99701C10.551 6.99701 11 6.54801 11 5.99701C11 5.44601 10.551 4.99701 10 4.99701Z" fill="currentColor"/>
</g>
<defs>
<clipPath id="clip0_1_114016">
<rect width="24" height="24" fill="white"/>
</clipPath>
</defs>
</svg>
