<svg width="24" height="24" viewBox="0 0 24 24" fill="none" xmlns="http://www.w3.org/2000/svg">
<g clip-path="url(#clip0_1_113729)">
<path d="M16.1093 23.198H7.15234L7.13134 23.199L7.11034 23.198H4.13134C3.30434 23.198 2.63134 22.525 2.63134 21.698V13.198H0.999345C0.823265 13.1979 0.650331 13.1513 0.49803 13.063C0.345728 12.9746 0.219459 12.8476 0.13199 12.6948C0.0445202 12.5419 -0.00104809 12.3687 -0.000107808 12.1927C0.000832473 12.0166 0.048248 11.8439 0.137345 11.692L4.53834 4.214C4.69347 3.9511 4.92512 3.74178 5.20234 3.614L11.0023 0.939005C11.1992 0.84691 11.4139 0.799093 11.6312 0.79892C11.8486 0.798747 12.0633 0.846223 12.2603 0.938005L18.0553 3.613C18.3333 3.742 18.5633 3.949 18.7193 4.212L23.1203 11.69C23.2094 11.8418 23.2568 12.0144 23.2578 12.1904C23.2588 12.3664 23.2133 12.5395 23.1259 12.6923C23.0386 12.8451 22.9125 12.9721 22.7603 13.0606C22.6081 13.149 22.4353 13.1957 22.2593 13.196H20.6313V21.696C20.6313 22.523 19.9583 23.196 19.1313 23.196H16.1523L16.1313 23.197C16.1243 23.199 16.1163 23.198 16.1093 23.198ZM19.1313 22.198C19.264 22.198 19.3911 22.1453 19.4849 22.0516C19.5787 21.9578 19.6313 21.8306 19.6313 21.698V13.199H3.63134V21.698C3.63134 21.8306 3.68402 21.9578 3.77779 22.0516C3.87156 22.1453 3.99874 22.198 4.13134 22.198H6.63134V14.699C6.63134 14.677 6.63834 14.633 6.64434 14.611C6.65133 14.5459 6.67549 14.4837 6.71434 14.431C6.73253 14.3934 6.75924 14.3605 6.79234 14.335C6.81634 14.314 6.83534 14.301 6.84834 14.292C6.86934 14.277 6.89234 14.26 6.92434 14.244C6.95063 14.2325 6.97814 14.2242 7.00634 14.219C7.04681 14.2063 7.08893 14.1995 7.13134 14.199H16.1313C16.1716 14.2004 16.2116 14.2068 16.2503 14.218C16.2733 14.223 16.3023 14.229 16.3363 14.244C16.3615 14.2552 16.385 14.2696 16.4063 14.287C16.4441 14.3092 16.4782 14.3372 16.5073 14.37C16.5256 14.3911 16.5407 14.4147 16.5523 14.44C16.5704 14.465 16.5852 14.4922 16.5963 14.521C16.6123 14.561 16.6163 14.596 16.6193 14.618C16.6263 14.6445 16.6304 14.6716 16.6313 14.699V22.198H19.1313ZM14.8153 22.198L11.6313 19.368L8.44734 22.198H14.8153ZM15.6313 21.585V15.812L12.3833 18.699L15.6313 21.585ZM7.63134 21.585L10.8783 18.698L7.63134 15.812V21.585ZM11.6313 18.03L14.8163 15.199H8.44634L11.6313 18.03ZM20.1093 12.199L20.1303 12.198H22.2563L17.8563 4.722C17.8047 4.63406 17.7272 4.56421 17.6343 4.522L11.8393 1.847C11.7736 1.81748 11.7024 1.80221 11.6303 1.80221C11.5583 1.80221 11.4871 1.81748 11.4213 1.847L5.62134 4.522C5.52844 4.56459 5.45092 4.63477 5.39934 4.723L1.00034 12.199L3.13134 12.198L3.15234 12.199H20.1093Z" fill="currentColor"/>
<path d="M9.13135 10.2C8.99874 10.2 8.87156 10.1473 8.77779 10.0536C8.68403 9.95979 8.63135 9.83261 8.63135 9.70001V7.03801C8.63135 6.62701 8.87735 6.26301 9.25935 6.11001L11.2593 5.31001C11.4979 5.21327 11.7648 5.21327 12.0033 5.31001L14.0033 6.11001C14.189 6.18384 14.3482 6.31182 14.4602 6.47732C14.5722 6.64282 14.6318 6.83818 14.6313 7.03801V9.70001C14.6313 9.83261 14.5787 9.95979 14.4849 10.0536C14.3911 10.1473 14.264 10.2 14.1313 10.2H9.13135ZM13.6313 9.20001V7.03801L11.6313 6.23801L9.63135 7.03801V9.20001H13.6313Z" fill="currentColor"/>
</g>
<defs>
<clipPath id="clip0_1_113729">
<rect width="24" height="24" fill="white"/>
</clipPath>
</defs>
</svg>
