<?xml version="1.0" encoding="UTF-8" standalone="no"?>
<svg
   width="24"
   height="24"
   viewBox="0 0 24 24"
   fill="none"
   version="1.1"
   id="svg4"
   sodipodi:docname="prf.svg"
   inkscape:version="1.3.2 (091e20e, 2023-11-25, custom)"
   xmlns:inkscape="http://www.inkscape.org/namespaces/inkscape"
   xmlns:sodipodi="http://sodipodi.sourceforge.net/DTD/sodipodi-0.dtd"
   xmlns="http://www.w3.org/2000/svg"
   xmlns:svg="http://www.w3.org/2000/svg">
  <defs
     id="defs4" />
  <sodipodi:namedview
     id="namedview4"
     pagecolor="#ffffff"
     bordercolor="#000000"
     borderopacity="0.25"
     inkscape:showpageshadow="2"
     inkscape:pageopacity="0.0"
     inkscape:pagecheckerboard="0"
     inkscape:deskcolor="#d1d1d1"
     inkscape:zoom="30.791667"
     inkscape:cx="11.983762"
     inkscape:cy="12"
     inkscape:window-width="1920"
     inkscape:window-height="974"
     inkscape:window-x="2869"
     inkscape:window-y="-11"
     inkscape:window-maximized="1"
     inkscape:current-layer="svg4" />
  <path
     style="color:#000000;fill:currentColor;stroke-linecap:round;stroke-linejoin:round;-inkscape-stroke:none"
     d="M 12,0.07421875 C 9.7407441,0.07090118 7.5289385,0.71178545 5.6210937,1.921875 3.1193001,3.5077488 1.7511436,5.9729483 1.53125,8.6152344 1.3113564,11.25752 2.2208948,14.074481 4.1894531,16.439453 c 2.1780473,2.615956 4.575495,5.041744 7.1660159,7.25 a 0.50005,0.50005 0 0 0 0.002,0.0039 c 0.179804,0.150437 0.407915,0.232422 0.642578,0.232422 0.234663,0 0.462774,-0.08198 0.642578,-0.232422 a 0.50005,0.50005 0 0 0 0.002,-0.0039 c 2.590555,-2.207856 4.988006,-4.632277 7.166016,-7.248047 1.969055,-2.365467 2.878228,-5.18375 2.658203,-7.8261716 C 22.248725,5.9728131 20.880687,3.5077404 18.378906,1.921875 16.471045,0.71178799 14.259246,0.07090118 12,0.07421875 Z m 0,0.99999995 c 2.069149,-0.00304 4.096415,0.5831356 5.84375,1.6914063 2.248215,1.4251316 3.432682,3.5750619 3.628906,5.9316406 C 21.66888,11.053844 20.85891,13.619253 19.042969,15.800781 16.902563,18.371389 14.545627,20.75385 12,22.923828 9.454399,20.75345 7.0974992,18.371602 4.9570312,15.800781 3.1415884,13.619758 2.3331897,11.05373 2.5292969,8.6972656 2.7254041,6.3408017 3.9080484,4.1907482 6.15625,2.765625 7.9035616,1.6573569 9.9308402,1.0711803 12,1.0742187 Z"
     id="path1" />
  <path
     style="color:#000000;fill:currentColor;stroke-linecap:round;stroke-linejoin:round;-inkscape-stroke:none"
     d="M 8.4257813,4.6855469 C 8.2297859,4.7233183 8.0494194,4.8198612 7.9082031,4.9609375 L 6.5566406,6.3105469 c -0.097069,0.096929 -0.1722692,0.2141591 -0.2226562,0.3417968 -0.050416,0.1276602 -0.075013,0.2632458 -0.070312,0.4003907 0.00468,0.1371469 0.038661,0.2725938 0.097656,0.3964843 0.058993,0.1239076 0.1425999,0.2341442 0.2460938,0.3242188 a 0.50005,0.50005 0 0 0 0.00977,0.00977 C 6.8853517,8.0028842 7.1036452,8.2764558 7.2558594,8.5878906 7.4068916,8.8968986 7.4883755,9.2363557 7.4980469,9.5800781 7.4966211,10.300089 7.2889675,10.803913 7.046875,11.318359 6.8039518,11.834571 6.5,12.372704 6.5,13.074219 c 0,0.528789 0.300343,0.92625 0.6757812,1.345703 0.3754383,0.419453 0.8695023,0.840405 1.4160157,1.226562 1.0930268,0.772315 2.3407801,1.427735 3.4082031,1.427735 1.067423,0 2.315181,-0.65542 3.408203,-1.427735 0.546511,-0.386157 1.040579,-0.807109 1.416016,-1.226562 C 17.199655,14.000469 17.5,13.603006 17.5,13.074219 c 0,-0.701515 -0.303952,-1.239648 -0.546875,-1.75586 -0.242093,-0.514446 -0.449746,-1.01827 -0.451172,-1.7382809 0.01011,-0.3431155 0.09116,-0.6798796 0.242188,-0.9882812 0.15225,-0.3108864 0.368985,-0.585391 0.636718,-0.8046875 a 0.50005,0.50005 0 0 0 0.01172,-0.00977 c 0.103163,-0.089874 0.186971,-0.2000808 0.246094,-0.3242187 0.05905,-0.1240093 0.09305,-0.2592883 0.09766,-0.3964844 0.0048,-0.1374299 -0.01991,-0.2727725 -0.07031,-0.4003906 -0.05026,-0.1272805 -0.126432,-0.2433428 -0.222657,-0.3398438 v -0.00195 L 16.09375,4.9609375 a 0.50005,0.50005 0 0 0 -0.002,0 C 15.950451,4.8196918 15.770157,4.723315 15.574219,4.6855469 c -0.195977,-0.037776 -0.398566,-0.015943 -0.582031,0.0625 L 12,6.03125 9.0078125,4.7480469 C 8.824293,4.6695642 8.6217658,4.6477776 8.4257813,4.6855469 Z m 0.1875,0.9824218 3.1894527,1.3671875 a 0.50005,0.50005 0 0 0 0.394532,0 l 3.1875,-1.3671875 h 0.002 l 1.349609,1.3535157 c 0,0 0,0.00195 0,0.00195 l 0.01172,-0.00977 C 16.369181,7.3239948 16.061053,7.7126108 15.845703,8.1523438 15.630328,8.5921406 15.512774,9.0729477 15.5,9.5625 a 0.50005,0.50005 0 0 0 0,0.011719 c 0,0.9260092 0.289799,1.6236352 0.546875,2.1699222 0.257076,0.546287 0.453125,0.931593 0.453125,1.330078 0,0.02121 -0.117624,0.337813 -0.421875,0.677734 -0.304251,0.339921 -0.750809,0.726783 -1.248047,1.078125 -0.994476,0.702684 -2.247503,1.244141 -2.830078,1.244141 -0.582575,0 -1.835597,-0.541457 -2.8300781,-1.244141 C 8.6726813,14.478736 8.2261273,14.091875 7.921875,13.751953 7.6176227,13.412032 7.5,13.095429 7.5,13.074219 7.5,12.675734 7.6960487,12.290428 7.953125,11.744141 8.2102013,11.197854 8.5,10.500228 8.5,9.5742188 A 0.50005,0.50005 0 0 0 8.5,9.5625 C 8.48786,9.0721878 8.3696735,8.5910455 8.1542969,8.1503906 7.9389314,7.7097462 7.6313683,7.320584 7.2519531,7.0097656 l 0.011719,0.00977 a 0.50005,0.50005 0 0 0 0,-0.00195 z"
     id="path2" />
  <path
     style="color:#000000;fill:currentColor;stroke-linecap:round;stroke-linejoin:round;-inkscape-stroke:none"
     d="m 8,9.0742188 a 0.5,0.5 0 0 0 -0.5,0.5 0.5,0.5 0 0 0 0.5,0.5000002 h 8 a 0.5,0.5 0 0 0 0.5,-0.5000002 0.5,0.5 0 0 0 -0.5,-0.5 z"
     id="path3" />
  <path
     style="color:#000000;fill:currentColor;stroke-linecap:round;stroke-linejoin:round;-inkscape-stroke:none"
     d="m 12,11.074219 a 0.5,0.5 0 0 0 -0.5,0.5 v 2 a 0.5,0.5 0 0 0 0.5,0.5 0.5,0.5 0 0 0 0.5,-0.5 v -2 a 0.5,0.5 0 0 0 -0.5,-0.5 z"
     id="path4" />
</svg>
