<svg width="24" height="24" viewBox="0 0 24 24" fill="none" xmlns="http://www.w3.org/2000/svg">
<g clip-path="url(#clip0_1_113902)">
<path d="M7.5 19.999C7.36739 19.999 7.24021 19.9463 7.14645 19.8526C7.05268 19.7588 7 19.6316 7 19.499C7 19.3664 7.05268 19.2392 7.14645 19.1455C7.24021 19.0517 7.36739 18.999 7.5 18.999H16.5C16.6326 18.999 16.7598 19.0517 16.8536 19.1455C16.9473 19.2392 17 19.3664 17 19.499C17 19.6316 16.9473 19.7588 16.8536 19.8526C16.7598 19.9463 16.6326 19.999 16.5 19.999H7.5Z" fill="currentColor"/>
<path d="M7.5 16.999C7.36739 16.999 7.24021 16.9463 7.14645 16.8526C7.05268 16.7588 7 16.6316 7 16.499C7 16.3664 7.05268 16.2392 7.14645 16.1455C7.24021 16.0517 7.36739 15.999 7.5 15.999H16.5C16.6326 15.999 16.7598 16.0517 16.8536 16.1455C16.9473 16.2392 17 16.3664 17 16.499C17 16.6316 16.9473 16.7588 16.8536 16.8526C16.7598 16.9463 16.6326 16.999 16.5 16.999H7.5Z" fill="currentColor"/>
<path d="M6.5 24C5.673 24 5 23.327 5 22.5V17H2.5C1.8381 16.9968 1.2042 16.7326 0.73607 16.2646C0.267939 15.7967 0.00341795 15.1629 0 14.501L0 8.5C0.00315314 7.8381 0.267421 7.2042 0.735364 6.73607C1.20331 6.26794 1.8371 6.00342 2.499 6H21.5C22.1619 6.00315 22.7958 6.26742 23.2639 6.73536C23.7321 7.20331 23.9966 7.8371 24 8.499V14.5C23.9968 15.1619 23.7326 15.7958 23.2646 16.2639C22.7967 16.7321 22.1629 16.9966 21.501 17H19V22.5C19 23.327 18.327 24 17.5 24H6.5ZM6 22.5C6 22.6326 6.05268 22.7598 6.14645 22.8536C6.24021 22.9473 6.36739 23 6.5 23H17.5C17.6326 23 17.7598 22.9473 17.8536 22.8536C17.9473 22.7598 18 22.6326 18 22.5V14H6V22.5ZM21.5 16C21.8973 15.9976 22.2776 15.8387 22.5584 15.5577C22.8392 15.2767 22.9979 14.8963 23 14.499V8.5C22.9974 8.10281 22.8384 7.72265 22.5574 7.44189C22.2765 7.16112 21.8962 7.00236 21.499 7H2.5C2.10264 7.00263 1.72233 7.16178 1.44154 7.44295C1.16074 7.72412 1.0021 8.10464 1 8.502V14.5C1.00262 14.8972 1.16164 15.2773 1.44259 15.5581C1.72355 15.8389 2.10381 15.9976 2.501 16H5V13.5C5 13.3674 5.05268 13.2402 5.14645 13.1464C5.24021 13.0527 5.36739 13 5.5 13H18.5C18.6326 13 18.7598 13.0527 18.8536 13.1464C18.9473 13.2402 19 13.3674 19 13.5V16H21.5Z" fill="currentColor"/>
<path d="M18.479 4.99902H14.5C14.3674 4.99902 14.2402 4.94634 14.1464 4.85258C14.0527 4.75881 14 4.63163 14 4.49902V1.00002H6V4.50002C6 4.63263 5.94732 4.75981 5.85355 4.85358C5.75979 4.94734 5.63261 5.00002 5.5 5.00002C5.36739 5.00002 5.24021 4.94734 5.14645 4.85358C5.05268 4.75981 5 4.63263 5 4.50002V0.500023C5 0.367415 5.05268 0.240238 5.14645 0.14647C5.24021 0.0527019 5.36739 2.34375e-05 5.5 2.34375e-05H14.479L14.5 -0.000976562L14.521 2.34375e-05H15.085C15.486 2.34375e-05 15.862 0.156023 16.146 0.439023L18.56 2.85302C18.844 3.13702 19 3.51402 19 3.91402V4.50002C19 4.63263 18.9473 4.75981 18.8536 4.85358C18.7598 4.94734 18.6326 5.00002 18.5 5.00002L18.479 4.99902ZM18 3.99902V3.91402C18.0001 3.78135 17.9476 3.65404 17.854 3.56002L15.44 1.14602C15.346 1.0524 15.2187 0.999896 15.086 1.00002H15V3.99902H18Z" fill="currentColor"/>
<path d="M3.5 10.999C2.673 10.999 2 10.326 2 9.49902C2 8.67202 2.673 7.99902 3.5 7.99902C4.327 7.99902 5 8.67202 5 9.49902C5 10.326 4.327 10.999 3.5 10.999ZM3.5 8.99902C3.36739 8.99902 3.24021 9.0517 3.14645 9.14547C3.05268 9.23924 3 9.36641 3 9.49902C3 9.63163 3.05268 9.75881 3.14645 9.85258C3.24021 9.94634 3.36739 9.99902 3.5 9.99902C3.63261 9.99902 3.75979 9.94634 3.85355 9.85258C3.94732 9.75881 4 9.63163 4 9.49902C4 9.36641 3.94732 9.23924 3.85355 9.14547C3.75979 9.0517 3.63261 8.99902 3.5 8.99902Z" fill="currentColor"/>
</g>
<defs>
<clipPath id="clip0_1_113902">
<rect width="24" height="24" fill="white"/>
</clipPath>
</defs>
</svg>
