<?xml version="1.0" encoding="UTF-8" standalone="no"?>
<svg
   width="24"
   height="24"
   viewBox="0 0 24 24"
   fill="none"
   version="1.1"
   id="svg3"
   sodipodi:docname="profile.svg"
   inkscape:version="1.3.2 (091e20e, 2023-11-25, custom)"
   xml:space="preserve"
   xmlns:inkscape="http://www.inkscape.org/namespaces/inkscape"
   xmlns:sodipodi="http://sodipodi.sourceforge.net/DTD/sodipodi-0.dtd"
   xmlns="http://www.w3.org/2000/svg"
   xmlns:svg="http://www.w3.org/2000/svg"><sodipodi:namedview
     id="namedview3"
     pagecolor="#ffffff"
     bordercolor="#000000"
     borderopacity="0.25"
     inkscape:showpageshadow="2"
     inkscape:pageopacity="0.0"
     inkscape:pagecheckerboard="0"
     inkscape:deskcolor="#d1d1d1"
     inkscape:zoom="53.291667"
     inkscape:cx="12"
     inkscape:cy="13.501173"
     inkscape:window-width="2880"
     inkscape:window-height="1514"
     inkscape:window-x="-11"
     inkscape:window-y="-11"
     inkscape:window-maximized="1"
     inkscape:current-layer="g4" /><g
     clip-path="url(#clip0_1_113531)"
     id="g3"><path
       style="color:#000000;fill:currentColor;stroke-linecap:round;stroke-linejoin:round;-inkscape-stroke:none"
       d="m 12,18.25 c -0.173032,0 -0.342403,0.05218 -0.486328,0.148437 -0.143371,0.0961 -0.256206,0.231291 -0.322266,0.390625 a 0.50005,0.50005 0 0 0 0,0.002 c -0.06584,0.159359 -0.0827,0.333847 -0.04883,0.503906 a 0.50005,0.50005 0 0 0 0,0.002 c 0.0338,0.169467 0.116288,0.32504 0.238281,0.447266 0.122226,0.121993 0.277799,0.204481 0.447266,0.238281 a 0.50005,0.50005 0 0 0 0.002,0 c 0.170059,0.03387 0.344547,0.01701 0.503906,-0.04883 a 0.50005,0.50005 0 0 0 0.002,0 c 0.159334,-0.06606 0.294523,-0.178895 0.390625,-0.322266 C 12.822824,19.467403 12.875,19.298032 12.875,19.125 c 0,-0.231828 -0.09231,-0.455358 -0.255859,-0.619141 C 12.455358,18.34231 12.231828,18.25 12,18.25 Z m 0.02539,0.751953 c 0.02407,0.0048 0.04527,0.01796 0.0625,0.03516 0.01719,0.01723 0.03036,0.03843 0.03516,0.0625 0.0049,0.02446 0.0014,0.04991 -0.0078,0.07227 v 0.002 c -0.0095,0.02281 -0.02433,0.04094 -0.04492,0.05469 C 12.049588,19.242377 12.024632,19.25 12,19.25 c -0.03283,0 -0.06491,-0.01416 -0.08789,-0.03711 -0.02295,-0.02298 -0.03711,-0.05506 -0.03711,-0.08789 0,-0.02463 0.0076,-0.04959 0.02148,-0.07031 0.01375,-0.02059 0.03188,-0.03547 0.05469,-0.04492 h 0.002 c 0.02236,-0.0092 0.04781,-0.01268 0.07227,-0.0078 z"
       id="path1" /><path
       style="color:#000000;fill:currentColor;stroke-linecap:round;stroke-miterlimit:10;-inkscape-stroke:none"
       d="m 12,7.75 a 0.5,0.5 0 0 0 -0.5,0.5 v 7.5 a 0.5,0.5 0 0 0 0.5,0.5 0.5,0.5 0 0 0 0.5,-0.5 V 8.25 A 0.5,0.5 0 0 0 12,7.75 Z"
       id="path2" /><path
       style="color:#000000;fill:currentColor;stroke-linecap:round;stroke-linejoin:round;-inkscape-stroke:none"
       d="m 12,0.25 c -0.431011,0 -0.852948,0.12172815 -1.21875,0.34960937 C 10.415477,0.8274739 10.119695,1.1521647 9.9296875,1.5390625 L 0.45703125,20.837891 c -0.15148824,0.30821 -0.22231265,0.649224 -0.20507812,0.992187 0.0171995,0.3424 0.12362319,0.67573 0.30468749,0.966797 0.18164044,0.291522 0.43409182,0.532631 0.73437498,0.699219 C 1.5913565,23.662721 1.928025,23.750266 2.2714844,23.75 H 21.728516 c 0.343472,2.66e-4 0.68014,-0.08734 0.980468,-0.253906 0.300207,-0.166575 0.552714,-0.407656 0.734375,-0.699219 0.181082,-0.291106 0.287453,-0.624495 0.304688,-0.966797 0.01728,-0.343085 -0.05367,-0.684068 -0.205078,-0.992187 L 18.861328,11.298828 14.070313,1.5390625 C 13.880305,1.1521647 13.584523,0.8274739 13.21875,0.59960937 12.852948,0.37172815 12.431011,0.25 12,0.25 Z m 0,1 c 0.244188,0 0.484209,0.068189 0.691406,0.1972656 0.207227,0.1290951 0.372877,0.3141216 0.480469,0.5332031 l 4.791016,9.7597653 4.68164,9.539063 c 0.0766,0.15588 0.112235,0.326885 0.103516,0.5 -0.0087,0.173468 -0.06064,0.343124 -0.152344,0.490234 -0.09174,0.147237 -0.219301,0.267338 -0.371094,0.351563 -0.151871,0.08423 -0.322567,0.12904 -0.496093,0.128906 H 2.2714844 C 2.0979843,22.750134 1.9271093,22.705266 1.7753906,22.621094 1.6235943,22.536882 1.4960622,22.416809 1.4042969,22.269531 1.312568,22.122381 1.2606619,21.952667 1.2519531,21.779297 c -0.00871,-0.173237 0.026944,-0.344211 0.1035156,-0.5 L 10.828125,1.9804687 C 10.935717,1.7613872 11.101367,1.5763607 11.308594,1.4472656 11.515791,1.3181892 11.755812,1.25 12,1.25 Z"
       id="path3" /><g
       style="fill:none"
       id="g4"
       transform="translate(-0.00938233)"><rect
         width="24"
         height="24"
         fill="#ffffff"
         id="rect1"
         x="0"
         y="0" /><path
         style="color:#000000;fill:currentColor;stroke-linecap:round;stroke-linejoin:round;-inkscape-stroke:none"
         d="m 12.330078,0.5 c -3.6572035,0 -6.6328124,2.9756457 -6.6328124,6.6328125 0,3.6571945 2.9756158,6.6328125 6.6328124,6.6328125 3.657114,0 6.632813,-2.975615 6.632813,-6.6328125 C 18.962891,3.4756427 15.987199,0.5 12.330078,0.5 Z m 0,1 c 3.116673,0 5.632813,2.5160891 5.632813,5.6328125 0,3.1167555 -2.516134,5.6328125 -5.632813,5.6328125 -3.1167763,0 -5.6328124,-2.516054 -5.6328124,-5.6328125 C 6.6972656,4.0160861 9.2133086,1.5 12.330078,1.5 Z"
         id="path1-9" /><path
         style="color:#000000;fill:currentColor;stroke-linecap:round;stroke-linejoin:round;-inkscape-stroke:none"
         d="m 12.435547,15.59375 c -2.162951,0 -4.2750398,0.66563 -6.0468751,1.90625 -1.7718314,1.240519 -3.1194869,2.996733 -3.859375,5.029297 a 0.5,0.5 0 0 0 0.2988281,0.640625 0.5,0.5 0 0 0 0.6425781,-0.298828 c 0.6697305,-1.839832 1.8883822,-3.429856 3.4921875,-4.552735 1.6038213,-1.122978 3.5148114,-1.724609 5.4726564,-1.724609 1.957845,0 3.866802,0.601622 5.470703,1.724609 1.603786,1.122879 2.82442,2.712904 3.494141,4.552735 a 0.5,0.5 0 0 0 0.640625,0.298828 0.5,0.5 0 0 0 0.298828,-0.640625 C 21.599965,20.496731 20.252279,18.740519 18.480469,17.5 16.708573,16.259389 14.598498,15.59375 12.435547,15.59375 Z"
         id="path2-4" /></g></g><defs
     id="defs3"><clipPath
       id="clip0_1_113531"><rect
         width="24"
         height="24"
         fill="white"
         id="rect3" /></clipPath></defs></svg>
