<svg width="24" height="24" viewBox="0 0 24 24" fill="none" xmlns="http://www.w3.org/2000/svg">
<g clip-path="url(#clip0_1_113722)">
<g clip-path="url(#clip1_1_113722)">
<path d="M1.627 20C1.5477 19.9999 1.46957 19.9809 1.39901 19.9448C1.32844 19.9086 1.26743 19.8563 1.221 19.792C0.542736 18.8499 0.130959 17.7424 0.0289963 16.586C0.0173291 16.4549 0.0318297 16.3227 0.0716563 16.1972C0.111483 16.0717 0.175842 15.9554 0.260996 15.855C0.352595 15.7455 0.466764 15.6571 0.595692 15.5958C0.72462 15.5346 0.865263 15.5019 1.008 15.5H2V14.5C2 13.948 2.449 13.5 3 13.5H6C6.551 13.5 7 13.948 7 14.5V15.5H12V7.5H3.5C3.36739 7.5 3.24021 7.44732 3.14644 7.35355C3.05268 7.25979 3 7.13261 3 7C3 6.86739 3.05268 6.74021 3.14644 6.64645C3.24021 6.55268 3.36739 6.5 3.5 6.5H12C12.552 6.5 13 6.949 13 7.5V15.5H16V10C16.0031 9.3381 16.2674 8.7042 16.7354 8.23607C17.2033 7.76794 17.8371 7.50342 18.499 7.5C19.4271 7.50079 20.317 7.86977 20.9733 8.52594C21.6297 9.18212 21.9989 10.0719 22 11V15.5H22.976C23.244 15.5 23.493 15.603 23.682 15.79C23.7871 15.8934 23.8679 16.019 23.9184 16.1575C23.9689 16.2961 23.9879 16.4442 23.974 16.591C23.8709 17.7456 23.4592 18.8512 22.782 19.792C22.7355 19.8562 22.6745 19.9085 22.6039 19.9447C22.5334 19.9808 22.4553 19.9998 22.376 20C22.2841 19.9998 22.1939 19.9743 22.1156 19.9263C22.0372 19.8782 21.9736 19.8095 21.9317 19.7276C21.8898 19.6458 21.8714 19.554 21.8783 19.4623C21.8852 19.3706 21.9173 19.2826 21.971 19.208C22.5438 18.4128 22.8919 17.4781 22.979 16.502L1.02 16.5C1.111 17.475 1.46 18.412 2.033 19.208C2.07164 19.2611 2.09938 19.3213 2.11462 19.3851C2.12986 19.449 2.1323 19.5152 2.12179 19.5801C2.11129 19.6449 2.08804 19.7069 2.05341 19.7627C2.01877 19.8185 1.97343 19.8669 1.92 19.905C1.83492 19.967 1.73228 20.0003 1.627 20ZM21 15.5V11C21 9.621 19.878 8.5 18.5 8.5C18.1028 8.50262 17.7227 8.66164 17.4419 8.94259C17.1611 9.22355 17.0024 9.60381 17 10.001V10.5H18.5C19.327 10.5 20 11.173 20 12C20 12.827 19.327 13.5 18.5 13.5H17V15.5H21ZM6 15.5V14.5H3V15.5H6ZM18.5 12.5C18.6326 12.5 18.7598 12.4473 18.8535 12.3536C18.9473 12.2598 19 12.1326 19 12C19 11.8674 18.9473 11.7402 18.8535 11.6464C18.7598 11.5527 18.6326 11.5 18.5 11.5H17V12.5H18.5Z" fill="currentColor"/>
<path d="M4.49799 10.004C4.36538 10.004 4.2382 9.95132 4.14443 9.85755C4.05066 9.76378 3.99799 9.63661 3.99799 9.504V9.004C3.99799 8.87139 4.05066 8.74421 4.14443 8.65044C4.2382 8.55668 4.36538 8.504 4.49799 8.504C4.63059 8.504 4.75777 8.55668 4.85154 8.65044C4.94531 8.74421 4.99799 8.87139 4.99799 9.004V9.504C4.99799 9.63661 4.94531 9.76378 4.85154 9.85755C4.75777 9.95132 4.63059 10.004 4.49799 10.004Z" fill="currentColor"/>
<path d="M4.49799 12.504C4.36538 12.504 4.2382 12.4513 4.14443 12.3576C4.05066 12.2638 3.99799 12.1366 3.99799 12.004V11.504C3.99799 11.3714 4.05066 11.2442 4.14443 11.1504C4.2382 11.0567 4.36538 11.004 4.49799 11.004C4.63059 11.004 4.75777 11.0567 4.85154 11.1504C4.94531 11.2442 4.99799 11.3714 4.99799 11.504V12.004C4.99799 12.1366 4.94531 12.2638 4.85154 12.3576C4.75777 12.4513 4.63059 12.504 4.49799 12.504Z" fill="currentColor"/>
<path d="M22.983 22.754C22.5651 22.7541 22.1514 22.6701 21.7666 22.5071C21.3818 22.344 21.0337 22.1053 20.743 21.805C20.4496 22.1042 20.0993 22.3415 19.7127 22.5031C19.3261 22.6648 18.911 22.7473 18.492 22.746C18.0736 22.746 17.6595 22.6623 17.2739 22.4998C16.8884 22.3374 16.5392 22.0994 16.247 21.8C15.9535 22.1005 15.6027 22.3391 15.2154 22.5016C14.8281 22.6641 14.412 22.7472 13.992 22.746C13.5743 22.746 13.1609 22.6626 12.7759 22.5006C12.3909 22.3387 12.0421 22.1015 11.75 21.803C11.4564 22.1044 11.1052 22.3437 10.7173 22.5067C10.3294 22.6698 9.91275 22.7532 9.49199 22.752C9.07377 22.7516 8.65983 22.6678 8.27436 22.5055C7.88889 22.3433 7.53963 22.1058 7.24699 21.807C6.95347 22.1075 6.60266 22.346 6.21533 22.5085C5.82801 22.671 5.41202 22.7541 4.99199 22.753C4.57465 22.7524 4.1616 22.6688 3.77686 22.5071C3.39213 22.3454 3.04341 22.1088 2.75099 21.811C2.45823 22.1113 2.10811 22.3497 1.72143 22.512C1.33474 22.6744 0.919371 22.7573 0.499993 22.756C0.367119 22.756 0.239688 22.7032 0.145732 22.6093C0.0517767 22.5153 -0.00100708 22.3879 -0.00100708 22.255C-0.00100708 22.1221 0.0517767 21.9947 0.145732 21.9007C0.239688 21.8068 0.367119 21.754 0.499993 21.754C0.862359 21.7548 1.21899 21.6635 1.53644 21.4888C1.8539 21.3141 2.12179 21.0616 2.31499 20.755C2.34594 20.6946 2.39003 20.6418 2.44402 20.6006C2.498 20.5595 2.56052 20.5309 2.62699 20.517L2.65499 20.51C2.67774 20.5057 2.70085 20.5037 2.72399 20.504H2.76499C2.79828 20.5031 2.83155 20.5065 2.86399 20.514C2.91728 20.5256 2.96829 20.5459 3.01499 20.574C3.08825 20.6207 3.14791 20.6859 3.18799 20.763C3.38171 21.0658 3.64847 21.3149 3.96371 21.4876C4.27896 21.6602 4.63257 21.7508 4.99199 21.751C5.74099 21.751 6.42399 21.373 6.81999 20.741C6.84799 20.6885 6.88665 20.6424 6.93349 20.6058C6.98033 20.5691 7.03432 20.5426 7.09199 20.528C7.09199 20.528 7.11599 20.517 7.14699 20.511C7.17271 20.5062 7.19883 20.5038 7.22499 20.504H7.26199C7.29999 20.504 7.32199 20.506 7.34499 20.51C7.36806 20.5156 7.39077 20.5226 7.41299 20.531C7.44871 20.5399 7.4828 20.5544 7.51399 20.574C7.57999 20.615 7.63399 20.672 7.67799 20.745C7.87078 21.0526 8.13856 21.3062 8.45621 21.482C8.77385 21.6578 9.13095 21.75 9.49399 21.75C10.239 21.75 10.92 21.375 11.317 20.748C11.355 20.6743 11.4124 20.6124 11.483 20.569C11.5823 20.5069 11.7005 20.4822 11.8163 20.4995C11.9322 20.5167 12.0381 20.5747 12.115 20.663C12.1429 20.6871 12.166 20.7163 12.183 20.749C12.344 21.007 12.582 21.245 12.859 21.418C13.0983 21.5683 13.365 21.6698 13.6438 21.7165C13.9225 21.7631 14.2077 21.7541 14.483 21.69C14.7587 21.6272 15.0192 21.5102 15.2494 21.3459C15.4796 21.1816 15.6749 20.9733 15.824 20.733C15.8682 20.6603 15.9302 20.6001 16.0043 20.5583C16.0784 20.5164 16.1619 20.4943 16.247 20.494C16.421 20.494 16.58 20.582 16.672 20.73C16.844 21.008 17.082 21.246 17.359 21.418C17.5981 21.5684 17.8647 21.6699 18.1432 21.7166C18.4218 21.7633 18.7069 21.7542 18.982 21.69C19.2577 21.6272 19.5182 21.5102 19.7484 21.3459C19.9786 21.1816 20.1739 20.9733 20.323 20.733C20.3291 20.7227 20.3361 20.713 20.344 20.704C20.358 20.685 20.378 20.666 20.39 20.654C20.409 20.634 20.428 20.614 20.452 20.596C20.4615 20.588 20.4715 20.5807 20.482 20.574C20.519 20.551 20.551 20.542 20.565 20.538C20.6151 20.5147 20.6697 20.5024 20.725 20.502L20.757 20.752L20.753 20.502H20.757C20.794 20.502 20.818 20.504 20.842 20.509C20.885 20.517 20.919 20.533 20.94 20.542C20.945 20.543 20.975 20.552 21.01 20.573L21.04 20.594C21.06 20.608 21.08 20.63 21.092 20.642C21.111 20.661 21.131 20.679 21.149 20.703C21.158 20.713 21.165 20.724 21.172 20.734C21.3639 21.0461 21.6328 21.3036 21.953 21.4819C22.2731 21.6602 22.6336 21.7532 23 21.752C23.1327 21.7504 23.2607 21.8016 23.3557 21.8944C23.4506 21.9871 23.5049 22.1138 23.5065 22.2465C23.5081 22.3792 23.4569 22.5072 23.3641 22.6022C23.2714 22.6972 23.1447 22.7514 23.012 22.753L22.983 22.754Z" fill="currentColor"/>
</g>
</g>
<defs>
<clipPath id="clip0_1_113722">
<rect width="24" height="24" fill="white"/>
</clipPath>
<clipPath id="clip1_1_113722">
<rect width="24" height="24" fill="white"/>
</clipPath>
</defs>
</svg>
