<svg width="24" height="24" viewBox="0 0 24 24" fill="none" xmlns="http://www.w3.org/2000/svg">
<path d="M7.59228 21.926C7.03127 21.9296 6.48948 21.7218 6.0748 21.3439C5.66011 20.966 5.40295 20.4458 5.35452 19.8869L4.0519 5.49383H1.74692C1.54882 5.49383 1.35884 5.41514 1.21877 5.27507C1.07869 5.13499 1 4.94501 1 4.74692C1 4.54882 1.07869 4.35884 1.21877 4.21877C1.35884 4.07869 1.54882 4 1.74692 4H22.6606C22.8587 4 23.0486 4.07869 23.1887 4.21877C23.3288 4.35884 23.4075 4.54882 23.4075 4.74692C23.4075 4.94501 23.3288 5.13499 23.1887 5.27507C23.0486 5.41514 22.8587 5.49383 22.6606 5.49383H20.3556L19.0485 19.8869C19.0008 20.4451 18.7447 20.9648 18.3311 21.3426C17.9176 21.7205 17.3769 21.9288 16.8167 21.926H7.59228ZM6.84238 19.7525C6.85816 19.9386 6.94349 20.1119 7.08137 20.2378C7.21925 20.3638 7.39955 20.4332 7.58631 20.4322H16.8092C16.9968 20.434 17.1782 20.3651 17.3172 20.2391C17.4562 20.1131 17.5426 19.9393 17.5591 19.7525L18.8543 5.49383H5.55171L6.84238 19.7525Z" fill="currentColor"/>
<path d="M9.21597 17.4445C9.01788 17.4445 8.8279 17.3658 8.68782 17.2257C8.54775 17.0857 8.46906 16.8957 8.46906 16.6976V9.22842C8.46906 9.03033 8.54775 8.84035 8.68782 8.70027C8.8279 8.5602 9.01788 8.48151 9.21597 8.48151C9.41407 8.48151 9.60405 8.5602 9.74412 8.70027C9.88419 8.84035 9.96289 9.03033 9.96289 9.22842V16.6976C9.96289 16.8957 9.88419 17.0857 9.74412 17.2257C9.60405 17.3658 9.41407 17.4445 9.21597 17.4445Z" fill="currentColor"/>
<path d="M12.2036 17.4445C12.0055 17.4445 11.8155 17.3658 11.6754 17.2257C11.5354 17.0857 11.4567 16.8957 11.4567 16.6976V9.22842C11.4567 9.03033 11.5354 8.84035 11.6754 8.70027C11.8155 8.5602 12.0055 8.48151 12.2036 8.48151C12.4017 8.48151 12.5917 8.5602 12.7317 8.70027C12.8718 8.84035 12.9505 9.03033 12.9505 9.22842V16.6976C12.9505 16.8957 12.8718 17.0857 12.7317 17.2257C12.5917 17.3658 12.4017 17.4445 12.2036 17.4445Z" fill="currentColor"/>
<path d="M15.1913 17.4445C14.9932 17.4445 14.8032 17.3658 14.6631 17.2257C14.523 17.0857 14.4443 16.8957 14.4443 16.6976V9.22842C14.4443 9.03033 14.523 8.84035 14.6631 8.70027C14.8032 8.5602 14.9932 8.48151 15.1913 8.48151C15.3893 8.48151 15.5793 8.5602 15.7194 8.70027C15.8595 8.84035 15.9382 9.03033 15.9382 9.22842V16.6976C15.9382 16.8957 15.8595 17.0857 15.7194 17.2257C15.5793 17.3658 15.3893 17.4445 15.1913 17.4445Z" fill="currentColor"/>
</svg>
