<svg width="24" height="24" viewBox="0 0 24 24" fill="none" xmlns="http://www.w3.org/2000/svg">
<g clip-path="url(#clip0_1_113946)">
<path d="M1.5 21C0.673 21 0 20.327 0 19.5V3.5C0 2.673 0.673 2 1.5 2H4V0.5C4 0.367392 4.05268 0.240215 4.14645 0.146447C4.24021 0.0526784 4.36739 0 4.5 0C4.63261 0 4.75979 0.0526784 4.85355 0.146447C4.94732 0.240215 5 0.367392 5 0.5V2H8V0.5C8 0.367392 8.05268 0.240215 8.14645 0.146447C8.24021 0.0526784 8.36739 0 8.5 0C8.63261 0 8.75979 0.0526784 8.85355 0.146447C8.94732 0.240215 9 0.367392 9 0.5V2H12V0.5C12 0.367392 12.0527 0.240215 12.1464 0.146447C12.2402 0.0526784 12.3674 0 12.5 0C12.6326 0 12.7598 0.0526784 12.8536 0.146447C12.9473 0.240215 13 0.367392 13 0.5V2H15.5C16.327 2 17 2.673 17 3.5V9.5C17 9.63261 16.9473 9.75979 16.8536 9.85355C16.7598 9.94732 16.6326 10 16.5 10C16.3674 10 16.2402 9.94732 16.1464 9.85355C16.0527 9.75979 16 9.63261 16 9.5V3.5C16 3.36739 15.9473 3.24021 15.8536 3.14645C15.7598 3.05268 15.6326 3 15.5 3H13V4.5C13 4.63261 12.9473 4.75979 12.8536 4.85355C12.7598 4.94732 12.6326 5 12.5 5C12.3674 5 12.2402 4.94732 12.1464 4.85355C12.0527 4.75979 12 4.63261 12 4.5V3H9V4.5C9 4.63261 8.94732 4.75979 8.85355 4.85355C8.75979 4.94732 8.63261 5 8.5 5C8.36739 5 8.24021 4.94732 8.14645 4.85355C8.05268 4.75979 8 4.63261 8 4.5V3H5V4.5C5 4.63261 4.94732 4.75979 4.85355 4.85355C4.75979 4.94732 4.63261 5 4.5 5C4.36739 5 4.24021 4.94732 4.14645 4.85355C4.05268 4.75979 4 4.63261 4 4.5V3H1.5C1.36739 3 1.24021 3.05268 1.14645 3.14645C1.05268 3.24021 1 3.36739 1 3.5V19.5C1 19.6326 1.05268 19.7598 1.14645 19.8536C1.24021 19.9473 1.36739 20 1.5 20H9.5C9.63261 20 9.75979 20.0527 9.85355 20.1464C9.94732 20.2402 10 20.3674 10 20.5C10 20.6326 9.94732 20.7598 9.85355 20.8536C9.75979 20.9473 9.63261 21 9.5 21H1.5Z" fill="currentColor"/>
<path d="M23.5 24C23.4343 24.0001 23.3692 23.9873 23.3085 23.9622C23.2478 23.9372 23.1925 23.9004 23.146 23.854L20.208 20.916C19.3122 21.6534 18.1883 22.057 17.028 22.058C14.255 22.058 11.999 19.802 11.999 17.029C11.999 14.256 14.256 12 17.029 12C19.802 12 22.058 14.256 22.058 17.029C22.0571 18.1893 21.6534 19.3132 20.916 20.209L23.854 23.147C23.9238 23.217 23.9713 23.3061 23.9904 23.403C24.0096 23.4999 23.9996 23.6004 23.9617 23.6917C23.9239 23.7829 23.8598 23.8609 23.7776 23.9158C23.6954 23.9707 23.5988 24 23.5 24ZM17.029 13C14.807 13 13 14.807 13 17.029C13 19.251 14.807 21.058 17.029 21.058C19.251 21.058 21.058 19.251 21.058 17.029C21.058 14.807 19.251 13 17.029 13Z" fill="currentColor"/>
</g>
<defs>
<clipPath id="clip0_1_113946">
<rect width="24" height="24" fill="white"/>
</clipPath>
</defs>
</svg>
