<?xml version="1.0" encoding="UTF-8" standalone="no"?>
<svg
   width="24"
   height="24"
   viewBox="0 0 24 24"
   fill="none"
   version="1.1"
   id="svg7"
   sodipodi:docname="rest.svg"
   inkscape:version="1.3.2 (091e20e, 2023-11-25, custom)"
   xmlns:inkscape="http://www.inkscape.org/namespaces/inkscape"
   xmlns:sodipodi="http://sodipodi.sourceforge.net/DTD/sodipodi-0.dtd"
   xmlns="http://www.w3.org/2000/svg"
   xmlns:svg="http://www.w3.org/2000/svg">
  <sodipodi:namedview
     id="namedview7"
     pagecolor="#ffffff"
     bordercolor="#000000"
     borderopacity="0.25"
     inkscape:showpageshadow="2"
     inkscape:pageopacity="0.0"
     inkscape:pagecheckerboard="0"
     inkscape:deskcolor="#d1d1d1"
     inkscape:zoom="53.291667"
     inkscape:cx="11.990618"
     inkscape:cy="12"
     inkscape:window-width="2880"
     inkscape:window-height="1514"
     inkscape:window-x="-11"
     inkscape:window-y="-11"
     inkscape:window-maximized="1"
     inkscape:current-layer="svg7" />
  <g
     clip-path="url(#clip0_1_113800)"
     id="g7">
    <path
       style="color:#000000;fill:currentColor;stroke-linecap:round;stroke-linejoin:round;-inkscape-stroke:none"
       d="m 14.234375,9.96875 a 0.5,0.5 0 0 0 -0.158203,0.6875 c 0.257031,0.410934 0.615064,0.751366 1.039062,0.986328 C 15.539179,11.877457 16.01525,12 16.5,12 c 0.48475,0 0.960821,-0.122543 1.384766,-0.357422 0.423998,-0.234962 0.782031,-0.575394 1.039062,-0.986328 a 0.5,0.5 0 0 0 -0.158203,-0.6875 0.5,0.5 0 0 0 -0.689453,0.158203 c -0.167169,0.267265 -0.39998,0.487788 -0.675781,0.640625 C 17.124736,10.920299 16.81525,11 16.5,11 c -0.31525,0 -0.624736,-0.0797 -0.900391,-0.232422 -0.275801,-0.152837 -0.508612,-0.37336 -0.675781,-0.640625 A 0.5,0.5 0 0 0 14.234375,9.96875 Z"
       id="path1" />
    <path
       style="color:#000000;fill:currentColor;stroke-linecap:round;stroke-linejoin:round;-inkscape-stroke:none"
       d="m 9.3886719,9.9042969 a 0.5,0.5 0 0 0 -0.3125,0.2226561 C 8.9090142,10.3942 8.6761642,10.614734 8.4003906,10.767578 8.1246488,10.920321 7.8152012,11 7.5,11 7.1847988,11 6.8753512,10.920321 6.5996094,10.767578 6.3238358,10.614734 6.0909858,10.3942 5.9238281,10.126953 A 0.5,0.5 0 0 0 5.234375,9.96875 0.5,0.5 0 0 0 5.0761719,10.65625 c 0.2570419,0.410952 0.6151367,0.751373 1.0390625,0.986328 C 6.5392119,11.877434 7.015282,12 7.5,12 7.984718,12 8.4607881,11.877434 8.8847656,11.642578 9.3086914,11.407623 9.6667862,11.067202 9.9238281,10.65625 A 0.5,0.5 0 0 0 9.765625,9.96875 0.5,0.5 0 0 0 9.3886719,9.9042969 Z"
       id="path2" />
    <path
       style="color:#000000;fill:currentColor;stroke-linecap:round;stroke-linejoin:round;-inkscape-stroke:none"
       d="m 12,15 c -0.530194,0 -1.039085,0.21096 -1.414062,0.585938 C 10.21096,15.960915 10,16.469806 10,17 v 1 c 0,0.530194 0.21096,1.039085 0.585938,1.414062 C 10.960915,19.78904 11.469806,20 12,20 12.530194,20 13.039085,19.78904 13.414063,19.414062 13.78904,19.039085 14,18.530194 14,18 V 17 C 14,16.469806 13.78904,15.960915 13.414063,15.585938 13.039085,15.21096 12.530194,15 12,15 Z m 0,1 c 0.265405,0 0.519409,0.105347 0.707031,0.292969 C 12.894653,16.480591 13,16.734595 13,17 v 1 c 0,0.265405 -0.105347,0.519409 -0.292969,0.707031 C 12.519409,18.894653 12.265405,19 12,19 11.734595,19 11.480591,18.894653 11.292969,18.707031 11.105347,18.519409 11,18.265405 11,18 v -1 c 0,-0.265405 0.105347,-0.519409 0.292969,-0.707031 C 11.480591,16.105347 11.734595,16 12,16 Z"
       id="path3" />
    <path
       style="color:#000000;fill:currentColor;stroke-linecap:round;stroke-linejoin:round;-inkscape-stroke:none"
       d="M 13.5,4 A 0.5,0.5 0 0 0 13,4.5 0.5,0.5 0 0 0 13.5,5 h 0.792969 L 13.146484,6.1464844 A 0.50005,0.50005 0 0 0 13.5,7 h 2 A 0.5,0.5 0 0 0 16,6.5 0.5,0.5 0 0 0 15.5,6 H 14.707031 L 15.853516,4.8535156 A 0.50005,0.50005 0 0 0 15.5,4 Z"
       id="path4" />
    <path
       style="color:#000000;fill:currentColor;stroke-linecap:round;stroke-linejoin:round;-inkscape-stroke:none"
       d="M 17.5,2 A 0.5,0.5 0 0 0 17,2.5 0.5,0.5 0 0 0 17.5,3 h 0.792969 L 17.146484,4.1464844 A 0.50005,0.50005 0 0 0 17.5,5 h 2 A 0.5,0.5 0 0 0 20,4.5 0.5,0.5 0 0 0 19.5,4 H 18.707031 L 19.853516,2.8535156 A 0.50005,0.50005 0 0 0 19.5,2 Z"
       id="path5" />
    <path
       style="color:#000000;fill:currentColor;stroke-linecap:round;stroke-linejoin:round;-inkscape-stroke:none"
       d="M 21.5,0 A 0.5,0.5 0 0 0 21,0.5 0.5,0.5 0 0 0 21.5,1 h 0.792969 L 21.146484,2.1464844 A 0.50005,0.50005 0 0 0 21.5,3 h 2 A 0.5,0.5 0 0 0 24,2.5 0.5,0.5 0 0 0 23.5,2 H 22.707031 L 23.853516,0.85351563 A 0.50005,0.50005 0 0 0 23.5,0 Z"
       id="path6" />
    <path
       style="color:#000000;fill:currentColor;stroke-linecap:round;stroke-linejoin:round;-inkscape-stroke:none"
       d="M 11.574219,0.00976563 C 10.202616,0.05924837 8.837972,0.34330199 7.5449219,0.86132813 4.9588583,1.8973856 2.8155213,3.8029027 1.4804687,6.2480469 0.14540673,8.6931997 -0.29819222,11.526066 0.22851563,14.261719 c 0.52670835,2.735655 1.98921877,5.203801 4.13671877,6.978515 2.1475185,1.774625 4.84697,2.746273 7.6328126,2.748047 2.78595,0.0018 5.48502,-0.966374 7.634765,-2.738281 2.149747,-1.771908 3.616299,-4.237725 4.146485,-6.972656 0.530187,-2.734934 0.09175,-5.5687804 -1.240235,-8.0156253 A 0.5,0.5 0 0 0 21.861328,6.0605469 0.5,0.5 0 0 0 21.660156,6.7382812 c 1.221013,2.2429906 1.622731,4.8425488 1.136719,7.3496098 -0.486013,2.507064 -1.828179,4.766336 -3.798828,6.390625 -1.970651,1.624289 -4.446155,2.511391 -7,2.509765 C 9.4442947,22.986655 6.9725036,22.095522 5.0039062,20.46875 3.0352904,18.841867 1.6937641,16.581958 1.2109375,14.074219 0.72811036,11.566477 1.1335865,8.9680049 2.3574219,6.7265625 3.5812468,4.4851313 5.5473573,2.7407562 7.9179687,1.7910156 10.288623,0.84127588 12.914818,0.74504119 15.347656,1.5214844 A 0.5,0.5 0 0 0 15.976563,1.1972656 0.5,0.5 0 0 0 15.652344,0.5703125 C 14.325366,0.1468059 12.945821,-0.03971712 11.574219,0.00976563 Z"
       id="path7" />
  </g>
  <defs
     id="defs7">
    <clipPath
       id="clip0_1_113800">
      <rect
         width="24"
         height="24"
         fill="white"
         id="rect7" />
    </clipPath>
  </defs>
</svg>
