<svg width="24" height="24" viewBox="0 0 24 24" fill="none" xmlns="http://www.w3.org/2000/svg">
<g clip-path="url(#clip0_1_113950)">
<path d="M6 18C2.692 18 0 15.308 0 12C0 8.69199 2.692 5.99999 6 5.99999C8.076 5.99999 9.475 7.42999 10.26 8.57199L10.663 6.43099C10.6729 6.36447 10.6962 6.30062 10.7314 6.24329C10.7665 6.18596 10.8129 6.13631 10.8677 6.09733C10.9225 6.05834 10.9847 6.03081 11.0504 6.0164C11.1161 6.00198 11.184 6.00097 11.2501 6.01342C11.3162 6.02587 11.3791 6.05153 11.4351 6.08887C11.491 6.12621 11.5388 6.17445 11.5757 6.23071C11.6126 6.28697 11.6377 6.35008 11.6496 6.41629C11.6615 6.48249 11.66 6.55041 11.645 6.61599L10.991 10.091C10.9866 10.1111 10.9805 10.1308 10.973 10.15C10.9563 10.2061 10.9288 10.2585 10.892 10.304C10.8728 10.3286 10.8514 10.3514 10.828 10.372C10.8138 10.3862 10.7988 10.3995 10.783 10.412C10.7704 10.4204 10.7574 10.4281 10.744 10.435C10.7152 10.4537 10.6834 10.4672 10.65 10.475C10.5719 10.5001 10.4888 10.5056 10.408 10.491L6.933 9.83299C6.86835 9.82112 6.80671 9.79654 6.75162 9.76067C6.69654 9.72481 6.64912 9.67838 6.61211 9.62406C6.57509 9.56975 6.54922 9.50863 6.53598 9.44425C6.52275 9.37987 6.52241 9.3135 6.535 9.24899C6.54724 9.18443 6.57209 9.12291 6.60812 9.06796C6.64415 9.013 6.69067 8.96569 6.745 8.92873C6.79933 8.89176 6.86042 8.86587 6.92476 8.85253C6.98911 8.83919 7.05545 8.83867 7.12 8.85099L9.54 9.30899C8.924 8.37399 7.725 6.99999 6 6.99999C3.243 6.99999 1 9.24299 1 12C1 14.757 3.243 17 6 17C8.225 17 9.93 14.322 11.578 11.732C13.372 8.91399 15.226 5.99999 18 5.99999L18.109 5.99899C21.352 5.99899 24.043 8.63699 24.108 11.88C24.1377 13.4705 23.5354 15.0079 22.433 16.1548C21.3307 17.3018 19.8184 17.9646 18.228 17.998L18.123 17.999C17.1217 18.0021 16.1357 17.7542 15.2549 17.278C14.3741 16.8018 13.6267 16.1124 13.081 15.273C13.0179 15.162 12.9995 15.0312 13.0296 14.9071C13.0597 14.7831 13.136 14.6752 13.243 14.6055C13.3499 14.5358 13.4794 14.5096 13.6051 14.5322C13.7307 14.5548 13.843 14.6244 13.919 14.727C14.3687 15.424 14.9859 15.9971 15.7142 16.3942C16.4424 16.7912 17.2585 16.9995 18.088 17L18.208 16.999C19.5334 16.9712 20.7936 16.4188 21.7124 15.4632C22.6311 14.5075 23.1334 13.2264 23.109 11.901C23.056 9.19899 20.809 6.99999 18.101 6.99999H18.009C15.774 6.99999 14.07 9.67799 12.422 12.268C10.629 15.086 8.775 18 6 18Z" fill="currentColor"/>
</g>
<defs>
<clipPath id="clip0_1_113950">
<rect width="24" height="24" fill="white"/>
</clipPath>
</defs>
</svg>
