<svg width="24" height="24" viewBox="0 0 24 24" fill="none" xmlns="http://www.w3.org/2000/svg">
<path d="M2.188 22.46C1.92783 22.4595 1.67226 22.3913 1.44634 22.2623C1.22042 22.1333 1.0319 21.9477 0.899226 21.7239C0.766556 21.5001 0.694296 21.2457 0.689523 20.9856C0.68475 20.7255 0.747629 20.4685 0.871999 20.24L10.684 2.32203C10.8136 2.08641 11.0041 1.88992 11.2356 1.75306C11.4671 1.6162 11.7311 1.54401 12 1.54401C12.2689 1.54401 12.5329 1.6162 12.7644 1.75306C12.9959 1.88992 13.1864 2.08641 13.316 2.32203L23.128 20.24C23.32 20.591 23.364 20.996 23.251 21.381C23.1613 21.6928 22.9724 21.9669 22.7129 22.1616C22.4534 22.3564 22.1374 22.4611 21.813 22.46H2.188ZM12.002 2.54303C11.9121 2.54278 11.8237 2.5668 11.7463 2.61256C11.6688 2.65832 11.6052 2.72412 11.562 2.80303L1.75 20.72C1.70856 20.7962 1.68764 20.8818 1.68927 20.9684C1.6909 21.0551 1.71504 21.1399 1.75931 21.2144C1.80358 21.2889 1.86647 21.3507 1.9418 21.3935C2.01713 21.4364 2.10232 21.459 2.189 21.459H21.813C21.8997 21.459 21.9849 21.4364 22.0602 21.3935C22.1355 21.3507 22.1984 21.2889 22.2427 21.2144C22.287 21.1399 22.3111 21.0551 22.3127 20.9684C22.3144 20.8818 22.2934 20.7962 22.252 20.72L12.439 2.80203C12.3957 2.72396 12.3324 2.65882 12.2556 2.61331C12.1788 2.56779 12.0913 2.54353 12.002 2.54303Z" fill="currentColor"/>
<path d="M12 16.46C11.8674 16.46 11.7402 16.4073 11.6464 16.3136C11.5527 16.2198 11.5 16.0926 11.5 15.96V9.46002C11.5 9.32741 11.5527 9.20024 11.6464 9.10647C11.7402 9.0127 11.8674 8.96002 12 8.96002C12.1326 8.96002 12.2598 9.0127 12.3536 9.10647C12.4473 9.20024 12.5 9.32741 12.5 9.46002V15.96C12.5 16.0926 12.4473 16.2198 12.3536 16.3136C12.2598 16.4073 12.1326 16.46 12 16.46Z" fill="currentColor"/>
<path d="M12 19.21C11.8011 19.21 11.6103 19.131 11.4697 18.9904C11.329 18.8497 11.25 18.6589 11.25 18.46C11.25 18.2611 11.329 18.0703 11.4697 17.9297C11.6103 17.789 11.8011 17.71 12 17.71C12.1989 17.71 12.3897 17.789 12.5303 17.9297C12.671 18.0703 12.75 18.2611 12.75 18.46C12.75 18.6589 12.671 18.8497 12.5303 18.9904C12.3897 19.131 12.1989 19.21 12 19.21Z" fill="currentColor"/>
</svg>
