<svg width="24" height="24" viewBox="0 0 24 24" fill="none" xmlns="http://www.w3.org/2000/svg">
<g clip-path="url(#clip0_1_113578)">
<path d="M23.5 24C23.4343 24.0001 23.3692 23.9873 23.3085 23.9622C23.2477 23.9372 23.1925 23.9004 23.146 23.854L14.142 14.85C12.5897 16.2361 10.5811 17.0016 8.5 17C3.813 17 0 13.187 0 8.5C0 3.813 3.813 0 8.5 0C13.187 0 17 3.813 17 8.5C17.0017 10.5813 16.2358 12.5901 14.849 14.142L23.853 23.146C23.923 23.2159 23.9708 23.3049 23.9902 23.402C24.0096 23.499 23.9998 23.5996 23.962 23.691C23.9242 23.7824 23.8601 23.8606 23.7779 23.9156C23.6956 23.9706 23.5989 24 23.5 24ZM8.5 1C4.365 1 1 4.365 1 8.5C1 12.635 4.365 16 8.5 16C12.635 16 16 12.635 16 8.5C16 4.365 12.635 1 8.5 1Z" fill="currentColor"/>
</g>
<defs>
<clipPath id="clip0_1_113578">
<rect width="24" height="24" fill="white"/>
</clipPath>
</defs>
</svg>
