<?xml version="1.0" encoding="UTF-8" standalone="no"?>
<svg
   width="24"
   height="24"
   viewBox="0 0 24 24"
   fill="none"
   version="1.1"
   id="svg2"
   sodipodi:docname="send.svg"
   inkscape:version="1.3.2 (091e20e, 2023-11-25, custom)"
   xmlns:inkscape="http://www.inkscape.org/namespaces/inkscape"
   xmlns:sodipodi="http://sodipodi.sourceforge.net/DTD/sodipodi-0.dtd"
   xmlns="http://www.w3.org/2000/svg"
   xmlns:svg="http://www.w3.org/2000/svg">
  <defs
     id="defs2" />
  <sodipodi:namedview
     id="namedview2"
     pagecolor="#ffffff"
     bordercolor="#000000"
     borderopacity="0.25"
     inkscape:showpageshadow="2"
     inkscape:pageopacity="0.0"
     inkscape:pagecheckerboard="0"
     inkscape:deskcolor="#d1d1d1"
     inkscape:zoom="53.291667"
     inkscape:cx="11.990618"
     inkscape:cy="12"
     inkscape:window-width="2880"
     inkscape:window-height="1514"
     inkscape:window-x="-11"
     inkscape:window-y="-11"
     inkscape:window-maximized="1"
     inkscape:current-layer="svg2" />
  <path
     style="color:#000000;fill:currentColor;stroke-linecap:round;stroke-linejoin:round;-inkscape-stroke:none"
     d="M 2.359375,1.0429687 C 1.9393548,1.1178357 1.5555535,1.3254399 1.2617187,1.6347656 0.96788429,1.944091 0.77977961,2.3384214 0.7265625,2.7617188 0.673359,3.1850139 0.75669925,3.6158528 0.96484375,3.9882813 a 0.50005,0.50005 0 0 0 0.009766,0.015625 L 5.8730469,11.994141 0.97460938,19.996094 a 0.50005,0.50005 0 0 0 -0.009766,0.01758 C 0.7567376,20.386085 0.673367,20.814957 0.7265625,21.238281 c 0.0532198,0.423279 0.24139849,0.819569 0.5351562,1.128906 0.293855,0.309308 0.6777305,0.516894 1.0976563,0.591797 0.4200718,0.07493 0.8537223,0.01298 1.2363281,-0.175781 a 0.50005,0.50005 0 0 0 0.00586,-0.0039 L 22.615234,13.107422 c 0.20582,-0.104578 0.377476,-0.262474 0.498047,-0.458984 a 0.50005,0.50005 0 0 0 0,-0.002 c 0.120419,-0.196534 0.185547,-0.421699 0.185547,-0.652343 0,-0.230645 -0.06513,-0.457763 -0.185547,-0.654297 -0.120571,-0.196511 -0.292227,-0.35636 -0.498047,-0.460938 L 3.6015625,1.2207031 A 0.50005,0.50005 0 0 0 3.5957031,1.21875 C 3.2130916,1.0300104 2.7793919,0.96809999 2.359375,1.0429687 Z m 0.1757813,0.9843751 c 0.2101024,-0.037451 0.4277327,-0.00653 0.6191406,0.087891 L 22.162109,11.771484 c 0.04098,0.02082 0.07538,0.05231 0.09961,0.0918 0.02418,0.03947 0.03711,0.0847 0.03711,0.13086 0,0.04615 -0.01293,0.09139 -0.03711,0.130859 -0.02423,0.03949 -0.05863,0.07098 -0.09961,0.0918 L 3.1542969,21.886719 c -5.919e-4,2.92e-4 -0.00136,-2.91e-4 -0.00195,0 -0.1909752,0.09375 -0.4077895,0.125243 -0.6171875,0.08789 C 2.3249427,21.937113 2.1332927,21.832427 1.9863281,21.677734 1.8392663,21.522873 1.7453702,21.325002 1.71875,21.113281 1.6921256,20.901407 1.7337371,20.688339 1.8378906,20.501953 l 5.0488281,-8.248047 a 0.50005,0.50005 0 0 0 0,-0.521484 L 1.8378906,3.5 c -3.195e-4,-5.717e-4 3.184e-4,-0.00138 0,-0.00195 C 1.7344765,3.3121551 1.6922153,3.0978331 1.71875,2.8867188 1.7453728,2.6749567 1.839343,2.4769998 1.9863281,2.3222656 2.133313,2.1675318 2.3250371,2.0647967 2.5351563,2.0273438 Z"
     id="path1" />
  <path
     style="color:#000000;fill:currentColor;stroke-linecap:round;stroke-linejoin:round;-inkscape-stroke:none"
     d="m 6.453125,11.494141 a 0.5,0.5 0 0 0 -0.5,0.5 0.5,0.5 0 0 0 0.5,0.5 h 16.34375 a 0.5,0.5 0 0 0 0.5,-0.5 0.5,0.5 0 0 0 -0.5,-0.5 z"
     id="path2" />
</svg>
