<svg width="24" height="24" viewBox="0 0 24 24" fill="none" xmlns="http://www.w3.org/2000/svg">
<g clip-path="url(#clip0_1_113623)">
<path d="M5 19.5C4.449 19.5 4 19.052 4 18.5V13.5C4 12.948 4.449 12.5 5 12.5H12C12.2652 12.5 12.5196 12.6054 12.7071 12.7929C12.8946 12.9804 13 13.2348 13 13.5V18.5C13 18.7652 12.8946 19.0196 12.7071 19.2071C12.5196 19.3946 12.2652 19.5 12 19.5H5ZM5 18.5H12V13.5H5V18.5Z" fill="currentColor"/>
<path d="M3.50001 22.5C2.67301 22.5 2.00001 21.827 2.00001 21V10.17C1.38645 9.89932 0.868018 9.45107 0.51155 8.88304C0.155081 8.31501 -0.0230877 7.65323 8.53394e-06 6.98301V6.00001C0.000719284 5.92383 0.0181282 5.84873 0.0510085 5.78001L1.77701 2.32901C1.90064 2.07925 2.09184 1.86916 2.32888 1.72262C2.56593 1.57608 2.83932 1.49896 3.11801 1.50001H20.882C21.1608 1.49905 21.4343 1.57632 21.6713 1.72305C21.9084 1.86977 22.0995 2.08006 22.223 2.33001L23.947 5.77701C23.953 5.78801 23.958 5.80301 23.963 5.81701L23.969 5.83301C23.9892 5.88638 23.9997 5.94294 24 6.00001V6.99601C24.02 7.66409 23.8404 8.32297 23.4842 8.8885C23.1279 9.45403 22.6112 9.90054 22 10.171V21C22 21.827 21.327 22.5 20.5 22.5H3.50001ZM20.5 21.5C20.6326 21.5 20.7598 21.4473 20.8536 21.3536C20.9473 21.2598 21 21.1326 21 21V10.441C20.917 10.451 20.835 10.457 20.757 10.46L20.643 10.462C19.8979 10.4634 19.1735 10.2168 18.584 9.76101C17.9006 10.623 16.9284 11.2086 15.847 11.4099C14.7655 11.6111 13.6478 11.4144 12.7 10.856C12.4508 10.709 12.2164 10.5382 12 10.346C11.1687 11.0848 10.0942 11.4911 8.98201 11.487C8.2958 11.4877 7.61838 11.3327 7.00071 11.0337C6.38305 10.7347 5.84122 10.2996 5.41601 9.76101C4.72878 10.2911 3.86263 10.5338 3.00001 10.438V21C3.00001 21.1326 3.05269 21.2598 3.14646 21.3536C3.24022 21.4473 3.3674 21.5 3.50001 21.5H14V13.5C14 13.2348 14.1054 12.9804 14.2929 12.7929C14.4804 12.6054 14.7348 12.5 15 12.5H19C19.2652 12.5 19.5196 12.6054 19.7071 12.7929C19.8947 12.9804 20 13.2348 20 13.5V21.5H20.5ZM19 21.5V13.5H15V21.5H19ZM12.5 9.43801C12.8282 9.76925 13.2187 10.0324 13.6489 10.2122C14.0792 10.3921 14.5407 10.4851 15.007 10.486C15.6032 10.4887 16.1904 10.3404 16.7137 10.0548C17.2371 9.76927 17.6796 9.35581 18 8.85301V6.50001H12.5V9.43801ZM6.00001 8.85501C6.31946 9.35504 6.75977 9.7665 7.28026 10.0514C7.80075 10.3363 8.38465 10.4854 8.97801 10.485C9.92301 10.485 10.837 10.104 11.499 9.43701V6.50001H6.00001V8.85501ZM19 8.79501C19.443 9.22601 20.02 9.46201 20.635 9.46201C20.664 9.46201 20.692 9.46201 20.721 9.46001C21.347 9.43759 21.9384 9.16778 22.3657 8.70978C22.7929 8.25178 23.0211 7.643 23 7.01701V6.50001H19V8.79501ZM1.00001 7.00001C0.986371 7.34941 1.05012 7.6975 1.18669 8.0194C1.32326 8.34129 1.52928 8.62902 1.79001 8.86201C2.22201 9.24601 2.77801 9.45801 3.35601 9.45801C3.9688 9.45722 4.55767 9.22009 5.00001 8.79601V6.50001H1.00001V7.00001ZM22.691 5.50001L21.329 2.77701C21.2879 2.69366 21.2242 2.62351 21.1451 2.57455C21.0661 2.52558 20.975 2.49976 20.882 2.50001H18.141L18.891 5.50001H22.691ZM17.86 5.50001L17.11 2.50001H12.5V5.50001H17.86ZM11.5 5.50001V2.50001H6.89001L6.14001 5.50001H11.5ZM5.11001 5.50001L5.86001 2.50001H3.11801C3.02516 2.49967 2.93407 2.52534 2.85506 2.57412C2.77606 2.62291 2.7123 2.69284 2.67101 2.77601L1.30901 5.50001H5.11001Z" fill="currentColor"/>
</g>
<defs>
<clipPath id="clip0_1_113623">
<rect width="24" height="24" fill="white"/>
</clipPath>
</defs>
</svg>
