<svg width="24" height="24" viewBox="0 0 24 24" fill="none" xmlns="http://www.w3.org/2000/svg">
<path d="M12.0904 13.52C8.64043 13.52 5.83043 10.71 5.82043 7.26C5.81043 3.81 8.63043 1 12.0904 1C15.5504 1 18.3504 3.81 18.3504 7.26C18.3504 10.71 15.5404 13.52 12.0904 13.52ZM12.0904 2.67C10.8722 2.67 9.70365 3.15327 8.84127 4.01377C7.97889 4.87428 7.49308 6.04174 7.49043 7.26C7.49308 8.47826 7.97889 9.64572 8.84127 10.5062C9.70365 11.3667 10.8722 11.85 12.0904 11.85C13.307 11.8474 14.4729 11.3629 15.3331 10.5027C16.1934 9.64248 16.6778 8.47653 16.6804 7.26C16.6778 6.04347 16.1934 4.87752 15.3331 4.0173C14.4729 3.15708 13.307 2.67264 12.0904 2.67Z" fill="currentColor"/>
<path d="M20.5304 21.87C20.36 21.8683 20.1941 21.8148 20.0547 21.7165C19.9154 21.6183 19.8093 21.48 19.7504 21.32C19.3902 20.3251 18.8361 19.4115 18.1203 18.6322C17.4045 17.8529 16.5412 17.2234 15.5804 16.78C14.6241 16.3306 13.5881 16.0753 12.5325 16.0289C11.4768 15.9826 10.4225 16.1461 9.43044 16.51C8.32401 16.9102 7.31891 17.5484 6.48607 18.3795C5.65323 19.2106 5.01296 20.2144 4.61044 21.32C4.57301 21.4224 4.51577 21.5165 4.442 21.5968C4.36822 21.6771 4.27935 21.7421 4.18045 21.7881C4.08156 21.834 3.97458 21.8601 3.86562 21.8647C3.75667 21.8693 3.64787 21.8524 3.54544 21.815C3.443 21.7776 3.34895 21.7203 3.26864 21.6466C3.18833 21.5728 3.12333 21.4839 3.07737 21.385C3.0314 21.2861 3.00537 21.1791 3.00075 21.0702C2.99612 20.9612 3.01301 20.8524 3.05044 20.75C3.53467 19.4154 4.30596 18.2033 5.30987 17.1994C6.31378 16.1955 7.52582 15.4242 8.86044 14.94C10.0594 14.5019 11.3332 14.3055 12.6084 14.3621C13.8837 14.4188 15.1351 14.7273 16.2904 15.27C17.4476 15.8068 18.4869 16.5674 19.3485 17.5079C20.2101 18.4485 20.8769 19.5504 21.3104 20.75C21.3573 20.8757 21.373 21.0109 21.3562 21.1441C21.3394 21.2772 21.2905 21.4042 21.2139 21.5143C21.1372 21.6245 21.0349 21.7143 20.9159 21.7763C20.7969 21.8382 20.6646 21.8704 20.5304 21.87Z" fill="currentColor"/>
</svg>
