<?xml version="1.0" encoding="UTF-8" standalone="no"?>
<svg
   width="24"
   height="24"
   viewBox="0 0 24 24"
   fill="none"
   version="1.1"
   id="svg1"
   sodipodi:docname="start.svg"
   inkscape:version="1.3.2 (091e20e, 2023-11-25, custom)"
   xmlns:inkscape="http://www.inkscape.org/namespaces/inkscape"
   xmlns:sodipodi="http://sodipodi.sourceforge.net/DTD/sodipodi-0.dtd"
   xmlns="http://www.w3.org/2000/svg"
   xmlns:svg="http://www.w3.org/2000/svg">
  <sodipodi:namedview
     id="namedview1"
     pagecolor="#ffffff"
     bordercolor="#000000"
     borderopacity="0.25"
     inkscape:showpageshadow="2"
     inkscape:pageopacity="0.0"
     inkscape:pagecheckerboard="0"
     inkscape:deskcolor="#d1d1d1"
     inkscape:zoom="53.291667"
     inkscape:cx="11.990618"
     inkscape:cy="12"
     inkscape:window-width="2880"
     inkscape:window-height="1514"
     inkscape:window-x="-11"
     inkscape:window-y="-11"
     inkscape:window-maximized="1"
     inkscape:current-layer="g1" />
  <g
     clip-path="url(#clip0_1_113698)"
     id="g1">
    <path
       style="color:#000000;fill:currentColor;stroke-linecap:round;stroke-linejoin:round;-inkscape-stroke:none"
       d="M 1.9316406,0.61914062 C 1.6769749,0.63092279 1.427813,0.70779641 1.2109375,0.84179688 0.9934912,0.97612577 0.81397548,1.1635475 0.68945312,1.3867187 0.56492311,1.6098919 0.50013499,1.8616177 0.5,2.1171875 V 21.882812 c 1.3499e-4,0.255575 0.0649417,0.507329 0.18945312,0.730469 0.12453196,0.223204 0.30415834,0.410593 0.52148438,0.544922 0.2175065,0.134451 0.4655286,0.211113 0.7207031,0.222656 a 0.50005,0.50005 0 0 0 0.00195,0 c 0.2550738,0.01139 0.5075944,-0.04385 0.7363282,-0.158203 L 22.435547,13.341797 c 0.248943,-0.124697 0.457361,-0.31775 0.603515,-0.554688 0.146256,-0.236858 0.22461,-0.508887 0.22461,-0.787109 0,-0.278222 -0.07835,-0.550251 -0.22461,-0.787109 C 22.892908,10.975953 22.68449,10.7829 22.435547,10.658203 L 2.6699219,0.77734375 C 2.4419058,0.66341049 2.1882636,0.60799534 1.9335937,0.61914062 Z m 0.046875,0.99999998 c 0.085118,-0.00384 0.1678953,0.014637 0.2441407,0.052734 l 19.7636717,9.880859 c 0.08286,0.0415 0.152526,0.104732 0.201172,0.183594 a 0.50005,0.50005 0 0 0 0,0.002 c 0.04874,0.07894 0.07617,0.168941 0.07617,0.261719 0,0.09278 -0.02743,0.182778 -0.07617,0.261719 a 0.50005,0.50005 0 0 0 0,0.002 c -0.04865,0.07886 -0.118315,0.14209 -0.201172,0.183594 L 2.2226563,22.328125 c -0.075529,0.03776 -0.159434,0.05619 -0.2441407,0.05273 -0.085265,-0.0039 -0.1678412,-0.02947 -0.2402344,-0.07422 C 1.6656876,22.26177 1.605961,22.199396 1.5644531,22.125 a 0.50005,0.50005 0 0 0 -0.00195,0 C 1.5212635,22.051099 1.5003685,21.967373 1.5,21.882812 V 2.1191406 c 4.5e-5,-0.08521 0.02097,-0.169714 0.0625,-0.2441406 0.041518,-0.074408 0.1013547,-0.1368697 0.1738281,-0.1816406 0.072488,-0.044788 0.1570791,-0.070389 0.2421875,-0.074219 z"
       id="path1" />
  </g>
  <defs
     id="defs1">
    <clipPath
       id="clip0_1_113698">
      <rect
         width="24"
         height="24"
         fill="white"
         id="rect1" />
    </clipPath>
  </defs>
</svg>
