<svg width="24" height="24" viewBox="0 0 24 24" fill="none" xmlns="http://www.w3.org/2000/svg">
<g clip-path="url(#clip0_1_113841)">
<path d="M18.527 23.2469C18.3141 23.2474 18.1067 23.1798 17.935 23.0539L12.001 18.6999L6.06399 23.0539C5.893 23.1781 5.68707 23.2449 5.47576 23.2447C5.26445 23.2446 5.05861 23.1775 4.8878 23.0531C4.71698 22.9287 4.58996 22.7534 4.52496 22.5523C4.45995 22.3513 4.46032 22.1348 4.52599 21.9339L6.91899 14.7459L1.20799 10.0119C1.0511 9.87987 0.938621 9.70275 0.885782 9.5046C0.832944 9.30644 0.842306 9.09683 0.9126 8.90418C0.982895 8.71152 1.11072 8.54514 1.27876 8.42758C1.44679 8.31001 1.64691 8.24695 1.85199 8.24695H8.64699L11.062 1.40395C11.211 1.00695 11.588 0.746948 12.002 0.746948C12.2052 0.747432 12.4034 0.809665 12.5704 0.925394C12.7374 1.04112 12.8652 1.20488 12.937 1.39495L15.354 8.24695H22.148C22.3522 8.24748 22.5513 8.31044 22.7187 8.42737C22.886 8.54431 23.0136 8.70962 23.0844 8.90115C23.1551 9.09268 23.1656 9.30126 23.1144 9.49891C23.0632 9.69656 22.9528 9.87383 22.798 10.0069L17.083 14.7459L19.475 21.9319C19.5239 22.0821 19.5367 22.2417 19.5124 22.3978C19.488 22.5539 19.4272 22.702 19.3348 22.8301C19.2424 22.9582 19.1211 23.0628 18.9808 23.1352C18.8404 23.2076 18.6849 23.2459 18.527 23.2469ZM7.81999 14.1939C7.97799 14.3239 8.03999 14.5429 7.97499 14.7369L5.47499 22.2469L11.705 17.6759C11.7906 17.6125 11.8944 17.5782 12.001 17.5782C12.1076 17.5782 12.2114 17.6125 12.297 17.6759L18.527 22.2469L16.027 14.7369C15.9958 14.6412 15.9939 14.5383 16.0218 14.4415C16.0496 14.3448 16.1057 14.2585 16.183 14.1939L22.156 9.24195L15.002 9.24695C14.8987 9.24689 14.798 9.21484 14.7136 9.15522C14.6293 9.09559 14.5655 9.0113 14.531 8.91395L12 1.73795L9.47199 8.91395C9.43749 9.0113 9.37369 9.09559 9.28935 9.15522C9.20501 9.21484 9.10428 9.24689 9.00099 9.24695H1.85199L7.81999 14.1939Z" fill="currentColor"/>
</g>
<defs>
<clipPath id="clip0_1_113841">
<rect width="24" height="24" fill="white"/>
</clipPath>
</defs>
</svg>
