<svg width="15" height="24" viewBox="0 0 15 24" fill="none" xmlns="http://www.w3.org/2000/svg">
<path d="M7.04996 19.64C6.88924 19.6405 6.7308 19.6021 6.58825 19.528C6.4457 19.454 6.32331 19.3466 6.23158 19.215C4.36716 16.572 0.0315552 10.092 0.0315552 7C0.0315552 3.14 3.18071 0 7.05197 0C10.9232 0 14.0724 3.14 14.0724 7C14.0724 10.093 9.73677 16.572 7.87235 19.215C7.78006 19.347 7.65698 19.4546 7.51373 19.5286C7.37047 19.6027 7.21131 19.6409 7.04996 19.64ZM7.05197 1C3.73432 1 1.03447 3.692 1.03447 7C1.03447 9.886 5.63986 16.638 7.05197 18.639C8.46307 16.638 13.0695 9.885 13.0695 7C13.0695 3.692 10.3696 1 7.05197 1Z" fill="currentColor"/>
<path d="M13.571 24C13.5208 24 13.4707 23.992 13.4236 23.978L7.05205 22.023L0.680524 23.978C0.617576 23.9976 0.551361 24.0046 0.485699 23.9985C0.420036 23.9925 0.356226 23.9735 0.297951 23.9427C0.239676 23.912 0.18809 23.87 0.146168 23.8192C0.104247 23.7685 0.0728199 23.7099 0.0537019 23.647C0.014853 23.5202 0.0279763 23.3833 0.0901974 23.2661C0.152418 23.149 0.258665 23.0612 0.385667 23.022L5.34709 21.5L0.385667 19.978C0.318777 19.9621 0.25588 19.9326 0.200872 19.8915C0.145864 19.8503 0.0999164 19.7983 0.0658738 19.7387C0.0318311 19.6792 0.0104185 19.6132 0.002962 19.5451C-0.0044945 19.4769 0.00216353 19.4079 0.0225244 19.3424C0.0428852 19.2769 0.0765151 19.2163 0.121331 19.1643C0.166148 19.1123 0.221196 19.07 0.283068 19.04C0.34494 19.0101 0.412318 18.9931 0.48103 18.9902C0.549742 18.9873 0.618324 18.9984 0.68253 19.023L7.05205 20.977L13.4236 19.022C13.4865 19.0023 13.5528 18.9952 13.6185 19.0012C13.6842 19.0072 13.748 19.0261 13.8063 19.0569C13.8646 19.0877 13.9162 19.1298 13.9581 19.1806C14 19.2314 14.0314 19.29 14.0504 19.353C14.0698 19.4158 14.0765 19.4818 14.0703 19.5471C14.0641 19.6125 14.0451 19.6761 14.0143 19.7341C13.9834 19.7921 13.9414 19.8435 13.8907 19.8854C13.8399 19.9273 13.7814 19.9587 13.7184 19.978L8.757 21.5L13.7184 23.022C13.8333 23.0572 13.9317 23.1322 13.9957 23.2336C14.0597 23.335 14.0851 23.4559 14.0672 23.5743C14.0493 23.6928 13.9894 23.8009 13.8984 23.879C13.8073 23.9572 13.6911 24.0001 13.571 24Z" fill="currentColor"/>
<path d="M7.05205 10C5.39323 10 4.0433 8.654 4.0433 7C4.0433 5.346 5.39323 4 7.05205 4C8.71087 4 10.0608 5.346 10.0608 7C10.0608 8.654 8.71087 10 7.05205 10ZM7.05205 5C5.94584 5 5.04622 5.897 5.04622 7C5.04622 8.103 5.94584 9 7.05205 9C8.15827 9 9.05788 8.103 9.05788 7C9.05788 5.897 8.15827 5 7.05205 5Z" fill="currentColor"/>
</svg>
