<svg width="24" height="24" viewBox="0 0 24 24" fill="none" xmlns="http://www.w3.org/2000/svg">
<g clip-path="url(#clip0_1_113979)">
<path d="M10.505 24.002C9.71438 24.0014 8.93777 23.7934 8.25271 23.3987C7.56765 23.0041 6.99812 22.4366 6.60098 21.753C6.30395 21.2418 6.11124 20.6767 6.03399 20.0906C5.95675 19.5044 5.99651 18.9087 6.15098 18.338C6.43194 17.2826 7.08877 16.3661 7.99798 15.761V2.49699C7.99798 1.11799 9.11898 -0.00300598 10.498 -0.00300598C11.877 -0.00300598 12.998 1.11799 12.998 2.49699V15.761C13.5716 16.1446 14.0495 16.6546 14.395 17.252C14.6919 17.7633 14.8845 18.3283 14.9615 18.9145C15.0386 19.5007 14.9986 20.0964 14.844 20.667C14.6925 21.2384 14.4291 21.7741 14.0692 22.2431C13.7092 22.712 13.2598 23.1049 12.747 23.399C12.0657 23.7937 11.2923 24.0017 10.505 24.002ZM10.498 0.996994C9.67098 0.996994 8.99798 1.66999 8.99798 2.49699V16.038C8.99778 16.1257 8.97459 16.2119 8.93072 16.2878C8.88686 16.3638 8.82385 16.427 8.74798 16.471C8.34905 16.6997 7.99946 17.0052 7.71949 17.37C7.43952 17.7348 7.23473 18.1515 7.11698 18.596C6.99668 19.0398 6.96567 19.5032 7.02575 19.9591C7.08583 20.415 7.2358 20.8545 7.46698 21.252C7.77596 21.7837 8.21903 22.2251 8.75196 22.532C9.28488 22.8389 9.889 23.0006 10.504 23.001C11.2744 23.0009 12.0233 22.7465 12.6343 22.2771C13.2453 21.8078 13.6843 21.1499 13.8831 20.4056C14.0819 19.6612 14.0294 18.8721 13.7337 18.1606C13.4381 17.4491 12.9158 16.8552 12.248 16.471C12.1721 16.427 12.1091 16.3638 12.0652 16.2878C12.0214 16.2119 11.9982 16.1257 11.998 16.038V2.49699C11.998 1.66999 11.325 0.996994 10.498 0.996994Z" fill="currentColor"/>
<path d="M10.498 20.997C9.67099 20.997 8.99799 20.324 8.99799 19.497C8.99799 18.857 9.40799 18.292 9.99799 18.083V7.49699C9.99799 7.36439 10.0507 7.23721 10.1444 7.14344C10.2382 7.04967 10.3654 6.99699 10.498 6.99699C10.6306 6.99699 10.7578 7.04967 10.8515 7.14344C10.9453 7.23721 10.998 7.36439 10.998 7.49699V18.083C11.3303 18.2021 11.61 18.4344 11.7879 18.7393C11.9659 19.0441 12.0307 19.4019 11.971 19.7498C11.9113 20.0977 11.7309 20.4135 11.4615 20.6416C11.1921 20.8697 10.851 20.9955 10.498 20.997ZM10.498 18.997C10.3654 18.997 10.2382 19.0497 10.1444 19.1434C10.0507 19.2372 9.99799 19.3644 9.99799 19.497C9.99799 19.6296 10.0507 19.7568 10.1444 19.8505C10.2382 19.9443 10.3654 19.997 10.498 19.997C10.6306 19.997 10.7578 19.9443 10.8515 19.8505C10.9453 19.7568 10.998 19.6296 10.998 19.497C10.998 19.3644 10.9453 19.2372 10.8515 19.1434C10.7578 19.0497 10.6306 18.997 10.498 18.997Z" fill="currentColor"/>
<path d="M14.498 2.99699C14.3654 2.99699 14.2382 2.94432 14.1444 2.85055C14.0507 2.75678 13.998 2.6296 13.998 2.49699C13.998 2.36439 14.0507 2.23721 14.1444 2.14344C14.2382 2.04967 14.3654 1.99699 14.498 1.99699H15.498C15.6306 1.99699 15.7578 2.04967 15.8515 2.14344C15.9453 2.23721 15.998 2.36439 15.998 2.49699C15.998 2.6296 15.9453 2.75678 15.8515 2.85055C15.7578 2.94432 15.6306 2.99699 15.498 2.99699H14.498Z" fill="currentColor"/>
<path d="M14.498 7.99699C14.3654 7.99699 14.2382 7.94432 14.1444 7.85055C14.0507 7.75678 13.998 7.6296 13.998 7.49699C13.998 7.36439 14.0507 7.23721 14.1444 7.14344C14.2382 7.04967 14.3654 6.99699 14.498 6.99699H17.498C17.6306 6.99699 17.7578 7.04967 17.8515 7.14344C17.9453 7.23721 17.998 7.36439 17.998 7.49699C17.998 7.6296 17.9453 7.75678 17.8515 7.85055C17.7578 7.94432 17.6306 7.99699 17.498 7.99699H14.498Z" fill="currentColor"/>
<path d="M14.498 12.997C14.3654 12.997 14.2382 12.9443 14.1444 12.8505C14.0507 12.7568 13.998 12.6296 13.998 12.497C13.998 12.3644 14.0507 12.2372 14.1444 12.1434C14.2382 12.0497 14.3654 11.997 14.498 11.997H15.498C15.6306 11.997 15.7578 12.0497 15.8515 12.1434C15.9453 12.2372 15.998 12.3644 15.998 12.497C15.998 12.6296 15.9453 12.7568 15.8515 12.8505C15.7578 12.9443 15.6306 12.997 15.498 12.997H14.498Z" fill="currentColor"/>
</g>
<defs>
<clipPath id="clip0_1_113979">
<rect width="24" height="24" fill="white"/>
</clipPath>
</defs>
</svg>
