<svg width="24" height="24" viewBox="0 0 24 24" fill="none" xmlns="http://www.w3.org/2000/svg">
<path d="M19.816 20.69C19.7832 20.6902 19.7506 20.6838 19.7202 20.6712C19.6898 20.6587 19.6622 20.6403 19.639 20.617L19.285 20.264C19.238 20.217 19.212 20.154 19.212 20.087C19.212 20.02 19.238 19.957 19.285 19.91C20.3097 18.8908 21.1221 17.6785 21.6751 16.3433C22.2282 15.008 22.5109 13.5763 22.507 12.131C22.5108 10.686 22.228 9.25446 21.6749 7.91938C21.1219 6.5843 20.3096 5.37214 19.285 4.35305C19.1913 4.25916 19.1386 4.13187 19.1387 3.99919C19.1388 3.86651 19.1916 3.7393 19.2855 3.64555C19.3794 3.55179 19.5067 3.49917 19.6394 3.49927C19.772 3.49936 19.8993 3.55216 19.993 3.64605C21.1109 4.75762 21.9972 6.07992 22.6006 7.53639C23.204 8.99286 23.5124 10.5546 23.508 12.131C23.508 15.336 22.26 18.35 19.993 20.616C19.9699 20.6395 19.9423 20.6581 19.912 20.6709C19.8816 20.6836 19.849 20.6901 19.816 20.69Z" fill="currentColor"/>
<path d="M16.807 17.9341C16.708 17.9342 16.6111 17.905 16.5287 17.8501C16.4463 17.7952 16.3821 17.717 16.3442 17.6255C16.3063 17.5341 16.2964 17.4334 16.3157 17.3363C16.3351 17.2392 16.3829 17.15 16.453 17.0801C17.105 16.4315 17.622 15.6601 17.9738 14.8104C18.3257 13.9608 18.5056 13.0497 18.503 12.1301C18.503 10.2601 17.775 8.50207 16.453 7.18007C16.4065 7.13358 16.3696 7.07839 16.3445 7.01765C16.3193 6.95692 16.3064 6.89182 16.3064 6.82607C16.3064 6.76033 16.3193 6.69523 16.3445 6.63449C16.3696 6.57375 16.4065 6.51856 16.453 6.47207C16.4995 6.42558 16.5547 6.38871 16.6154 6.36355C16.6761 6.33839 16.7412 6.32544 16.807 6.32544C16.8727 6.32544 16.9378 6.33839 16.9986 6.36355C17.0593 6.38871 17.1145 6.42558 17.161 6.47207C17.9062 7.21325 18.4969 8.09487 18.8991 9.06589C19.3013 10.0369 19.5069 11.0781 19.504 12.1291C19.5069 13.1801 19.3013 14.2212 18.8991 15.1923C18.4969 16.1633 17.9062 17.0449 17.161 17.7861C17.1148 17.8331 17.0597 17.8704 16.9989 17.8958C16.9381 17.9212 16.8729 17.9342 16.807 17.9341Z" fill="currentColor"/>
<path d="M4.37399 20.764C4.3021 20.764 4.23105 20.7486 4.16566 20.7188C4.10026 20.6889 4.04205 20.6453 3.99499 20.591C1.74999 18.347 0.507991 15.337 0.509991 12.13C0.505807 10.5542 0.813932 8.99317 1.41656 7.53714C2.0192 6.08111 2.90439 4.75893 4.02099 3.647C4.11675 3.5646 4.2401 3.52142 4.36634 3.5261C4.49258 3.53078 4.61239 3.58298 4.70178 3.67225C4.79117 3.76151 4.84354 3.88125 4.8484 4.00748C4.85326 4.13372 4.81025 4.25713 4.72799 4.353C3.70329 5.372 2.89089 6.58414 2.33783 7.91924C1.78477 9.25434 1.50204 10.6859 1.50599 12.131C1.50599 15.067 2.64899 17.828 4.72399 19.905C4.79509 19.9746 4.84385 20.0638 4.86407 20.1612C4.88428 20.2587 4.87502 20.3599 4.83748 20.452C4.79993 20.5442 4.7358 20.6231 4.65325 20.6786C4.57071 20.7342 4.47349 20.7639 4.37399 20.764Z" fill="currentColor"/>
<path d="M7.20599 17.934C7.14028 17.9341 7.0752 17.9213 7.01446 17.8962C6.95371 17.8712 6.8985 17.8344 6.85199 17.788C6.1074 17.0466 5.51728 16.1649 5.11579 15.1938C4.7143 14.2228 4.50941 13.1818 4.51299 12.131C4.51299 9.99201 5.34399 7.98301 6.85299 6.47401C6.89928 6.42736 6.95435 6.39033 7.01502 6.36506C7.07569 6.33979 7.14076 6.32678 7.20649 6.32678C7.27221 6.32678 7.33728 6.33979 7.39795 6.36506C7.45862 6.39033 7.51369 6.42736 7.55999 6.47401C7.60676 6.52023 7.64389 6.57528 7.66924 6.63596C7.69458 6.69664 7.70763 6.76175 7.70763 6.82751C7.70763 6.89327 7.69458 6.95838 7.66924 7.01906C7.64389 7.07974 7.60676 7.13478 7.55999 7.18101C6.90794 7.82955 6.39102 8.60099 6.03914 9.45066C5.68725 10.3003 5.5074 11.2114 5.50999 12.131C5.50999 14.001 6.23799 15.759 7.55999 17.081C7.62975 17.151 7.67721 17.2401 7.69638 17.337C7.71555 17.434 7.70557 17.5344 7.66769 17.6257C7.62981 17.7169 7.56574 17.7949 7.48357 17.8498C7.40139 17.9047 7.3048 17.934 7.20599 17.934Z" fill="currentColor"/>
<path d="M12.006 23.998C11.8734 23.998 11.7462 23.9454 11.6524 23.8516C11.5587 23.7578 11.506 23.6307 11.506 23.498V15.459C9.80598 15.214 8.50598 13.736 8.50598 11.998C8.50598 10.068 10.076 8.49805 12.006 8.49805C13.936 8.49805 15.506 10.068 15.506 11.998C15.506 13.736 14.206 15.214 12.506 15.459V23.498C12.506 23.6307 12.4533 23.7578 12.3595 23.8516C12.2658 23.9454 12.1386 23.998 12.006 23.998ZM12.006 9.49805C10.627 9.49805 9.50598 10.619 9.50598 11.998C9.50598 13.377 10.627 14.498 12.006 14.498C13.384 14.498 14.506 13.377 14.506 11.998C14.506 10.619 13.385 9.49805 12.006 9.49805Z" fill="currentColor"/>
</svg>
