<svg width="24" height="24" viewBox="0 0 24 24" fill="none" xmlns="http://www.w3.org/2000/svg">
<path d="M19.816 20.69C19.7832 20.6901 19.7506 20.6837 19.7202 20.6712C19.6898 20.6587 19.6622 20.6402 19.639 20.617L19.285 20.264C19.238 20.217 19.212 20.154 19.212 20.087C19.212 20.02 19.238 19.957 19.285 19.91C20.3097 18.8908 21.1221 17.6785 21.6751 16.3432C22.2282 15.0079 22.5109 13.5763 22.507 12.131C22.5108 10.6859 22.228 9.25441 21.6749 7.91933C21.1219 6.58425 20.3096 5.3721 19.285 4.353C19.1913 4.25911 19.1386 4.13183 19.1387 3.99915C19.1388 3.86646 19.1916 3.73925 19.2855 3.6455C19.3794 3.55175 19.5067 3.49913 19.6394 3.49922C19.772 3.49932 19.8993 3.55211 19.993 3.646C21.1109 4.75757 21.9972 6.07987 22.6006 7.53634C23.204 8.99281 23.5124 10.5545 23.508 12.131C23.508 15.336 22.26 18.35 19.993 20.616C19.9699 20.6395 19.9423 20.6581 19.912 20.6708C19.8816 20.6835 19.849 20.69 19.816 20.69Z" fill="currentColor"/>
<path d="M16.807 17.934C16.708 17.9342 16.6111 17.9049 16.5287 17.85C16.4463 17.7951 16.3821 17.7169 16.3442 17.6255C16.3063 17.534 16.2964 17.4333 16.3157 17.3362C16.3351 17.2391 16.3829 17.1499 16.453 17.08C17.105 16.4315 17.622 15.66 17.9738 14.8103C18.3257 13.9607 18.5056 13.0496 18.503 12.13C18.503 10.26 17.775 8.50199 16.453 7.17999C16.4065 7.13351 16.3696 7.07832 16.3445 7.01758C16.3193 6.95684 16.3064 6.89174 16.3064 6.82599C16.3064 6.76025 16.3193 6.69515 16.3445 6.63441C16.3696 6.57367 16.4065 6.51848 16.453 6.47199C16.4995 6.42551 16.5547 6.38863 16.6154 6.36347C16.6761 6.33831 16.7412 6.32536 16.807 6.32536C16.8727 6.32536 16.9378 6.33831 16.9986 6.36347C17.0593 6.38863 17.1145 6.42551 17.161 6.47199C17.9062 7.21318 18.4969 8.09479 18.8991 9.06581C19.3013 10.0368 19.5069 11.078 19.504 12.129C19.5069 13.18 19.3013 14.2212 18.8991 15.1922C18.4969 16.1632 17.9062 17.0448 17.161 17.786C17.1148 17.833 17.0597 17.8703 16.9989 17.8957C16.9381 17.9211 16.8729 17.9341 16.807 17.934Z" fill="currentColor"/>
<path d="M4.37399 20.764C4.3021 20.764 4.23105 20.7486 4.16566 20.7188C4.10026 20.6889 4.04205 20.6453 3.99499 20.591C1.74999 18.347 0.507991 15.337 0.509991 12.13C0.505807 10.5542 0.813932 8.99317 1.41656 7.53714C2.0192 6.08111 2.90439 4.75893 4.02099 3.647C4.11675 3.5646 4.2401 3.52142 4.36634 3.5261C4.49258 3.53078 4.61239 3.58298 4.70178 3.67225C4.79117 3.76151 4.84354 3.88125 4.8484 4.00748C4.85326 4.13372 4.81025 4.25713 4.72799 4.353C3.70329 5.372 2.89089 6.58414 2.33783 7.91924C1.78477 9.25434 1.50204 10.6859 1.50599 12.131C1.50599 15.067 2.64899 17.828 4.72399 19.905C4.79509 19.9746 4.84385 20.0638 4.86407 20.1612C4.88428 20.2587 4.87502 20.3599 4.83748 20.452C4.79993 20.5442 4.7358 20.6231 4.65325 20.6786C4.57071 20.7342 4.47349 20.7639 4.37399 20.764Z" fill="currentColor"/>
<path d="M7.20599 17.934C7.14028 17.9341 7.0752 17.9213 7.01446 17.8962C6.95371 17.8712 6.8985 17.8344 6.85199 17.788C6.1074 17.0466 5.51728 16.1648 5.11579 15.1938C4.7143 14.2228 4.50941 13.1817 4.51299 12.131C4.51299 9.99199 5.34399 7.98299 6.85299 6.47399C6.89928 6.42734 6.95435 6.39031 7.01502 6.36504C7.07569 6.33978 7.14076 6.32677 7.20649 6.32677C7.27221 6.32677 7.33728 6.33978 7.39795 6.36504C7.45862 6.39031 7.51369 6.42734 7.55999 6.47399C7.60676 6.52022 7.64389 6.57527 7.66924 6.63595C7.69458 6.69663 7.70763 6.76173 7.70763 6.82749C7.70763 6.89325 7.69458 6.95836 7.66924 7.01904C7.64389 7.07972 7.60676 7.13477 7.55999 7.18099C6.90794 7.82954 6.39102 8.60097 6.03914 9.45064C5.68725 10.3003 5.5074 11.2113 5.50999 12.131C5.50999 14.001 6.23799 15.759 7.55999 17.081C7.62975 17.151 7.67721 17.2401 7.69638 17.337C7.71555 17.4339 7.70557 17.5344 7.66769 17.6256C7.62981 17.7169 7.56574 17.7949 7.48357 17.8498C7.40139 17.9047 7.3048 17.934 7.20599 17.934Z" fill="currentColor"/>
<path d="M12.006 23.998C11.8734 23.998 11.7462 23.9453 11.6524 23.8516C11.5587 23.7578 11.506 23.6306 11.506 23.498V15.459C9.80598 15.214 8.50598 13.736 8.50598 11.998C8.50598 10.068 10.076 8.498 12.006 8.498C13.936 8.498 15.506 10.068 15.506 11.998C15.506 13.736 14.206 15.214 12.506 15.459V23.498C12.506 23.6306 12.4533 23.7578 12.3595 23.8516C12.2658 23.9453 12.1386 23.998 12.006 23.998ZM12.006 9.498C10.627 9.498 9.50598 10.619 9.50598 11.998C9.50598 13.377 10.627 14.498 12.006 14.498C13.384 14.498 14.506 13.377 14.506 11.998C14.506 10.619 13.385 9.498 12.006 9.498Z" fill="currentColor"/>
</svg>
