<?xml version="1.0" encoding="UTF-8" standalone="no"?>
<svg
   width="24"
   height="24"
   viewBox="0 0 24 24"
   fill="none"
   version="1.1"
   id="svg6"
   sodipodi:docname="trash.svg"
   inkscape:version="1.3.2 (091e20e, 2023-11-25, custom)"
   xmlns:inkscape="http://www.inkscape.org/namespaces/inkscape"
   xmlns:sodipodi="http://sodipodi.sourceforge.net/DTD/sodipodi-0.dtd"
   xmlns="http://www.w3.org/2000/svg"
   xmlns:svg="http://www.w3.org/2000/svg">
  <defs
     id="defs6" />
  <sodipodi:namedview
     id="namedview6"
     pagecolor="#ffffff"
     bordercolor="#000000"
     borderopacity="0.25"
     inkscape:showpageshadow="2"
     inkscape:pageopacity="0.0"
     inkscape:pagecheckerboard="0"
     inkscape:deskcolor="#d1d1d1"
     inkscape:zoom="53.291667"
     inkscape:cx="11.990618"
     inkscape:cy="12"
     inkscape:window-width="2880"
     inkscape:window-height="1514"
     inkscape:window-x="-11"
     inkscape:window-y="-11"
     inkscape:window-maximized="1"
     inkscape:current-layer="svg6" />
  <path
     style="color:#000000;fill:currentColor;stroke-linecap:round;stroke-linejoin:round;stroke-miterlimit:10;-inkscape-stroke:none"
     d="M 3.75,9.3496094 A 0.40000001,0.40000001 0 0 0 3.3496094,9.75 v 10.5 c 0,0.901538 0.3585692,1.766784 0.9960937,2.404297 0.6375097,0.637498 1.5027051,0.996094 2.4042969,0.996094 h 12 c 0.901548,0 1.766789,-0.358586 2.404297,-0.996094 0.637508,-0.637508 0.996094,-1.502749 0.996094,-2.404297 V 9.75 A 0.40000001,0.40000001 0 0 0 21.75,9.3496094 0.40000001,0.40000001 0 0 0 21.349609,9.75 v 10.5 c 0,0.68965 -0.274027,1.3502 -0.761718,1.837891 C 20.1002,22.575582 19.43965,22.849609 18.75,22.849609 h -12 c -0.6897066,0 -1.3501814,-0.274018 -1.8378906,-0.761718 C 4.4244151,21.600205 4.1503906,20.93966 4.1503906,20.25 V 9.75 A 0.40000001,0.40000001 0 0 0 3.75,9.3496094 Z"
     id="path1" />
  <path
     style="color:#000000;fill:currentColor;stroke-linecap:round;stroke-linejoin:round;stroke-miterlimit:10;-inkscape-stroke:none"
     d="M 2.25,4.8496094 A 0.40000001,0.40000001 0 0 0 1.8496094,5.25 0.40000001,0.40000001 0 0 0 2.25,5.6503906 h 21 A 0.40000001,0.40000001 0 0 0 23.650391,5.25 0.40000001,0.40000001 0 0 0 23.25,4.8496094 Z"
     id="path2" />
  <path
     style="color:#000000;fill:currentColor;stroke-linecap:round;stroke-linejoin:round;stroke-miterlimit:10;-inkscape-stroke:none"
     d="M 9.75,0.34960938 A 0.40004001,0.40004001 0 0 0 9.3496094,0.75 v 4.5 A 0.40000001,0.40000001 0 0 0 9.75,5.6503906 0.40000001,0.40000001 0 0 0 10.150391,5.25 V 1.1503906 h 5.199218 V 5.25 A 0.40000001,0.40000001 0 0 0 15.75,5.6503906 0.40000001,0.40000001 0 0 0 16.150391,5.25 V 0.75 A 0.40004001,0.40004001 0 0 0 15.75,0.34960938 Z"
     id="path3" />
  <path
     style="color:#000000;fill:currentColor;stroke-linecap:round;stroke-linejoin:round;stroke-miterlimit:10;-inkscape-stroke:none"
     d="M 12.75,10.849609 A 0.40000001,0.40000001 0 0 0 12.349609,11.25 v 7.5 A 0.40000001,0.40000001 0 0 0 12.75,19.150391 0.40000001,0.40000001 0 0 0 13.150391,18.75 v -7.5 A 0.40000001,0.40000001 0 0 0 12.75,10.849609 Z"
     id="path4" />
  <path
     style="color:#000000;fill:currentColor;stroke-linecap:round;stroke-linejoin:round;stroke-miterlimit:10;-inkscape-stroke:none"
     d="M 17.25,10.849609 A 0.40000001,0.40000001 0 0 0 16.849609,11.25 v 7.5 A 0.40000001,0.40000001 0 0 0 17.25,19.150391 0.40000001,0.40000001 0 0 0 17.650391,18.75 v -7.5 A 0.40000001,0.40000001 0 0 0 17.25,10.849609 Z"
     id="path5" />
  <path
     style="color:#000000;fill:currentColor;stroke-linecap:round;stroke-linejoin:round;stroke-miterlimit:10;-inkscape-stroke:none"
     d="M 8.25,10.849609 A 0.40000001,0.40000001 0 0 0 7.8496094,11.25 v 7.5 A 0.40000001,0.40000001 0 0 0 8.25,19.150391 0.40000001,0.40000001 0 0 0 8.6503906,18.75 v -7.5 A 0.40000001,0.40000001 0 0 0 8.25,10.849609 Z"
     id="path6" />
</svg>
