<svg width="24" height="24" viewBox="0 0 24 24" fill="none" xmlns="http://www.w3.org/2000/svg">
<path d="M11.999 23.927C11.7646 23.9269 11.5378 23.8444 11.358 23.694C8.76698 21.4847 6.36867 19.059 4.189 16.443C2.098 13.93 1.158 10.836 1.611 7.95501C2.004 5.45501 3.428 3.31201 5.62 1.92201C7.52236 0.714006 9.72951 0.0729863 11.983 0.0740063H12.017C14.274 0.0740063 16.474 0.713006 18.38 1.92201C20.573 3.31201 21.997 5.45501 22.39 7.95601C22.842 10.837 21.902 13.929 19.812 16.441C17.6334 19.0566 15.236 21.482 12.646 23.691C12.4645 23.8427 12.2356 23.9262 11.999 23.927ZM11.983 1.07401C9.916 1.07401 7.901 1.65901 6.156 2.76601C4.21 4.00001 2.947 5.89701 2.599 8.11001C2.191 10.707 3.05 13.511 4.957 15.803C7.09901 18.3745 9.4562 20.7587 12.003 22.93C14.5457 20.7562 16.9003 18.3718 19.042 15.802C20.949 13.511 21.809 10.708 21.401 8.11201C21.054 5.89801 19.79 4.00001 17.844 2.76601C16.1014 1.66001 14.0799 1.07312 12.016 1.07401H11.983Z" fill="currentColor"/>
<path d="M15.5 16.075C14.397 16.075 13.5 15.178 13.5 14.075H10.5C10.5 15.178 9.60303 16.075 8.50003 16.075C7.39703 16.075 6.50003 15.178 6.50003 14.075C6.23551 14.074 5.98218 13.9681 5.79551 13.7807C5.60883 13.5933 5.50403 13.3395 5.50403 13.075V7.07501C5.50403 6.52401 5.95303 6.07501 6.50403 6.07501H13.504C14.056 6.07501 14.504 6.52401 14.504 7.07501L14.505 8.07501H16C17.378 8.07501 18.5 9.19601 18.5 10.575V13.575C18.5 13.7076 18.4474 13.8348 18.3536 13.9286C18.2598 14.0223 18.1326 14.075 18 14.075H17.5C17.5 15.178 16.603 16.075 15.5 16.075ZM14.558 13.756C14.5212 13.8584 14.5016 13.9662 14.5 14.075C14.5 14.2728 14.5587 14.4661 14.6686 14.6306C14.7784 14.795 14.9346 14.9232 15.1173 14.9989C15.3001 15.0746 15.5011 15.0944 15.6951 15.0558C15.8891 15.0172 16.0673 14.922 16.2071 14.7821C16.347 14.6423 16.4422 14.4641 16.4808 14.2701C16.5194 14.0761 16.4996 13.8751 16.4239 13.6923C16.3482 13.5096 16.22 13.3534 16.0556 13.2435C15.8912 13.1337 15.6978 13.075 15.5 13.075C15.2916 13.0762 15.0888 13.1425 14.9199 13.2646C14.751 13.3867 14.6245 13.5585 14.558 13.756ZM8.50003 13.075C8.24255 13.0865 7.99943 13.1969 7.8213 13.3832C7.64318 13.5695 7.54376 13.8173 7.54376 14.075C7.54376 14.3327 7.64318 14.5806 7.8213 14.7668C7.99943 14.9531 8.24255 15.0635 8.50003 15.075C8.75751 15.0635 9.00062 14.9531 9.17875 14.7668C9.35688 14.5806 9.4563 14.3327 9.4563 14.075C9.4563 13.8173 9.35688 13.5695 9.17875 13.3832C9.00062 13.1969 8.75751 13.0865 8.50003 13.075ZM17.5 13.075V10.575C17.5 9.74801 16.827 9.07501 16 9.07501H14.507L14.512 12.336C14.81 12.166 15.148 12.075 15.5 12.075C16.211 12.075 16.874 12.463 17.229 13.075H17.5ZM13.51 13.075L13.506 8.63501C13.4987 8.59635 13.4987 8.55667 13.506 8.51801L13.504 7.07601L6.50403 7.07501V13.075H6.77103C7.12703 12.463 7.78903 12.075 8.50003 12.075C9.21103 12.075 9.87403 12.463 10.229 13.075H13.51Z" fill="currentColor"/>
</svg>
