<svg width="24" height="24" viewBox="0 0 24 24" fill="none" xmlns="http://www.w3.org/2000/svg">
<g clip-path="url(#clip0_1_113701)">
<path d="M0.5 24C0.367392 24 0.240215 23.9473 0.146447 23.8536C0.0526784 23.7598 0 23.6326 0 23.5C0 23.3674 0.0526784 23.2402 0.146447 23.1464C0.240215 23.0527 0.367392 23 0.5 23H3V6.784C3.00006 6.60774 3.0467 6.43462 3.13521 6.28219C3.22372 6.12976 3.35095 6.00343 3.504 5.916L10 2.204V0.5C10 0.367392 10.0527 0.240215 10.1464 0.146447C10.2402 0.0526784 10.3674 0 10.5 0C10.6326 0 10.7598 0.0526784 10.8536 0.146447C10.9473 0.240215 11 0.367392 11 0.5V7C11 7.551 10.551 8 10 8H9V11H10C10.551 11 11 11.449 11 12V23H13V17.994C13 17.7288 13.1054 17.4744 13.2929 17.2869C13.4804 17.0994 13.7348 16.994 14 16.994H15V13H14C13.7348 13 13.4804 12.8946 13.2929 12.7071C13.1054 12.5196 13 12.2652 13 12V3.494C13 3.36139 13.0527 3.23421 13.1464 3.14045C13.2402 3.04668 13.3674 2.994 13.5 2.994C13.6326 2.994 13.7598 3.04668 13.8536 3.14045C13.9473 3.23421 14 3.36139 14 3.494V6.237L20.582 10.943C20.844 11.131 21 11.435 21 11.757V23H23.5C23.6326 23 23.7598 23.0527 23.8536 23.1464C23.9473 23.2402 24 23.3674 24 23.5C24 23.6326 23.9473 23.7598 23.8536 23.8536C23.7598 23.9473 23.6326 24 23.5 24H0.5ZM20 23V11.757L14 7.466V12H15C15.2652 12 15.5196 12.1054 15.7071 12.2929C15.8946 12.4804 16 12.7348 16 13V17.494C16 17.6266 15.9473 17.7538 15.8536 17.8476C15.7598 17.9413 15.6326 17.994 15.5 17.994H14V20H15.5C15.6326 20 15.7598 20.0527 15.8536 20.1464C15.9473 20.2402 16 20.3674 16 20.5C16 20.6326 15.9473 20.7598 15.8536 20.8536C15.7598 20.9473 15.6326 21 15.5 21H14V23H20ZM10 23V20.994H8.5C8.36739 20.994 8.24021 20.9413 8.14645 20.8476C8.05268 20.7538 8 20.6266 8 20.494C8 20.3614 8.05268 20.2342 8.14645 20.1404C8.24021 20.0467 8.36739 19.994 8.5 19.994H10V17.994H8.5C8.36739 17.994 8.24021 17.9413 8.14645 17.8476C8.05268 17.7538 8 17.6266 8 17.494C8 17.3614 8.05268 17.2342 8.14645 17.1404C8.24021 17.0467 8.36739 16.994 8.5 16.994H10V14.994H8.5C8.36739 14.994 8.24021 14.9413 8.14645 14.8476C8.05268 14.7538 8 14.6266 8 14.494C8 14.3614 8.05268 14.2342 8.14645 14.1404C8.24021 14.0467 8.36739 13.994 8.5 13.994H10V12H9C8.449 12 8 11.551 8 11V8C8 7.449 8.449 7 9 7H10V3.356L4 6.784V23H10Z" fill="currentColor"/>
<path d="M17.5 6C16.9808 6.00346 16.4807 5.80447 16.1058 5.44525C15.7309 5.08604 15.5107 4.59488 15.492 4.076C15.4809 3.81347 15.5222 3.55135 15.6136 3.30496C15.7049 3.05858 15.8444 2.83286 16.024 2.641C16.2883 2.35751 16.629 2.15654 17.005 2.06232C17.381 1.9681 17.7762 1.98466 18.143 2.11C18.297 1.61643 18.5759 1.171 18.9526 0.816874C19.3293 0.462745 19.7911 0.211918 20.2933 0.0886963C20.7954 -0.0345259 21.3209 -0.0259666 21.8187 0.113545C22.3166 0.253056 22.77 0.518791 23.135 0.885002C23.7 1.453 24.01 2.208 24.007 3.009C24.003 3.80251 23.6854 4.56224 23.1233 5.12241C22.5613 5.68257 21.8005 5.99769 21.007 5.999H17.5V6ZM21.016 5C21.54 5 22.04 4.793 22.418 4.419C22.797 4.043 23.007 3.541 23.008 3.007C23.0095 2.7443 22.959 2.48389 22.8592 2.24085C22.7595 1.9978 22.6126 1.77693 22.427 1.591C22.2423 1.40391 22.0223 1.25533 21.7797 1.15389C21.5372 1.05244 21.2769 1.00013 21.014 1C20.496 0.997291 19.9972 1.19608 19.6231 1.55436C19.2489 1.91265 19.0287 2.40235 19.009 2.92C19.0043 3.01505 18.9728 3.10681 18.918 3.1846C18.8632 3.26239 18.7874 3.323 18.6995 3.35937C18.6115 3.39574 18.5151 3.40636 18.4213 3.39001C18.3276 3.37366 18.2404 3.331 18.17 3.267C17.9749 3.08763 17.7169 2.99255 17.4521 3.00248C17.1873 3.01241 16.9371 3.12653 16.756 3.32C16.6663 3.41612 16.5967 3.52908 16.551 3.65233C16.5053 3.77558 16.4846 3.90668 16.49 4.038C16.4946 4.16928 16.5252 4.29835 16.5801 4.41767C16.6351 4.53699 16.7132 4.64418 16.81 4.733C16.994 4.904 17.239 4.999 17.499 5H21.016Z" fill="currentColor"/>
<path d="M17.5 16C17.3674 16 17.2402 15.9473 17.1464 15.8536C17.0527 15.7598 17 15.6326 17 15.5V13.5C17 13.3674 17.0527 13.2402 17.1464 13.1464C17.2402 13.0527 17.3674 13 17.5 13C17.6326 13 17.7598 13.0527 17.8536 13.1464C17.9473 13.2402 18 13.3674 18 13.5V15.5C18 15.6326 17.9473 15.7598 17.8536 15.8536C17.7598 15.9473 17.6326 16 17.5 16Z" fill="currentColor"/>
<path d="M6.5 11.494C6.36739 11.494 6.24021 11.4413 6.14645 11.3476C6.05268 11.2538 6 11.1266 6 10.994V7.994C6 7.8614 6.05268 7.73422 6.14645 7.64045C6.24021 7.54668 6.36739 7.494 6.5 7.494C6.63261 7.494 6.75979 7.54668 6.85355 7.64045C6.94732 7.73422 7 7.8614 7 7.994V10.994C7 11.1266 6.94732 11.2538 6.85355 11.3476C6.75979 11.4413 6.63261 11.494 6.5 11.494Z" fill="currentColor"/>
</g>
<defs>
<clipPath id="clip0_1_113701">
<rect width="24" height="24" fill="white"/>
</clipPath>
</defs>
</svg>
