<svg width="24" height="24" viewBox="0 0 24 24" fill="none" xmlns="http://www.w3.org/2000/svg">
<path d="M17.5 20C16.122 20 15 18.878 15 17.5C15 16.122 16.122 15 17.5 15C18.878 15 20 16.122 20 17.5C20 18.878 18.878 20 17.5 20ZM17.5 16C16.673 16 16 16.673 16 17.5C16 18.327 16.673 19 17.5 19C18.327 19 19 18.327 19 17.5C19 16.673 18.327 16 17.5 16Z" fill="currentColor"/>
<path d="M4.5 20C3.121 20 2 18.878 2 17.5C2 16.122 3.121 15 4.5 15C5.879 15 7 16.122 7 17.5C7 18.878 5.879 20 4.5 20ZM4.5 16C3.673 16 3 16.673 3 17.5C3 18.327 3.673 19 4.5 19C5.327 19 6 18.327 6 17.5C6 16.673 5.327 16 4.5 16Z" fill="currentColor"/>
<path d="M9 18C8.86739 18 8.74021 17.9473 8.64645 17.8536C8.55268 17.7598 8.5 17.6326 8.5 17.5C8.5 17.3674 8.55268 17.2402 8.64645 17.1464C8.74021 17.0527 8.86739 17 9 17H13.5C13.6326 17 13.7598 17.0527 13.8536 17.1464C13.9473 17.2402 14 17.3674 14 17.5C14 17.6326 13.9473 17.7598 13.8536 17.8536C13.7598 17.9473 13.6326 18 13.5 18H9Z" fill="currentColor"/>
<path d="M21.5 18C21.3674 18 21.2402 17.9473 21.1464 17.8536C21.0527 17.7598 21 17.6326 21 17.5C21 17.3674 21.0527 17.2402 21.1464 17.1464C21.2402 17.0527 21.3674 17 21.5 17H22.5C22.6326 17 22.7598 16.9473 22.8536 16.8536C22.9473 16.7598 23 16.6326 23 16.5V13.118C23.0003 13.025 22.9744 12.9339 22.9255 12.8549C22.8765 12.7758 22.8064 12.7121 22.723 12.671L20.382 11.5H15V15C15 15.1326 14.9473 15.2598 14.8536 15.3536C14.7598 15.4473 14.6326 15.5 14.5 15.5C14.3674 15.5 14.2402 15.4473 14.1464 15.3536C14.0527 15.2598 14 15.1326 14 15V14H1V15.5C1 15.6326 0.947322 15.7598 0.853553 15.8536C0.759785 15.9473 0.632608 16 0.5 16C0.367392 16 0.240215 15.9473 0.146447 15.8536C0.0526784 15.7598 0 15.6326 0 15.5V5.5C0 4.673 0.673 4 1.5 4H18C19.378 4 20.5 5.121 20.5 6.5V7C20.5005 7.15976 20.4623 7.31725 20.3886 7.45901C20.3149 7.60077 20.208 7.72257 20.077 7.814C20.124 7.902 20.16 7.993 20.187 8.087L20.92 10.651L23.17 11.777C23.682 12.032 24 12.546 24 13.117V16.5C24 17.327 23.327 18 22.5 18H21.5ZM14 13V5H1.5C1.36739 5 1.24021 5.05268 1.14645 5.14645C1.05268 5.24021 1 5.36739 1 5.5V13H14ZM19.837 10.5L19.226 8.362C19.1959 8.25785 19.1329 8.16627 19.0463 8.101C18.9598 8.03573 18.8544 8.00029 18.746 8H15V10.5H19.837ZM19.5 7V6.5C19.5 5.673 18.827 5 18 5H15V7H19.5Z" fill="currentColor"/>
</svg>
