<svg width="24" height="24" viewBox="0 0 24 24" fill="none" xmlns="http://www.w3.org/2000/svg">
<path d="M12.001 16C9.79501 16 8.00101 14.206 8.00101 12C8.00101 9.794 9.79501 8 12.001 8C14.207 8 16.001 9.794 16.001 12C16.001 14.206 14.206 16 12.001 16ZM12.001 9C10.347 9 9.00101 10.346 9.00101 12C9.00101 13.654 10.347 15 12.001 15C13.655 15 15.001 13.654 15.001 12C15.001 10.346 13.655 9 12.001 9Z" fill="currentColor"/>
<path d="M12.001 19C6.281 19 1.56 14.146 0.249996 12.658C0.0919337 12.4755 0.00476287 12.2423 0.0043957 12.0009C0.00402852 11.7595 0.0904894 11.526 0.247996 11.343C1.559 9.855 6.281 5 12.001 5C17.715 5 22.433 9.845 23.748 11.337L23.754 11.344C24.079 11.718 24.079 12.282 23.754 12.656C22.442 14.145 17.72 19 12.001 19ZM12.001 6C6.701 6 2.24 10.594 0.999996 12.003C2.241 13.406 6.7 18 12.001 18C17.301 18 21.761 13.406 23.002 11.997C21.76 10.594 17.3 6 12.001 6Z" fill="currentColor"/>
</svg>
