<svg width="24" height="24" viewBox="0 0 24 24" fill="none" xmlns="http://www.w3.org/2000/svg">
<path d="M11.999 19C10.9317 18.9941 9.87117 18.8299 8.852 18.513C8.72909 18.4708 8.62742 18.3825 8.56852 18.2667C8.50963 18.1508 8.49814 18.0166 8.53649 17.8925C8.57485 17.7683 8.66002 17.664 8.77398 17.6015C8.88794 17.5391 9.02172 17.5235 9.147 17.558C10.0719 17.8457 11.0344 17.9947 12.003 18C17.239 18 21.696 13.317 22.844 12.002C21.767 10.7654 20.5528 9.65529 19.225 8.693C19.1717 8.65464 19.1266 8.60606 19.0922 8.55009C19.0579 8.49412 19.035 8.43188 19.025 8.367C19.0104 8.26961 19.0247 8.17007 19.0662 8.08076C19.1077 7.99145 19.1746 7.91633 19.2584 7.86474C19.3423 7.81315 19.4395 7.78737 19.538 7.79062C19.6364 7.79386 19.7317 7.82599 19.812 7.883C21.3203 8.97637 22.6883 10.2513 23.885 11.679C23.9583 11.7674 23.9991 11.8781 24.0008 11.9929C24.0024 12.1077 23.9647 12.2196 23.894 12.31C23.839 12.379 22.533 14.01 20.441 15.644C18.479 17.175 15.423 19 12 19H11.999Z" fill="currentColor"/>
<path d="M4.46801 16.2C4.36244 16.2002 4.25952 16.1669 4.17401 16.105C2.67143 15.0154 1.30883 13.7449 0.117011 12.322C0.0434821 12.2336 0.00248218 12.1226 0.000844488 12.0076C-0.000793201 11.8926 0.0370302 11.7805 0.108011 11.69C0.162011 11.622 1.45301 10.002 3.56001 8.357C5.52101 6.825 8.57601 5 12 5C12.886 5.004 13.77 5.119 14.626 5.341C14.7499 5.37829 14.8545 5.46215 14.9178 5.57494C14.9812 5.68773 14.9983 5.82068 14.9657 5.94586C14.9331 6.07104 14.8532 6.1787 14.7429 6.24623C14.6325 6.31376 14.5003 6.3359 14.374 6.308C13.5979 6.10684 12.7997 6.00337 11.998 6C6.76101 6 2.30501 10.682 1.15601 11.998C2.22961 13.2293 3.43895 14.3353 4.76101 15.295C4.84789 15.3562 4.9129 15.4437 4.94652 15.5445C4.98014 15.6454 4.98062 15.7543 4.94788 15.8554C4.91514 15.9566 4.8509 16.0446 4.76455 16.1066C4.67821 16.1686 4.5743 16.2013 4.46801 16.2Z" fill="currentColor"/>
<path d="M8 12.5C7.86739 12.5 7.74021 12.4473 7.64645 12.3536C7.55268 12.2598 7.5 12.1326 7.5 12C7.5 9.519 9.519 7.5 12 7.5C12.1326 7.5 12.2598 7.55268 12.3536 7.64645C12.4473 7.74021 12.5 7.86739 12.5 8C12.5 8.13261 12.4473 8.25979 12.3536 8.35355C12.2598 8.44732 12.1326 8.5 12 8.5C10.07 8.5 8.5 10.07 8.5 12C8.5 12.1326 8.44732 12.2598 8.35355 12.3536C8.25979 12.4473 8.13261 12.5 8 12.5Z" fill="currentColor"/>
<path d="M12 16.5C11.8674 16.5 11.7402 16.4473 11.6464 16.3536C11.5527 16.2598 11.5 16.1326 11.5 16C11.5 15.8674 11.5527 15.7402 11.6464 15.6464C11.7402 15.5527 11.8674 15.5 12 15.5C13.93 15.5 15.5 13.93 15.5 12C15.5 11.8674 15.5527 11.7402 15.6464 11.6464C15.7402 11.5527 15.8674 11.5 16 11.5C16.1326 11.5 16.2598 11.5527 16.3536 11.6464C16.4473 11.7402 16.5 11.8674 16.5 12C16.5 14.481 14.481 16.5 12 16.5Z" fill="currentColor"/>
<path d="M2.25002 22.25C2.1512 22.25 2.05461 22.2207 1.97243 22.1658C1.89026 22.1109 1.82619 22.0329 1.78831 21.9417C1.75044 21.8504 1.74045 21.75 1.75962 21.653C1.77879 21.5561 1.82625 21.467 1.89602 21.397L21.396 1.89702C21.4424 1.85053 21.4976 1.81365 21.5582 1.78846C21.6189 1.76328 21.684 1.75029 21.7497 1.75024C21.8154 1.7502 21.8804 1.76309 21.9411 1.78819C22.0019 1.81329 22.057 1.8501 22.1035 1.89652C22.15 1.94294 22.1869 1.99807 22.2121 2.05875C22.2373 2.11943 22.2502 2.18447 22.2503 2.25017C22.2503 2.31587 22.2374 2.38093 22.2123 2.44164C22.1873 2.50236 22.1504 2.55753 22.104 2.60402L2.60402 22.104C2.51 22.1976 2.38269 22.2502 2.25002 22.25Z" fill="currentColor"/>
</svg>
