<?xml version="1.0" encoding="UTF-8" standalone="no"?>
<svg
   width="24"
   height="24"
   viewBox="0 0 24 24"
   fill="none"
   version="1.1"
   id="svg6"
   sodipodi:docname="volume.svg"
   inkscape:version="1.3.2 (091e20e, 2023-11-25, custom)"
   xmlns:inkscape="http://www.inkscape.org/namespaces/inkscape"
   xmlns:sodipodi="http://sodipodi.sourceforge.net/DTD/sodipodi-0.dtd"
   xmlns="http://www.w3.org/2000/svg"
   xmlns:svg="http://www.w3.org/2000/svg">
  <defs
     id="defs6" />
  <sodipodi:namedview
     id="namedview6"
     pagecolor="#ffffff"
     bordercolor="#000000"
     borderopacity="0.25"
     inkscape:showpageshadow="2"
     inkscape:pageopacity="0.0"
     inkscape:pagecheckerboard="0"
     inkscape:deskcolor="#d1d1d1"
     inkscape:zoom="53.291667"
     inkscape:cx="11.990618"
     inkscape:cy="12"
     inkscape:window-width="2880"
     inkscape:window-height="1514"
     inkscape:window-x="-11"
     inkscape:window-y="-11"
     inkscape:window-maximized="1"
     inkscape:current-layer="svg6" />
  <path
     style="color:#000000;fill:currentColor;stroke-linecap:round;stroke-linejoin:round;-inkscape-stroke:none"
     d="m 12.029297,1 a 0.5,0.5 0 0 0 -0.5,0.5 V 6 a 0.5,0.5 0 0 0 0.5,0.5 0.5,0.5 0 0 0 0.5,-0.5 V 1.5 a 0.5,0.5 0 0 0 -0.5,-0.5 z"
     id="path1" />
  <path
     style="color:#000000;fill:currentColor;stroke-linecap:round;stroke-linejoin:round;-inkscape-stroke:none"
     d="m 11.830078,5.5410156 -7.9999999,3.5 a 0.50005,0.50005 0 0 0 0,0.9179688 l 7.9999999,3.4999996 a 0.50005,0.50005 0 0 0 0.400391,0 l 8,-3.4999996 a 0.50005,0.50005 0 0 0 0,-0.9179688 l -8,-3.5 a 0.50005,0.50005 0 0 0 -0.400391,0 z M 12.03125,6.546875 18.78125,9.5 12.029297,12.455078 5.2792969,9.5 Z"
     id="path2" />
  <path
     style="color:#000000;fill:currentColor;stroke-linecap:round;stroke-linejoin:round;-inkscape-stroke:none"
     d="m 4.0292969,9 a 0.5,0.5 0 0 0 -0.5,0.5 V 19 a 0.50005,0.50005 0 0 0 0.3007812,0.458984 l 7.9999999,3.5 a 0.50005,0.50005 0 0 0 0.400391,0 l 8,-3.5 A 0.50005,0.50005 0 0 0 20.529297,19 V 9.5 a 0.5,0.5 0 0 0 -0.5,-0.5 0.5,0.5 0 0 0 -0.5,0.5 v 9.173828 l -7.5,3.28125 -7.5000001,-3.28125 V 9.5 a 0.5,0.5 0 0 0 -0.5,-0.5 z"
     id="path3" />
  <path
     style="color:#000000;fill:currentColor;stroke-linecap:round;stroke-linejoin:round;-inkscape-stroke:none"
     d="m 12.029297,12.5 a 0.5,0.5 0 0 0 -0.5,0.5 v 9.5 a 0.5,0.5 0 0 0 0.5,0.5 0.5,0.5 0 0 0 0.5,-0.5 V 13 a 0.5,0.5 0 0 0 -0.5,-0.5 z"
     id="path4" />
  <path
     style="color:#000000;fill:currentColor;stroke-linecap:round;stroke-linejoin:round;-inkscape-stroke:none"
     d="m 4.1894531,18.525391 a 0.5,0.5 0 0 0 -0.3828125,0.02734 L 0.80664063,20.048828 A 0.5,0.5 0 0 0 0.58203125,20.71875 0.5,0.5 0 0 0 1.2539062,20.943359 l 3,-1.496093 A 0.5,0.5 0 0 0 4.4765625,18.777344 0.5,0.5 0 0 0 4.1894531,18.525391 Z"
     id="path5" />
  <path
     style="color:#000000;fill:currentColor;stroke-linecap:round;stroke-linejoin:round;-inkscape-stroke:none"
     d="m 19.871094,18.525391 a 0.5,0.5 0 0 0 -0.289063,0.251953 0.5,0.5 0 0 0 0.22461,0.669922 l 2.970703,1.482421 a 0.5,0.5 0 0 0 0.669922,-0.224609 0.5,0.5 0 0 0 -0.22461,-0.669922 l -2.96875,-1.482422 a 0.5,0.5 0 0 0 -0.382812,-0.02734 z"
     id="path6" />
</svg>
