<svg width="24" height="22" viewBox="0 0 24 22" fill="none" xmlns="http://www.w3.org/2000/svg">
<g clip-path="url(#clip0_1_113733)">
<path d="M7.30418 13.6316C7.16581 13.6316 7.0331 13.5761 6.93525 13.4774C6.83741 13.3787 6.78244 13.2448 6.78244 13.1052C6.78244 12.9656 6.83741 12.8318 6.93525 12.7331C7.0331 12.6344 7.16581 12.5789 7.30418 12.5789H16.6955C16.8339 12.5789 16.9666 12.6344 17.0644 12.7331C17.1623 12.8318 17.2172 12.9656 17.2172 13.1052C17.2172 13.2448 17.1623 13.3787 17.0644 13.4774C16.9666 13.5761 16.8339 13.6316 16.6955 13.6316H7.30418Z" fill="#B8BAC2"/>
<path d="M7.30418 15.7368C7.16581 15.7368 7.0331 15.6814 6.93525 15.5827C6.83741 15.484 6.78244 15.3501 6.78244 15.2105C6.78244 15.0709 6.83741 14.9371 6.93525 14.8384C7.0331 14.7397 7.16581 14.6842 7.30418 14.6842H16.6955C16.8339 14.6842 16.9666 14.7397 17.0644 14.8384C17.1623 14.9371 17.2172 15.0709 17.2172 15.2105C17.2172 15.3501 17.1623 15.484 17.0644 15.5827C16.9666 15.6814 16.8339 15.7368 16.6955 15.7368H7.30418Z" fill="#B8BAC2"/>
<path d="M7.30418 17.8421C7.16581 17.8421 7.0331 17.7867 6.93525 17.688C6.83741 17.5893 6.78244 17.4554 6.78244 17.3158C6.78244 17.1762 6.83741 17.0423 6.93525 16.9436C7.0331 16.8449 7.16581 16.7895 7.30418 16.7895H16.6955C16.8339 16.7895 16.9666 16.8449 17.0644 16.9436C17.1623 17.0423 17.2172 17.1762 17.2172 17.3158C17.2172 17.4554 17.1623 17.5893 17.0644 17.688C16.9666 17.7867 16.8339 17.8421 16.6955 17.8421H7.30418Z" fill="#B8BAC2"/>
<path d="M1.56513 21C0.702169 21 -9.15527e-05 20.2916 -9.15527e-05 19.4211V7.84211C-9.15527e-05 7.77368 0.136604 1 11.9999 1C16.9126 1 20.4208 2.12 22.4284 4.32842C23.9822 6.03895 23.9999 7.76947 23.9999 7.84211V19.4211C23.9999 20.2916 23.2976 21 22.4347 21H1.56513ZM22.4347 19.9474C22.5731 19.9474 22.7058 19.8919 22.8036 19.7932C22.9015 19.6945 22.9564 19.5606 22.9564 19.4211V8.36842H1.04339V19.4211C1.04339 19.5606 1.09836 19.6945 1.1962 19.7932C1.29405 19.8919 1.42675 19.9474 1.56513 19.9474H4.17382V11C4.17382 10.8604 4.22879 10.7265 4.32664 10.6278C4.42448 10.5291 4.55719 10.4737 4.69556 10.4737H19.3043C19.4426 10.4737 19.5753 10.5291 19.6732 10.6278C19.771 10.7265 19.826 10.8604 19.826 11V19.9474H22.4347ZM18.7825 19.9474V11.5263H5.2173V19.9474H18.7825ZM22.8896 7.31579C22.5735 5.76316 20.882 2.05263 11.9999 2.05263C3.11887 2.05263 1.42634 5.76316 1.11017 7.31579H22.8896Z" fill="#B8BAC2"/>
<path d="M10.4347 5.21053C10.2963 5.21053 10.1636 5.15508 10.0658 5.05638C9.96793 4.95767 9.91296 4.8238 9.91296 4.68421C9.91296 4.54463 9.96793 4.41076 10.0658 4.31205C10.1636 4.21335 10.2963 4.1579 10.4347 4.1579H13.5651C13.7035 4.1579 13.8362 4.21335 13.9341 4.31205C14.0319 4.41076 14.0869 4.54463 14.0869 4.68421C14.0869 4.8238 14.0319 4.95767 13.9341 5.05638C13.8362 5.15508 13.7035 5.21053 13.5651 5.21053H10.4347Z" fill="#B8BAC2"/>
</g>
<defs>
<clipPath id="clip0_1_113733">
<rect width="24" height="22" fill="white"/>
</clipPath>
</defs>
</svg>
