<?xml version="1.0" encoding="UTF-8" standalone="no"?>
<svg
   width="24"
   height="24"
   viewBox="0 0 24 24"
   fill="none"
   version="1.1"
   id="svg6"
   sodipodi:docname="wc.svg"
   inkscape:version="1.3.2 (091e20e, 2023-11-25, custom)"
   xmlns:inkscape="http://www.inkscape.org/namespaces/inkscape"
   xmlns:sodipodi="http://sodipodi.sourceforge.net/DTD/sodipodi-0.dtd"
   xmlns="http://www.w3.org/2000/svg"
   xmlns:svg="http://www.w3.org/2000/svg">
  <defs
     id="defs6" />
  <sodipodi:namedview
     id="namedview6"
     pagecolor="#ffffff"
     bordercolor="#000000"
     borderopacity="0.25"
     inkscape:showpageshadow="2"
     inkscape:pageopacity="0.0"
     inkscape:pagecheckerboard="0"
     inkscape:deskcolor="#d1d1d1"
     inkscape:zoom="53.291667"
     inkscape:cx="11.990618"
     inkscape:cy="12"
     inkscape:window-width="2880"
     inkscape:window-height="1514"
     inkscape:window-x="-11"
     inkscape:window-y="-11"
     inkscape:window-maximized="1"
     inkscape:current-layer="svg6" />
  <path
     style="color:#000000;fill:currentColor;stroke-linecap:round;stroke-linejoin:round;-inkscape-stroke:none"
     d="M 12,0.07421875 C 9.7407441,0.07090118 7.5289385,0.71178545 5.6210937,1.921875 3.1193001,3.5077488 1.7511415,5.9727098 1.53125,8.6152344 1.3113585,11.257759 2.2209523,14.075463 4.1894531,16.441406 c 2.1779908,2.615771 4.5754294,5.042143 7.1660159,7.25 a 0.50005,0.50005 0 0 0 0.002,0.002 c 0.179804,0.150437 0.407915,0.232422 0.642578,0.232422 0.234663,0 0.462774,-0.08198 0.642578,-0.232422 a 0.50005,0.50005 0 0 0 0.002,-0.002 c 2.590447,-2.208253 4.98792,-4.634047 7.166016,-7.25 1.969055,-2.365467 2.878228,-5.18375 2.658203,-7.8261716 C 22.248725,5.9728131 20.880687,3.5077404 18.378906,1.921875 16.471045,0.71178799 14.259246,0.07090118 12,0.07421875 Z m 0,0.99999995 c 2.069149,-0.00304 4.096415,0.5831356 5.84375,1.6914063 2.248215,1.4251316 3.432682,3.5750619 3.628906,5.9316406 C 21.66888,11.053844 20.85891,13.619253 19.042969,15.800781 16.902449,18.371605 14.545535,20.7554 12,22.925781 9.4543448,20.755804 7.0974157,18.37334 4.9570312,15.802734 3.1415308,13.620682 2.3331875,11.053991 2.5292969,8.6972656 2.7254062,6.3405402 3.9080484,4.1907482 6.15625,2.765625 7.9035616,1.6573569 9.9308402,1.0711803 12,1.0742187 Z"
     id="path1" />
  <path
     style="color:#000000;fill:currentColor;stroke-linecap:round;stroke-linejoin:round;-inkscape-stroke:none"
     d="m 7,4.0742187 a 0.50005,0.50005 0 0 0 -0.5,0.5 v 2 a 0.50005,0.50005 0 0 0 0.5,0.5 h 10 a 0.50005,0.50005 0 0 0 0.5,-0.5 v -2 a 0.50005,0.50005 0 0 0 -0.5,-0.5 z m 0.5,1 h 9 v 1 h -9 z"
     id="path2" />
  <path
     style="color:#000000;fill:currentColor;stroke-linecap:round;stroke-linejoin:round;-inkscape-stroke:none"
     d="m 8,10.074219 c -0.3976882,0 -0.7794103,0.158376 -1.0605469,0.439453 C 6.6582278,10.794852 6.5,11.176591 6.5,11.574219 v 1 a 0.50005,0.50005 0 0 0 0.5,0.5 h 10 a 0.50005,0.50005 0 0 0 0.5,-0.5 v -1 c 0,-0.397678 -0.158301,-0.779395 -0.439453,-1.060547 C 16.779395,10.23252 16.397678,10.074219 16,10.074219 Z m 0,1 h 8 c 0.132721,0 0.259668,0.05264 0.353516,0.146484 0.09385,0.09385 0.146484,0.220795 0.146484,0.353516 v 0.5 h -9 v -0.5 c 0,-0.132772 0.05265,-0.259697 0.1464844,-0.353516 C 7.7404275,11.12678 7.8672488,11.074219 8,11.074219 Z"
     id="path3" />
  <path
     style="color:#000000;fill:currentColor;stroke-linecap:round;stroke-linejoin:round;-inkscape-stroke:none"
     d="M 7.9375,6.078125 A 0.5,0.5 0 0 0 7.5039062,6.6367187 L 8.0039063,10.636719 A 0.5,0.5 0 0 0 8.5625,11.070313 0.5,0.5 0 0 0 8.9960938,10.513672 l -0.5,-4.0000001 A 0.5,0.5 0 0 0 7.9375,6.078125 Z"
     id="path4" />
  <path
     style="color:#000000;fill:currentColor;stroke-linecap:round;stroke-linejoin:round;-inkscape-stroke:none"
     d="m 16.0625,6.078125 a 0.5,0.5 0 0 0 -0.558594,0.4355469 l -0.5,4.0000001 a 0.5,0.5 0 0 0 0.433594,0.556641 0.5,0.5 0 0 0 0.558594,-0.433594 l 0.5,-4.0000003 A 0.5,0.5 0 0 0 16.0625,6.078125 Z"
     id="path5" />
  <path
     style="color:#000000;fill:currentColor;stroke-linecap:round;stroke-linejoin:round;-inkscape-stroke:none"
     d="m 7.5878906,12.103516 a 0.5,0.5 0 0 0 -0.3027344,0.638672 c 0.2381432,0.670444 0.6164141,1.281855 1.1093751,1.794921 0.3769793,0.392354 0.8574771,0.653479 1.3378906,0.904297 l -0.4648438,1.296875 c -0.053755,0.150582 -0.070251,0.312274 -0.048828,0.470703 0.021492,0.159087 0.08157,0.310352 0.1738281,0.441407 0.092465,0.131521 0.2149744,0.238706 0.3574219,0.3125 0.1420374,0.07355 0.300113,0.111528 0.460938,0.111328 h 3.578125 c 0.160825,2e-4 0.318655,-0.03759 0.460937,-0.111328 0.14217,-0.07358 0.265022,-0.181235 0.357422,-0.3125 0.09219,-0.130897 0.152355,-0.281863 0.173828,-0.441407 0.02127,-0.158039 0.0049,-0.32 -0.04883,-0.470703 v -0.002 l -0.464844,-1.294922 c 0.480383,-0.25081 0.960898,-0.511928 1.337891,-0.904297 0.492963,-0.513068 0.871233,-1.124482 1.109375,-1.794921 a 0.5,0.5 0 0 0 -0.302735,-0.638672 0.5,0.5 0 0 0 -0.638671,0.304687 c -0.190659,0.536759 -0.494037,1.02677 -0.888672,1.4375 -0.394639,0.410734 -0.871765,0.731464 -1.400391,0.94336 a 0.50005,0.50005 0 0 0 -0.285156,0.632812 l 0.591797,1.652344 c 0,0 -0.002,0 -0.002,0 h -3.578125 a 0.50005,0.50005 0 0 0 -0.002,0 l 0.591797,-1.652344 A 0.50005,0.50005 0 0 0 10.515625,14.789063 C 9.986939,14.577172 9.5098911,14.256456 9.1152344,13.845703 8.7205962,13.43497 8.4172189,12.944958 8.2265625,12.408203 A 0.5,0.5 0 0 0 7.5878906,12.103516 Z"
     id="path6" />
</svg>
