<svg width="24" height="24" viewBox="0 0 24 24" fill="none" xmlns="http://www.w3.org/2000/svg">
<g clip-path="url(#clip0_1_113879)">
<path d="M11.5 10.984C8.47599 10.984 6.01599 8.52399 6.01599 5.49999C6.01599 2.47599 8.47599 0.0159912 11.5 0.0159912C14.524 0.0159912 16.984 2.47599 16.984 5.49999C16.984 8.52399 14.524 10.984 11.5 10.984ZM11.5 1.01599C9.02699 1.01599 7.01599 3.02699 7.01599 5.49999C7.01599 7.97299 9.02699 9.98399 11.5 9.98399C13.972 9.98399 15.984 7.97299 15.984 5.49999C15.984 3.02699 13.972 1.01599 11.5 1.01599Z" fill="currentColor"/>
<path d="M11.5 6.48395C11.4095 6.48431 11.3206 6.46004 11.2428 6.41375C11.165 6.36746 11.1013 6.30088 11.0585 6.22116C11.0156 6.14144 10.9953 6.05156 10.9996 5.96116C11.0039 5.87076 11.0327 5.78323 11.083 5.70795L12.767 3.15395C12.8404 3.04361 12.9544 2.96675 13.0842 2.94015C13.214 2.91355 13.3491 2.93936 13.46 3.01195C13.5148 3.04811 13.562 3.09473 13.5988 3.14913C13.6356 3.20354 13.6614 3.26467 13.6746 3.32903C13.6878 3.39339 13.6881 3.45971 13.6757 3.52422C13.6632 3.58872 13.6382 3.65013 13.602 3.70495L11.918 6.25895C11.8724 6.32816 11.8103 6.38495 11.7374 6.42422C11.6644 6.4635 11.5828 6.48402 11.5 6.48395Z" fill="currentColor"/>
<path d="M8 18.984C7.86739 18.984 7.74021 18.9313 7.64645 18.8376C7.55268 18.7438 7.5 18.6166 7.5 18.484C7.5 18.3514 7.55268 18.2242 7.64645 18.1305C7.74021 18.0367 7.86739 17.984 8 17.984H15C15.1326 17.984 15.2598 18.0367 15.3536 18.1305C15.4473 18.2242 15.5 18.3514 15.5 18.484C15.5 18.6166 15.4473 18.7438 15.3536 18.8376C15.2598 18.9313 15.1326 18.984 15 18.984H8Z" fill="currentColor"/>
<path d="M8 20.984C7.86739 20.984 7.74021 20.9313 7.64645 20.8376C7.55268 20.7438 7.5 20.6166 7.5 20.484C7.5 20.3514 7.55268 20.2242 7.64645 20.1305C7.74021 20.0367 7.86739 19.984 8 19.984H15C15.1326 19.984 15.2598 20.0367 15.3536 20.1305C15.4473 20.2242 15.5 20.3514 15.5 20.484C15.5 20.6166 15.4473 20.7438 15.3536 20.8376C15.2598 20.9313 15.1326 20.984 15 20.984H8Z" fill="currentColor"/>
<path d="M1 23.984C0.867392 23.984 0.740215 23.9313 0.646447 23.8376C0.552678 23.7438 0.5 23.6166 0.5 23.484C0.5 23.3514 0.552678 23.2242 0.646447 23.1305C0.740215 23.0367 0.867392 22.984 1 22.984H5.632C5.22179 22.4929 4.99799 21.8729 5 21.233V17.733C5.00132 17.004 5.29165 16.3052 5.80733 15.7899C6.32301 15.2746 7.02198 14.9848 7.751 14.984H8V14.484C8 13.106 9.121 11.984 10.5 11.984H12.5C13.878 11.984 15 13.106 15 14.484V14.984H15.251C15.98 14.9851 16.6789 15.2751 17.1944 15.7906C17.7099 16.3061 17.9999 17.005 18.001 17.734V21.234C18.001 21.885 17.776 22.497 17.369 22.984H23C23.1326 22.984 23.2598 23.0367 23.3536 23.1305C23.4473 23.2242 23.5 23.3514 23.5 23.484C23.5 23.6166 23.4473 23.7438 23.3536 23.8376C23.2598 23.9313 23.1326 23.984 23 23.984H1ZM7.751 15.984C6.786 15.984 6.001 16.769 6 17.734V21.234C6 22.199 6.785 22.984 7.75 22.984H15.252C16.216 22.984 17.001 22.199 17.001 21.235V17.735C17.001 16.77 16.216 15.985 15.251 15.985H7.751V15.984ZM14 14.984V14.484C14 13.657 13.327 12.984 12.5 12.984H10.5C9.673 12.984 9 13.657 9 14.484V14.984H14Z" fill="currentColor"/>
</g>
<defs>
<clipPath id="clip0_1_113879">
<rect width="24" height="24" fill="white"/>
</clipPath>
</defs>
</svg>
